<?xml version="1.0" encoding="utf-8"?>
<svg xmlns="http://www.w3.org/2000/svg" xmlns:xlink="http://www.w3.org/1999/xlink" width="600" height="400" viewBox="0 0 2400 1600">
<defs>
  <clipPath id="clip350">
    <rect x="0" y="0" width="2400" height="1600"/>
  </clipPath>
</defs>
<path clip-path="url(#clip350)" d="M0 1600 L2400 1600 L2400 0 L0 0  Z" fill="#ffffff" fill-rule="evenodd" fill-opacity="1"/>
<defs>
  <clipPath id="clip351">
    <rect x="480" y="0" width="1681" height="1600"/>
  </clipPath>
</defs>
<path clip-path="url(#clip350)" d="M314.996 1401.58 L2352.76 1401.58 L2352.76 123.472 L314.996 123.472  Z" fill="#ffffff" fill-rule="evenodd" fill-opacity="1"/>
<defs>
  <clipPath id="clip352">
    <rect x="314" y="123" width="2039" height="1279"/>
  </clipPath>
</defs>
<polyline clip-path="url(#clip352)" style="stroke:#000000; stroke-linecap:round; stroke-linejoin:round; stroke-width:2; stroke-opacity:0.1; fill:none" points="518.772,1401.58 518.772,123.472 "/>
<polyline clip-path="url(#clip352)" style="stroke:#000000; stroke-linecap:round; stroke-linejoin:round; stroke-width:2; stroke-opacity:0.1; fill:none" points="926.324,1401.58 926.324,123.472 "/>
<polyline clip-path="url(#clip352)" style="stroke:#000000; stroke-linecap:round; stroke-linejoin:round; stroke-width:2; stroke-opacity:0.1; fill:none" points="1333.88,1401.58 1333.88,123.472 "/>
<polyline clip-path="url(#clip352)" style="stroke:#000000; stroke-linecap:round; stroke-linejoin:round; stroke-width:2; stroke-opacity:0.1; fill:none" points="1741.43,1401.58 1741.43,123.472 "/>
<polyline clip-path="url(#clip352)" style="stroke:#000000; stroke-linecap:round; stroke-linejoin:round; stroke-width:2; stroke-opacity:0.1; fill:none" points="2148.98,1401.58 2148.98,123.472 "/>
<polyline clip-path="url(#clip352)" style="stroke:#000000; stroke-linecap:round; stroke-linejoin:round; stroke-width:2; stroke-opacity:0.1; fill:none" points="314.996,1399.76 2352.76,1399.76 "/>
<polyline clip-path="url(#clip352)" style="stroke:#000000; stroke-linecap:round; stroke-linejoin:round; stroke-width:2; stroke-opacity:0.1; fill:none" points="314.996,1116.58 2352.76,1116.58 "/>
<polyline clip-path="url(#clip352)" style="stroke:#000000; stroke-linecap:round; stroke-linejoin:round; stroke-width:2; stroke-opacity:0.1; fill:none" points="314.996,833.39 2352.76,833.39 "/>
<polyline clip-path="url(#clip352)" style="stroke:#000000; stroke-linecap:round; stroke-linejoin:round; stroke-width:2; stroke-opacity:0.1; fill:none" points="314.996,550.203 2352.76,550.203 "/>
<polyline clip-path="url(#clip352)" style="stroke:#000000; stroke-linecap:round; stroke-linejoin:round; stroke-width:2; stroke-opacity:0.1; fill:none" points="314.996,267.016 2352.76,267.016 "/>
<polyline clip-path="url(#clip350)" style="stroke:#000000; stroke-linecap:round; stroke-linejoin:round; stroke-width:4; stroke-opacity:1; fill:none" points="314.996,1401.58 2352.76,1401.58 "/>
<polyline clip-path="url(#clip350)" style="stroke:#000000; stroke-linecap:round; stroke-linejoin:round; stroke-width:4; stroke-opacity:1; fill:none" points="518.772,1401.58 518.772,1382.68 "/>
<polyline clip-path="url(#clip350)" style="stroke:#000000; stroke-linecap:round; stroke-linejoin:round; stroke-width:4; stroke-opacity:1; fill:none" points="926.324,1401.58 926.324,1382.68 "/>
<polyline clip-path="url(#clip350)" style="stroke:#000000; stroke-linecap:round; stroke-linejoin:round; stroke-width:4; stroke-opacity:1; fill:none" points="1333.88,1401.58 1333.88,1382.68 "/>
<polyline clip-path="url(#clip350)" style="stroke:#000000; stroke-linecap:round; stroke-linejoin:round; stroke-width:4; stroke-opacity:1; fill:none" points="1741.43,1401.58 1741.43,1382.68 "/>
<polyline clip-path="url(#clip350)" style="stroke:#000000; stroke-linecap:round; stroke-linejoin:round; stroke-width:4; stroke-opacity:1; fill:none" points="2148.98,1401.58 2148.98,1382.68 "/>
<path clip-path="url(#clip350)" d="M438.564 1460.34 L483.078 1460.34 L483.078 1466.24 L438.564 1466.24 L438.564 1460.34 Z" fill="#000000" fill-rule="nonzero" fill-opacity="1" /><path clip-path="url(#clip350)" d="M499.432 1479.68 L510.89 1479.68 L510.89 1440.13 L498.425 1442.63 L498.425 1436.24 L510.821 1433.74 L517.834 1433.74 L517.834 1479.68 L529.293 1479.68 L529.293 1485.58 L499.432 1485.58 L499.432 1479.68 Z" fill="#000000" fill-rule="nonzero" fill-opacity="1" /><path clip-path="url(#clip350)" d="M543.459 1476.76 L550.786 1476.76 L550.786 1485.58 L543.459 1485.58 L543.459 1476.76 Z" fill="#000000" fill-rule="nonzero" fill-opacity="1" /><path clip-path="url(#clip350)" d="M581.063 1438.36 Q575.647 1438.36 572.904 1443.71 Q570.195 1449.02 570.195 1459.71 Q570.195 1470.37 572.904 1475.72 Q575.647 1481.03 581.063 1481.03 Q586.515 1481.03 589.223 1475.72 Q591.966 1470.37 591.966 1459.71 Q591.966 1449.02 589.223 1443.71 Q586.515 1438.36 581.063 1438.36 M581.063 1432.8 Q589.779 1432.8 594.362 1439.71 Q598.98 1446.59 598.98 1459.71 Q598.98 1472.8 594.362 1479.71 Q589.779 1486.59 581.063 1486.59 Q572.348 1486.59 567.73 1479.71 Q563.147 1472.8 563.147 1459.71 Q563.147 1446.59 567.73 1439.71 Q572.348 1432.8 581.063 1432.8 Z" fill="#000000" fill-rule="nonzero" fill-opacity="1" /><path clip-path="url(#clip350)" d="M846.863 1460.34 L891.376 1460.34 L891.376 1466.24 L846.863 1466.24 L846.863 1460.34 Z" fill="#000000" fill-rule="nonzero" fill-opacity="1" /><path clip-path="url(#clip350)" d="M921.515 1438.36 Q916.098 1438.36 913.355 1443.71 Q910.647 1449.02 910.647 1459.71 Q910.647 1470.37 913.355 1475.72 Q916.098 1481.03 921.515 1481.03 Q926.966 1481.03 929.675 1475.72 Q932.418 1470.37 932.418 1459.71 Q932.418 1449.02 929.675 1443.71 Q926.966 1438.36 921.515 1438.36 M921.515 1432.8 Q930.23 1432.8 934.813 1439.71 Q939.432 1446.59 939.432 1459.71 Q939.432 1472.8 934.813 1479.71 Q930.23 1486.59 921.515 1486.59 Q912.8 1486.59 908.182 1479.71 Q903.598 1472.8 903.598 1459.71 Q903.598 1446.59 908.182 1439.71 Q912.8 1432.8 921.515 1432.8 Z" fill="#000000" fill-rule="nonzero" fill-opacity="1" /><path clip-path="url(#clip350)" d="M951.758 1476.76 L959.084 1476.76 L959.084 1485.58 L951.758 1485.58 L951.758 1476.76 Z" fill="#000000" fill-rule="nonzero" fill-opacity="1" /><path clip-path="url(#clip350)" d="M974.431 1433.74 L1001.97 1433.74 L1001.97 1439.64 L980.855 1439.64 L980.855 1452.35 Q982.383 1451.83 983.91 1451.59 Q985.438 1451.31 986.966 1451.31 Q995.646 1451.31 1000.72 1456.07 Q1005.79 1460.82 1005.79 1468.95 Q1005.79 1477.32 1000.58 1481.97 Q995.369 1486.59 985.89 1486.59 Q982.626 1486.59 979.223 1486.03 Q975.855 1485.48 972.244 1484.36 L972.244 1477.32 Q975.369 1479.02 978.702 1479.85 Q982.035 1480.68 985.751 1480.68 Q991.758 1480.68 995.265 1477.52 Q998.771 1474.36 998.771 1468.95 Q998.771 1463.53 995.265 1460.37 Q991.758 1457.21 985.751 1457.21 Q982.938 1457.21 980.126 1457.84 Q977.348 1458.46 974.431 1459.78 L974.431 1433.74 Z" fill="#000000" fill-rule="nonzero" fill-opacity="1" /><path clip-path="url(#clip350)" d="M1299.95 1438.36 Q1294.54 1438.36 1291.79 1443.71 Q1289.08 1449.02 1289.08 1459.71 Q1289.08 1470.37 1291.79 1475.72 Q1294.54 1481.03 1299.95 1481.03 Q1305.4 1481.03 1308.11 1475.72 Q1310.86 1470.37 1310.86 1459.71 Q1310.86 1449.02 1308.11 1443.71 Q1305.4 1438.36 1299.95 1438.36 M1299.95 1432.8 Q1308.67 1432.8 1313.25 1439.71 Q1317.87 1446.59 1317.87 1459.71 Q1317.87 1472.8 1313.25 1479.71 Q1308.67 1486.59 1299.95 1486.59 Q1291.24 1486.59 1286.62 1479.71 Q1282.04 1472.8 1282.04 1459.71 Q1282.04 1446.59 1286.62 1439.71 Q1291.24 1432.8 1299.95 1432.8 Z" fill="#000000" fill-rule="nonzero" fill-opacity="1" /><path clip-path="url(#clip350)" d="M1330.2 1476.76 L1337.52 1476.76 L1337.52 1485.58 L1330.2 1485.58 L1330.2 1476.76 Z" fill="#000000" fill-rule="nonzero" fill-opacity="1" /><path clip-path="url(#clip350)" d="M1367.8 1438.36 Q1362.38 1438.36 1359.64 1443.71 Q1356.93 1449.02 1356.93 1459.71 Q1356.93 1470.37 1359.64 1475.72 Q1362.38 1481.03 1367.8 1481.03 Q1373.25 1481.03 1375.96 1475.72 Q1378.7 1470.37 1378.7 1459.71 Q1378.7 1449.02 1375.96 1443.71 Q1373.25 1438.36 1367.8 1438.36 M1367.8 1432.8 Q1376.51 1432.8 1381.1 1439.71 Q1385.72 1446.59 1385.72 1459.71 Q1385.72 1472.8 1381.1 1479.71 Q1376.51 1486.59 1367.8 1486.59 Q1359.08 1486.59 1354.47 1479.71 Q1349.88 1472.8 1349.88 1459.71 Q1349.88 1446.59 1354.47 1439.71 Q1359.08 1432.8 1367.8 1432.8 Z" fill="#000000" fill-rule="nonzero" fill-opacity="1" /><path clip-path="url(#clip350)" d="M1708.25 1438.36 Q1702.83 1438.36 1700.09 1443.71 Q1697.38 1449.02 1697.38 1459.71 Q1697.38 1470.37 1700.09 1475.72 Q1702.83 1481.03 1708.25 1481.03 Q1713.7 1481.03 1716.41 1475.72 Q1719.15 1470.37 1719.15 1459.71 Q1719.15 1449.02 1716.41 1443.71 Q1713.7 1438.36 1708.25 1438.36 M1708.25 1432.8 Q1716.97 1432.8 1721.55 1439.71 Q1726.17 1446.59 1726.17 1459.71 Q1726.17 1472.8 1721.55 1479.71 Q1716.97 1486.59 1708.25 1486.59 Q1699.54 1486.59 1694.92 1479.71 Q1690.33 1472.8 1690.33 1459.71 Q1690.33 1446.59 1694.92 1439.71 Q1699.54 1432.8 1708.25 1432.8 Z" fill="#000000" fill-rule="nonzero" fill-opacity="1" /><path clip-path="url(#clip350)" d="M1738.49 1476.76 L1745.82 1476.76 L1745.82 1485.58 L1738.49 1485.58 L1738.49 1476.76 Z" fill="#000000" fill-rule="nonzero" fill-opacity="1" /><path clip-path="url(#clip350)" d="M1761.17 1433.74 L1788.7 1433.74 L1788.7 1439.64 L1767.59 1439.64 L1767.59 1452.35 Q1769.12 1451.83 1770.65 1451.59 Q1772.17 1451.31 1773.7 1451.31 Q1782.38 1451.31 1787.45 1456.07 Q1792.52 1460.82 1792.52 1468.95 Q1792.52 1477.32 1787.31 1481.97 Q1782.1 1486.59 1772.63 1486.59 Q1769.36 1486.59 1765.96 1486.03 Q1762.59 1485.48 1758.98 1484.36 L1758.98 1477.32 Q1762.1 1479.02 1765.44 1479.85 Q1768.77 1480.68 1772.49 1480.68 Q1778.49 1480.68 1782 1477.52 Q1785.51 1474.36 1785.51 1468.95 Q1785.51 1463.53 1782 1460.37 Q1778.49 1457.21 1772.49 1457.21 Q1769.67 1457.21 1766.86 1457.84 Q1764.08 1458.46 1761.17 1459.78 L1761.17 1433.74 Z" fill="#000000" fill-rule="nonzero" fill-opacity="1" /><path clip-path="url(#clip350)" d="M2099.71 1479.68 L2111.17 1479.68 L2111.17 1440.13 L2098.7 1442.63 L2098.7 1436.24 L2111.1 1433.74 L2118.11 1433.74 L2118.11 1479.68 L2129.57 1479.68 L2129.57 1485.58 L2099.71 1485.58 L2099.71 1479.68 Z" fill="#000000" fill-rule="nonzero" fill-opacity="1" /><path clip-path="url(#clip350)" d="M2143.74 1476.76 L2151.06 1476.76 L2151.06 1485.58 L2143.74 1485.58 L2143.74 1476.76 Z" fill="#000000" fill-rule="nonzero" fill-opacity="1" /><path clip-path="url(#clip350)" d="M2181.34 1438.36 Q2175.92 1438.36 2173.18 1443.71 Q2170.47 1449.02 2170.47 1459.71 Q2170.47 1470.37 2173.18 1475.72 Q2175.92 1481.03 2181.34 1481.03 Q2186.79 1481.03 2189.5 1475.72 Q2192.24 1470.37 2192.24 1459.71 Q2192.24 1449.02 2189.5 1443.71 Q2186.79 1438.36 2181.34 1438.36 M2181.34 1432.8 Q2190.06 1432.8 2194.64 1439.71 Q2199.26 1446.59 2199.26 1459.71 Q2199.26 1472.8 2194.64 1479.71 Q2190.06 1486.59 2181.34 1486.59 Q2172.63 1486.59 2168.01 1479.71 Q2163.42 1472.8 2163.42 1459.71 Q2163.42 1446.59 2168.01 1439.71 Q2172.63 1432.8 2181.34 1432.8 Z" fill="#000000" fill-rule="nonzero" fill-opacity="1" /><path clip-path="url(#clip350)" d="M1212.77 1538.66 L1219.54 1538.66 L1231.69 1571.3 L1243.84 1538.66 L1250.61 1538.66 L1236.03 1577.55 L1227.35 1577.55 L1212.77 1538.66 Z" fill="#000000" fill-rule="nonzero" fill-opacity="1" /><path clip-path="url(#clip350)" d="M1281.45 1523.52 L1296.17 1523.52 L1296.17 1528.49 L1287.83 1528.49 L1287.83 1581.96 L1296.17 1581.96 L1296.17 1586.92 L1281.45 1586.92 L1281.45 1523.52 Z" fill="#000000" fill-rule="nonzero" fill-opacity="1" /><path clip-path="url(#clip350)" d="M1340.06 1546.12 Q1342.45 1541.82 1345.79 1539.77 Q1349.12 1537.72 1353.63 1537.72 Q1359.71 1537.72 1363.01 1541.99 Q1366.31 1546.23 1366.31 1554.08 L1366.31 1577.55 L1359.88 1577.55 L1359.88 1554.28 Q1359.88 1548.69 1357.9 1545.99 Q1355.92 1543.28 1351.86 1543.28 Q1346.9 1543.28 1344.01 1546.58 Q1341.13 1549.87 1341.13 1555.57 L1341.13 1577.55 L1334.71 1577.55 L1334.71 1554.28 Q1334.71 1548.66 1332.73 1545.99 Q1330.75 1543.28 1326.62 1543.28 Q1321.72 1543.28 1318.84 1546.61 Q1315.96 1549.91 1315.96 1555.57 L1315.96 1577.55 L1309.54 1577.55 L1309.54 1538.66 L1315.96 1538.66 L1315.96 1544.7 Q1318.15 1541.12 1321.2 1539.42 Q1324.26 1537.72 1328.46 1537.72 Q1332.7 1537.72 1335.65 1539.87 Q1338.63 1542.03 1340.06 1546.12 Z" fill="#000000" fill-rule="nonzero" fill-opacity="1" /><path clip-path="url(#clip350)" d="M1390.4 1525.71 L1396.31 1525.71 L1378.25 1584.15 L1372.35 1584.15 L1390.4 1525.71 Z" fill="#000000" fill-rule="nonzero" fill-opacity="1" /><path clip-path="url(#clip350)" d="M1427.8 1539.8 L1427.8 1545.85 Q1425.09 1544.46 1422.17 1543.76 Q1419.26 1543.07 1416.13 1543.07 Q1411.38 1543.07 1408.98 1544.53 Q1406.62 1545.99 1406.62 1548.9 Q1406.62 1551.12 1408.32 1552.41 Q1410.02 1553.66 1415.16 1554.8 L1417.35 1555.29 Q1424.15 1556.75 1427 1559.42 Q1429.88 1562.06 1429.88 1566.82 Q1429.88 1572.24 1425.58 1575.4 Q1421.31 1578.55 1413.81 1578.55 Q1410.68 1578.55 1407.28 1577.93 Q1403.91 1577.34 1400.16 1576.12 L1400.16 1569.53 Q1403.7 1571.37 1407.14 1572.3 Q1410.58 1573.21 1413.94 1573.21 Q1418.46 1573.21 1420.89 1571.68 Q1423.32 1570.12 1423.32 1567.3 Q1423.32 1564.7 1421.55 1563.31 Q1419.81 1561.92 1413.88 1560.64 L1411.65 1560.12 Q1405.72 1558.87 1403.08 1556.3 Q1400.44 1553.69 1400.44 1549.18 Q1400.44 1543.69 1404.33 1540.71 Q1408.22 1537.72 1415.37 1537.72 Q1418.91 1537.72 1422.04 1538.24 Q1425.16 1538.76 1427.8 1539.8 Z" fill="#000000" fill-rule="nonzero" fill-opacity="1" /><path clip-path="url(#clip350)" d="M1454.99 1523.52 L1454.99 1586.92 L1440.26 1586.92 L1440.26 1581.96 L1448.56 1581.96 L1448.56 1528.49 L1440.26 1528.49 L1440.26 1523.52 L1454.99 1523.52 Z" fill="#000000" fill-rule="nonzero" fill-opacity="1" /><polyline clip-path="url(#clip350)" style="stroke:#000000; stroke-linecap:round; stroke-linejoin:round; stroke-width:4; stroke-opacity:1; fill:none" points="314.996,1401.58 314.996,123.472 "/>
<polyline clip-path="url(#clip350)" style="stroke:#000000; stroke-linecap:round; stroke-linejoin:round; stroke-width:4; stroke-opacity:1; fill:none" points="314.996,1399.76 333.894,1399.76 "/>
<polyline clip-path="url(#clip350)" style="stroke:#000000; stroke-linecap:round; stroke-linejoin:round; stroke-width:4; stroke-opacity:1; fill:none" points="314.996,1116.58 333.894,1116.58 "/>
<polyline clip-path="url(#clip350)" style="stroke:#000000; stroke-linecap:round; stroke-linejoin:round; stroke-width:4; stroke-opacity:1; fill:none" points="314.996,833.39 333.894,833.39 "/>
<polyline clip-path="url(#clip350)" style="stroke:#000000; stroke-linecap:round; stroke-linejoin:round; stroke-width:4; stroke-opacity:1; fill:none" points="314.996,550.203 333.894,550.203 "/>
<polyline clip-path="url(#clip350)" style="stroke:#000000; stroke-linecap:round; stroke-linejoin:round; stroke-width:4; stroke-opacity:1; fill:none" points="314.996,267.016 333.894,267.016 "/>
<path clip-path="url(#clip350)" d="M118.58 1400.44 L163.094 1400.44 L163.094 1406.34 L118.58 1406.34 L118.58 1400.44 Z" fill="#000000" fill-rule="nonzero" fill-opacity="1" /><path clip-path="url(#clip350)" d="M178.302 1373.84 L205.837 1373.84 L205.837 1379.75 L184.726 1379.75 L184.726 1392.45 Q186.253 1391.93 187.781 1391.69 Q189.309 1391.41 190.837 1391.41 Q199.517 1391.41 204.587 1396.17 Q209.656 1400.93 209.656 1409.05 Q209.656 1417.42 204.448 1422.07 Q199.239 1426.69 189.76 1426.69 Q186.496 1426.69 183.094 1426.13 Q179.726 1425.58 176.115 1424.47 L176.115 1417.42 Q179.24 1419.12 182.573 1419.95 Q185.906 1420.79 189.621 1420.79 Q195.628 1420.79 199.135 1417.63 Q202.642 1414.47 202.642 1409.05 Q202.642 1403.63 199.135 1400.47 Q195.628 1397.31 189.621 1397.31 Q186.809 1397.31 183.996 1397.94 Q181.219 1398.56 178.302 1399.88 L178.302 1373.84 Z" fill="#000000" fill-rule="nonzero" fill-opacity="1" /><path clip-path="url(#clip350)" d="M223.475 1416.86 L230.802 1416.86 L230.802 1425.68 L223.475 1425.68 L223.475 1416.86 Z" fill="#000000" fill-rule="nonzero" fill-opacity="1" /><path clip-path="url(#clip350)" d="M261.079 1378.46 Q255.663 1378.46 252.92 1383.81 Q250.211 1389.12 250.211 1399.81 Q250.211 1410.47 252.92 1415.82 Q255.663 1421.13 261.079 1421.13 Q266.531 1421.13 269.239 1415.82 Q271.982 1410.47 271.982 1399.81 Q271.982 1389.12 269.239 1383.81 Q266.531 1378.46 261.079 1378.46 M261.079 1372.91 Q269.795 1372.91 274.378 1379.81 Q278.996 1386.69 278.996 1399.81 Q278.996 1412.91 274.378 1419.81 Q269.795 1426.69 261.079 1426.69 Q252.364 1426.69 247.746 1419.81 Q243.163 1412.91 243.163 1399.81 Q243.163 1386.69 247.746 1379.81 Q252.364 1372.91 261.079 1372.91 Z" fill="#000000" fill-rule="nonzero" fill-opacity="1" /><path clip-path="url(#clip350)" d="M120.073 1117.25 L164.587 1117.25 L164.587 1123.16 L120.073 1123.16 L120.073 1117.25 Z" fill="#000000" fill-rule="nonzero" fill-opacity="1" /><path clip-path="url(#clip350)" d="M185.767 1136.59 L210.246 1136.59 L210.246 1142.5 L177.33 1142.5 L177.33 1136.59 Q181.323 1132.46 188.198 1125.52 Q195.108 1118.54 196.878 1116.52 Q200.246 1112.74 201.566 1110.14 Q202.92 1107.5 202.92 1104.96 Q202.92 1100.83 200.003 1098.23 Q197.121 1095.62 192.469 1095.62 Q189.17 1095.62 185.49 1096.77 Q181.844 1097.91 177.677 1100.24 L177.677 1093.16 Q181.913 1091.45 185.594 1090.59 Q189.274 1089.72 192.33 1089.72 Q200.385 1089.72 205.177 1093.75 Q209.969 1097.77 209.969 1104.51 Q209.969 1107.7 208.753 1110.59 Q207.573 1113.43 204.413 1117.32 Q203.545 1118.33 198.892 1123.16 Q194.239 1127.95 185.767 1136.59 Z" fill="#000000" fill-rule="nonzero" fill-opacity="1" /><path clip-path="url(#clip350)" d="M224.968 1133.68 L232.295 1133.68 L232.295 1142.5 L224.968 1142.5 L224.968 1133.68 Z" fill="#000000" fill-rule="nonzero" fill-opacity="1" /><path clip-path="url(#clip350)" d="M247.642 1090.66 L275.177 1090.66 L275.177 1096.56 L254.066 1096.56 L254.066 1109.27 Q255.593 1108.75 257.121 1108.5 Q258.649 1108.23 260.177 1108.23 Q268.857 1108.23 273.927 1112.98 Q278.996 1117.74 278.996 1125.86 Q278.996 1134.23 273.788 1138.89 Q268.579 1143.5 259.1 1143.5 Q255.836 1143.5 252.434 1142.95 Q249.066 1142.39 245.454 1141.28 L245.454 1134.23 Q248.579 1135.93 251.913 1136.77 Q255.246 1137.6 258.961 1137.6 Q264.968 1137.6 268.475 1134.44 Q271.982 1131.28 271.982 1125.86 Q271.982 1120.45 268.475 1117.29 Q264.968 1114.13 258.961 1114.13 Q256.149 1114.13 253.336 1114.75 Q250.559 1115.38 247.642 1116.7 L247.642 1090.66 Z" fill="#000000" fill-rule="nonzero" fill-opacity="1" /><path clip-path="url(#clip350)" d="M193.233 812.088 Q187.816 812.088 185.073 817.435 Q182.365 822.747 182.365 833.442 Q182.365 844.101 185.073 849.448 Q187.816 854.761 193.233 854.761 Q198.684 854.761 201.392 849.448 Q204.135 844.101 204.135 833.442 Q204.135 822.747 201.392 817.435 Q198.684 812.088 193.233 812.088 M193.233 806.532 Q201.948 806.532 206.531 813.442 Q211.149 820.317 211.149 833.442 Q211.149 846.532 206.531 853.441 Q201.948 860.316 193.233 860.316 Q184.517 860.316 179.899 853.441 Q175.316 846.532 175.316 833.442 Q175.316 820.317 179.899 813.442 Q184.517 806.532 193.233 806.532 Z" fill="#000000" fill-rule="nonzero" fill-opacity="1" /><path clip-path="url(#clip350)" d="M223.475 850.49 L230.802 850.49 L230.802 859.31 L223.475 859.31 L223.475 850.49 Z" fill="#000000" fill-rule="nonzero" fill-opacity="1" /><path clip-path="url(#clip350)" d="M261.079 812.088 Q255.663 812.088 252.92 817.435 Q250.211 822.747 250.211 833.442 Q250.211 844.101 252.92 849.448 Q255.663 854.761 261.079 854.761 Q266.531 854.761 269.239 849.448 Q271.982 844.101 271.982 833.442 Q271.982 822.747 269.239 817.435 Q266.531 812.088 261.079 812.088 M261.079 806.532 Q269.795 806.532 274.378 813.442 Q278.996 820.317 278.996 833.442 Q278.996 846.532 274.378 853.441 Q269.795 860.316 261.079 860.316 Q252.364 860.316 247.746 853.441 Q243.163 846.532 243.163 833.442 Q243.163 820.317 247.746 813.442 Q252.364 806.532 261.079 806.532 Z" fill="#000000" fill-rule="nonzero" fill-opacity="1" /><path clip-path="url(#clip350)" d="M185.767 570.22 L210.246 570.22 L210.246 576.123 L177.33 576.123 L177.33 570.22 Q181.323 566.088 188.198 559.144 Q195.108 552.165 196.878 550.151 Q200.246 546.366 201.566 543.762 Q202.92 541.123 202.92 538.588 Q202.92 534.456 200.003 531.852 Q197.121 529.248 192.469 529.248 Q189.17 529.248 185.49 530.394 Q181.844 531.54 177.677 533.866 L177.677 526.783 Q181.913 525.081 185.594 524.213 Q189.274 523.345 192.33 523.345 Q200.385 523.345 205.177 527.373 Q209.969 531.401 209.969 538.137 Q209.969 541.331 208.753 544.213 Q207.573 547.061 204.413 550.949 Q203.545 551.956 198.892 556.783 Q194.239 561.574 185.767 570.22 Z" fill="#000000" fill-rule="nonzero" fill-opacity="1" /><path clip-path="url(#clip350)" d="M224.968 567.303 L232.295 567.303 L232.295 576.123 L224.968 576.123 L224.968 567.303 Z" fill="#000000" fill-rule="nonzero" fill-opacity="1" /><path clip-path="url(#clip350)" d="M247.642 524.283 L275.177 524.283 L275.177 530.186 L254.066 530.186 L254.066 542.894 Q255.593 542.373 257.121 542.13 Q258.649 541.852 260.177 541.852 Q268.857 541.852 273.927 546.609 Q278.996 551.366 278.996 559.491 Q278.996 567.859 273.788 572.512 Q268.579 577.13 259.1 577.13 Q255.836 577.13 252.434 576.574 Q249.066 576.019 245.454 574.908 L245.454 567.859 Q248.579 569.56 251.913 570.394 Q255.246 571.227 258.961 571.227 Q264.968 571.227 268.475 568.067 Q271.982 564.908 271.982 559.491 Q271.982 554.074 268.475 550.915 Q264.968 547.755 258.961 547.755 Q256.149 547.755 253.336 548.38 Q250.559 549.005 247.642 550.324 L247.642 524.283 Z" fill="#000000" fill-rule="nonzero" fill-opacity="1" /><path clip-path="url(#clip350)" d="M178.302 241.096 L205.837 241.096 L205.837 246.999 L184.726 246.999 L184.726 259.707 Q186.253 259.186 187.781 258.943 Q189.309 258.666 190.837 258.666 Q199.517 258.666 204.587 263.423 Q209.656 268.179 209.656 276.304 Q209.656 284.672 204.448 289.325 Q199.239 293.943 189.76 293.943 Q186.496 293.943 183.094 293.388 Q179.726 292.832 176.115 291.721 L176.115 284.672 Q179.24 286.374 182.573 287.207 Q185.906 288.04 189.621 288.04 Q195.628 288.04 199.135 284.881 Q202.642 281.721 202.642 276.304 Q202.642 270.888 199.135 267.728 Q195.628 264.568 189.621 264.568 Q186.809 264.568 183.996 265.193 Q181.219 265.818 178.302 267.138 L178.302 241.096 Z" fill="#000000" fill-rule="nonzero" fill-opacity="1" /><path clip-path="url(#clip350)" d="M223.475 284.117 L230.802 284.117 L230.802 292.936 L223.475 292.936 L223.475 284.117 Z" fill="#000000" fill-rule="nonzero" fill-opacity="1" /><path clip-path="url(#clip350)" d="M261.079 245.714 Q255.663 245.714 252.92 251.061 Q250.211 256.374 250.211 267.068 Q250.211 277.728 252.92 283.075 Q255.663 288.388 261.079 288.388 Q266.531 288.388 269.239 283.075 Q271.982 277.728 271.982 267.068 Q271.982 256.374 269.239 251.061 Q266.531 245.714 261.079 245.714 M261.079 240.159 Q269.795 240.159 274.378 247.068 Q278.996 253.943 278.996 267.068 Q278.996 280.159 274.378 287.068 Q269.795 293.943 261.079 293.943 Q252.364 293.943 247.746 287.068 Q243.163 280.159 243.163 267.068 Q243.163 253.943 247.746 247.068 Q252.364 240.159 261.079 240.159 Z" fill="#000000" fill-rule="nonzero" fill-opacity="1" /><path clip-path="url(#clip350)" d="M13.0007 1025.04 L18.3131 1025.04 L18.3131 1031.15 Q18.3131 1034.59 19.702 1035.94 Q21.0909 1037.26 24.702 1037.26 L28.1395 1037.26 L28.1395 1026.74 L33.1047 1026.74 L33.1047 1037.26 L67.0282 1037.26 L67.0282 1043.69 L33.1047 1043.69 L33.1047 1049.8 L28.1395 1049.8 L28.1395 1043.69 L25.4312 1043.69 Q18.9381 1043.69 15.9868 1040.67 Q13.0007 1037.65 13.0007 1031.08 L13.0007 1025.04 Z" fill="#000000" fill-rule="nonzero" fill-opacity="1" /><path clip-path="url(#clip350)" d="M34.1117 997.16 Q33.4867 998.237 33.2089 999.521 Q32.8964 1000.77 32.8964 1002.3 Q32.8964 1007.72 36.438 1010.63 Q39.945 1013.51 46.5422 1013.51 L67.0282 1013.51 L67.0282 1019.94 L28.1395 1019.94 L28.1395 1013.51 L34.1811 1013.51 Q30.6395 1011.5 28.9381 1008.27 Q27.202 1005.04 27.202 1000.42 Q27.202 999.764 27.3061 998.966 Q27.3756 998.167 27.5492 997.195 L34.1117 997.16 Z" fill="#000000" fill-rule="nonzero" fill-opacity="1" /><path clip-path="url(#clip350)" d="M28.1395 990.459 L28.1395 984.07 L67.0282 984.07 L67.0282 990.459 L28.1395 990.459 M13.0007 990.459 L13.0007 984.07 L21.0909 984.07 L21.0909 990.459 L13.0007 990.459 Z" fill="#000000" fill-rule="nonzero" fill-opacity="1" /><path clip-path="url(#clip350)" d="M29.6325 942.716 L35.6047 942.716 Q34.1117 945.424 33.3825 948.167 Q32.6186 950.876 32.6186 953.653 Q32.6186 959.869 36.5769 963.306 Q40.5005 966.744 47.6185 966.744 Q54.7366 966.744 58.6949 963.306 Q62.6185 959.869 62.6185 953.653 Q62.6185 950.876 61.8893 948.167 Q61.1254 945.424 59.6324 942.716 L65.5351 942.716 Q66.7851 945.39 67.4101 948.272 Q68.0351 951.119 68.0351 954.348 Q68.0351 963.133 62.5143 968.306 Q56.9935 973.48 47.6185 973.48 Q38.1047 973.48 32.6533 968.271 Q27.202 963.028 27.202 953.931 Q27.202 950.98 27.827 948.167 Q28.4173 945.355 29.6325 942.716 Z" fill="#000000" fill-rule="nonzero" fill-opacity="1" /><path clip-path="url(#clip350)" d="M17.0979 925.286 L28.1395 925.286 L28.1395 912.126 L33.1047 912.126 L33.1047 925.286 L54.2157 925.286 Q58.9726 925.286 60.3268 924.001 Q61.681 922.681 61.681 918.688 L61.681 912.126 L67.0282 912.126 L67.0282 918.688 Q67.0282 926.084 64.2851 928.897 Q61.5074 931.709 54.2157 931.709 L33.1047 931.709 L33.1047 936.397 L28.1395 936.397 L28.1395 931.709 L17.0979 931.709 L17.0979 925.286 Z" fill="#000000" fill-rule="nonzero" fill-opacity="1" /><path clip-path="url(#clip350)" d="M28.1395 903.723 L28.1395 897.334 L67.0282 897.334 L67.0282 903.723 L28.1395 903.723 M13.0007 903.723 L13.0007 897.334 L21.0909 897.334 L21.0909 903.723 L13.0007 903.723 Z" fill="#000000" fill-rule="nonzero" fill-opacity="1" /><path clip-path="url(#clip350)" d="M32.6186 868.897 Q32.6186 874.036 36.6464 877.022 Q40.6394 880.008 47.6185 880.008 Q54.5977 880.008 58.6254 877.057 Q62.6185 874.071 62.6185 868.897 Q62.6185 863.793 58.5907 860.807 Q54.5629 857.821 47.6185 857.821 Q40.7089 857.821 36.6811 860.807 Q32.6186 863.793 32.6186 868.897 M27.202 868.897 Q27.202 860.564 32.6186 855.807 Q38.0353 851.05 47.6185 851.05 Q57.1671 851.05 62.6185 855.807 Q68.0351 860.564 68.0351 868.897 Q68.0351 877.265 62.6185 882.022 Q57.1671 886.744 47.6185 886.744 Q38.0353 886.744 32.6186 882.022 Q27.202 877.265 27.202 868.897 Z" fill="#000000" fill-rule="nonzero" fill-opacity="1" /><path clip-path="url(#clip350)" d="M43.5561 808.133 L67.0282 808.133 L67.0282 814.522 L43.7644 814.522 Q38.2436 814.522 35.5005 816.675 Q32.7575 818.828 32.7575 823.133 Q32.7575 828.307 36.0561 831.293 Q39.3547 834.279 45.0491 834.279 L67.0282 834.279 L67.0282 840.703 L28.1395 840.703 L28.1395 834.279 L34.1811 834.279 Q30.6742 831.987 28.9381 828.897 Q27.202 825.772 27.202 821.71 Q27.202 815.008 31.3686 811.571 Q35.5005 808.133 43.5561 808.133 Z" fill="#000000" fill-rule="nonzero" fill-opacity="1" /><path clip-path="url(#clip350)" d="M13.0007 753.099 L18.3131 753.099 L18.3131 759.21 Q18.3131 762.648 19.702 764.002 Q21.0909 765.321 24.702 765.321 L28.1395 765.321 L28.1395 754.8 L33.1047 754.8 L33.1047 765.321 L67.0282 765.321 L67.0282 771.745 L33.1047 771.745 L33.1047 777.856 L28.1395 777.856 L28.1395 771.745 L25.4312 771.745 Q18.9381 771.745 15.9868 768.724 Q13.0007 765.703 13.0007 759.141 L13.0007 753.099 Z" fill="#000000" fill-rule="nonzero" fill-opacity="1" /><path clip-path="url(#clip350)" d="M32.6186 732.682 Q32.6186 737.821 36.6464 740.807 Q40.6394 743.793 47.6185 743.793 Q54.5977 743.793 58.6254 740.842 Q62.6185 737.856 62.6185 732.682 Q62.6185 727.578 58.5907 724.592 Q54.5629 721.606 47.6185 721.606 Q40.7089 721.606 36.6811 724.592 Q32.6186 727.578 32.6186 732.682 M27.202 732.682 Q27.202 724.349 32.6186 719.592 Q38.0353 714.835 47.6185 714.835 Q57.1671 714.835 62.6185 719.592 Q68.0351 724.349 68.0351 732.682 Q68.0351 741.05 62.6185 745.807 Q57.1671 750.53 47.6185 750.53 Q38.0353 750.53 32.6186 745.807 Q27.202 741.05 27.202 732.682 Z" fill="#000000" fill-rule="nonzero" fill-opacity="1" /><path clip-path="url(#clip350)" d="M34.1117 681.71 Q33.4867 682.787 33.2089 684.072 Q32.8964 685.322 32.8964 686.849 Q32.8964 692.266 36.438 695.183 Q39.945 698.065 46.5422 698.065 L67.0282 698.065 L67.0282 704.488 L28.1395 704.488 L28.1395 698.065 L34.1811 698.065 Q30.6395 696.051 28.9381 692.821 Q27.202 689.592 27.202 684.974 Q27.202 684.315 27.3061 683.516 Q27.3756 682.717 27.5492 681.745 L34.1117 681.71 Z" fill="#000000" fill-rule="nonzero" fill-opacity="1" /><path clip-path="url(#clip350)" d="M29.6325 648.586 L35.6047 648.586 Q34.1117 651.294 33.3825 654.037 Q32.6186 656.745 32.6186 659.523 Q32.6186 665.738 36.5769 669.176 Q40.5005 672.613 47.6185 672.613 Q54.7366 672.613 58.6949 669.176 Q62.6185 665.738 62.6185 659.523 Q62.6185 656.745 61.8893 654.037 Q61.1254 651.294 59.6324 648.586 L65.5351 648.586 Q66.7851 651.259 67.4101 654.141 Q68.0351 656.988 68.0351 660.218 Q68.0351 669.002 62.5143 674.176 Q56.9935 679.349 47.6185 679.349 Q38.1047 679.349 32.6533 674.141 Q27.202 668.898 27.202 659.801 Q27.202 656.849 27.827 654.037 Q28.4173 651.224 29.6325 648.586 Z" fill="#000000" fill-rule="nonzero" fill-opacity="1" /><path clip-path="url(#clip350)" d="M45.9866 604.211 L49.1116 604.211 L49.1116 633.586 Q55.7088 633.169 59.181 629.627 Q62.6185 626.051 62.6185 619.697 Q62.6185 616.016 61.7157 612.579 Q60.8129 609.107 59.0074 605.704 L65.049 605.704 Q66.5073 609.141 67.2712 612.752 Q68.0351 616.364 68.0351 620.079 Q68.0351 629.384 62.6185 634.836 Q57.2018 640.252 47.9658 640.252 Q38.4172 640.252 32.827 635.113 Q27.202 629.94 27.202 621.19 Q27.202 613.343 32.2714 608.794 Q37.3061 604.211 45.9866 604.211 M44.1116 610.6 Q38.8686 610.669 35.7436 613.551 Q32.6186 616.398 32.6186 621.12 Q32.6186 626.468 35.6394 629.697 Q38.6603 632.891 44.1463 633.377 L44.1116 610.6 Z" fill="#000000" fill-rule="nonzero" fill-opacity="1" /><path clip-path="url(#clip350)" d="M13.0007 571.711 L13.0007 556.989 L17.9659 556.989 L17.9659 565.322 L71.4379 565.322 L71.4379 556.989 L76.4031 556.989 L76.4031 571.711 L13.0007 571.711 Z" fill="#000000" fill-rule="nonzero" fill-opacity="1" /><path clip-path="url(#clip350)" d="M15.1882 543.1 L15.1882 533.656 L58.556 510.67 L15.1882 510.67 L15.1882 503.864 L67.0282 503.864 L67.0282 513.309 L23.6603 536.295 L67.0282 536.295 L67.0282 543.1 L15.1882 543.1 Z" fill="#000000" fill-rule="nonzero" fill-opacity="1" /><path clip-path="url(#clip350)" d="M13.0007 475.253 L76.4031 475.253 L76.4031 489.975 L71.4379 489.975 L71.4379 481.677 L17.9659 481.677 L17.9659 489.975 L13.0007 489.975 L13.0007 475.253 Z" fill="#000000" fill-rule="nonzero" fill-opacity="1" /><path clip-path="url(#clip350)" d="M1008.49 12.096 L1043.24 12.096 L1043.24 18.9825 L1016.67 18.9825 L1016.67 36.8065 L1040.65 36.8065 L1040.65 43.6931 L1016.67 43.6931 L1016.67 72.576 L1008.49 72.576 L1008.49 12.096 Z" fill="#000000" fill-rule="nonzero" fill-opacity="1" /><path clip-path="url(#clip350)" d="M1076.14 34.1734 Q1074.88 33.4443 1073.38 33.1202 Q1071.92 32.7556 1070.14 32.7556 Q1063.82 32.7556 1060.42 36.8875 Q1057.06 40.9789 1057.06 48.6757 L1057.06 72.576 L1049.56 72.576 L1049.56 27.2059 L1057.06 27.2059 L1057.06 34.2544 Q1059.41 30.1225 1063.17 28.1376 Q1066.94 26.1121 1072.33 26.1121 Q1073.1 26.1121 1074.03 26.2337 Q1074.96 26.3147 1076.1 26.5172 L1076.14 34.1734 Z" fill="#000000" fill-rule="nonzero" fill-opacity="1" /><path clip-path="url(#clip350)" d="M1083.96 27.2059 L1091.41 27.2059 L1091.41 72.576 L1083.96 72.576 L1083.96 27.2059 M1083.96 9.54393 L1091.41 9.54393 L1091.41 18.9825 L1083.96 18.9825 L1083.96 9.54393 Z" fill="#000000" fill-rule="nonzero" fill-opacity="1" /><path clip-path="url(#clip350)" d="M1139.66 28.9478 L1139.66 35.9153 Q1136.5 34.1734 1133.3 33.3227 Q1130.14 32.4315 1126.89 32.4315 Q1119.64 32.4315 1115.63 37.0496 Q1111.62 41.6271 1111.62 49.9314 Q1111.62 58.2358 1115.63 62.8538 Q1119.64 67.4314 1126.89 67.4314 Q1130.14 67.4314 1133.3 66.5807 Q1136.5 65.6895 1139.66 63.9476 L1139.66 70.8341 Q1136.54 72.2924 1133.17 73.0216 Q1129.85 73.7508 1126.08 73.7508 Q1115.84 73.7508 1109.8 67.3098 Q1103.76 60.8689 1103.76 49.9314 Q1103.76 38.832 1109.84 32.472 Q1115.96 26.1121 1126.57 26.1121 Q1130.01 26.1121 1133.3 26.8413 Q1136.58 27.5299 1139.66 28.9478 Z" fill="#000000" fill-rule="nonzero" fill-opacity="1" /><path clip-path="url(#clip350)" d="M1159.99 14.324 L1159.99 27.2059 L1175.34 27.2059 L1175.34 32.9987 L1159.99 32.9987 L1159.99 57.6282 Q1159.99 63.1779 1161.49 64.7578 Q1163.03 66.3376 1167.69 66.3376 L1175.34 66.3376 L1175.34 72.576 L1167.69 72.576 Q1159.06 72.576 1155.78 69.3758 Q1152.5 66.1351 1152.5 57.6282 L1152.5 32.9987 L1147.03 32.9987 L1147.03 27.2059 L1152.5 27.2059 L1152.5 14.324 L1159.99 14.324 Z" fill="#000000" fill-rule="nonzero" fill-opacity="1" /><path clip-path="url(#clip350)" d="M1185.15 27.2059 L1192.6 27.2059 L1192.6 72.576 L1185.15 72.576 L1185.15 27.2059 M1185.15 9.54393 L1192.6 9.54393 L1192.6 18.9825 L1185.15 18.9825 L1185.15 9.54393 Z" fill="#000000" fill-rule="nonzero" fill-opacity="1" /><path clip-path="url(#clip350)" d="M1225.78 32.4315 Q1219.78 32.4315 1216.3 37.1306 Q1212.81 41.7891 1212.81 49.9314 Q1212.81 58.0738 1216.26 62.7728 Q1219.74 67.4314 1225.78 67.4314 Q1231.73 67.4314 1235.22 62.7323 Q1238.7 58.0333 1238.7 49.9314 Q1238.7 41.8701 1235.22 37.1711 Q1231.73 32.4315 1225.78 32.4315 M1225.78 26.1121 Q1235.5 26.1121 1241.05 32.4315 Q1246.6 38.7509 1246.6 49.9314 Q1246.6 61.0714 1241.05 67.4314 Q1235.5 73.7508 1225.78 73.7508 Q1216.01 73.7508 1210.47 67.4314 Q1204.96 61.0714 1204.96 49.9314 Q1204.96 38.7509 1210.47 32.4315 Q1216.01 26.1121 1225.78 26.1121 Z" fill="#000000" fill-rule="nonzero" fill-opacity="1" /><path clip-path="url(#clip350)" d="M1296.67 45.1919 L1296.67 72.576 L1289.21 72.576 L1289.21 45.4349 Q1289.21 38.994 1286.7 35.7938 Q1284.19 32.5936 1279.17 32.5936 Q1273.13 32.5936 1269.65 36.4419 Q1266.17 40.2903 1266.17 46.9338 L1266.17 72.576 L1258.67 72.576 L1258.67 27.2059 L1266.17 27.2059 L1266.17 34.2544 Q1268.84 30.163 1272.44 28.1376 Q1276.09 26.1121 1280.83 26.1121 Q1288.65 26.1121 1292.66 30.9732 Q1296.67 35.7938 1296.67 45.1919 Z" fill="#000000" fill-rule="nonzero" fill-opacity="1" /><path clip-path="url(#clip350)" d="M1373.23 35.9153 Q1376.03 30.8922 1379.91 28.5022 Q1383.8 26.1121 1389.07 26.1121 Q1396.16 26.1121 1400.01 31.0947 Q1403.86 36.0368 1403.86 45.1919 L1403.86 72.576 L1396.36 72.576 L1396.36 45.4349 Q1396.36 38.913 1394.05 35.7533 Q1391.74 32.5936 1387 32.5936 Q1381.21 32.5936 1377.85 36.4419 Q1374.49 40.2903 1374.49 46.9338 L1374.49 72.576 L1366.99 72.576 L1366.99 45.4349 Q1366.99 38.8725 1364.68 35.7533 Q1362.37 32.5936 1357.55 32.5936 Q1351.84 32.5936 1348.48 36.4824 Q1345.12 40.3308 1345.12 46.9338 L1345.12 72.576 L1337.62 72.576 L1337.62 27.2059 L1345.12 27.2059 L1345.12 34.2544 Q1347.67 30.082 1351.23 28.0971 Q1354.8 26.1121 1359.7 26.1121 Q1364.64 26.1121 1368.09 28.6237 Q1371.57 31.1352 1373.23 35.9153 Z" fill="#000000" fill-rule="nonzero" fill-opacity="1" /><path clip-path="url(#clip350)" d="M1436.3 32.4315 Q1430.31 32.4315 1426.82 37.1306 Q1423.34 41.7891 1423.34 49.9314 Q1423.34 58.0738 1426.78 62.7728 Q1430.27 67.4314 1436.3 67.4314 Q1442.26 67.4314 1445.74 62.7323 Q1449.23 58.0333 1449.23 49.9314 Q1449.23 41.8701 1445.74 37.1711 Q1442.26 32.4315 1436.3 32.4315 M1436.3 26.1121 Q1446.03 26.1121 1451.57 32.4315 Q1457.12 38.7509 1457.12 49.9314 Q1457.12 61.0714 1451.57 67.4314 Q1446.03 73.7508 1436.3 73.7508 Q1426.54 73.7508 1420.99 67.4314 Q1415.48 61.0714 1415.48 49.9314 Q1415.48 38.7509 1420.99 32.4315 Q1426.54 26.1121 1436.3 26.1121 Z" fill="#000000" fill-rule="nonzero" fill-opacity="1" /><path clip-path="url(#clip350)" d="M1499.34 34.0924 L1499.34 9.54393 L1506.79 9.54393 L1506.79 72.576 L1499.34 72.576 L1499.34 65.7705 Q1496.99 69.8214 1493.38 71.8063 Q1489.82 73.7508 1484.79 73.7508 Q1476.57 73.7508 1471.38 67.1883 Q1466.24 60.6258 1466.24 49.9314 Q1466.24 39.2371 1471.38 32.6746 Q1476.57 26.1121 1484.79 26.1121 Q1489.82 26.1121 1493.38 28.0971 Q1496.99 30.0415 1499.34 34.0924 M1473.94 49.9314 Q1473.94 58.1548 1477.3 62.8538 Q1480.7 67.5124 1486.62 67.5124 Q1492.53 67.5124 1495.93 62.8538 Q1499.34 58.1548 1499.34 49.9314 Q1499.34 41.7081 1495.93 37.0496 Q1492.53 32.3505 1486.62 32.3505 Q1480.7 32.3505 1477.3 37.0496 Q1473.94 41.7081 1473.94 49.9314 Z" fill="#000000" fill-rule="nonzero" fill-opacity="1" /><path clip-path="url(#clip350)" d="M1560.95 48.0275 L1560.95 51.6733 L1526.68 51.6733 Q1527.16 59.3701 1531.3 63.421 Q1535.47 67.4314 1542.88 67.4314 Q1547.18 67.4314 1551.19 66.3781 Q1555.24 65.3249 1559.21 63.2184 L1559.21 70.267 Q1555.2 71.9684 1550.98 72.8596 Q1546.77 73.7508 1542.44 73.7508 Q1531.58 73.7508 1525.22 67.4314 Q1518.9 61.1119 1518.9 50.3365 Q1518.9 39.1965 1524.9 32.6746 Q1530.93 26.1121 1541.14 26.1121 Q1550.3 26.1121 1555.6 32.0264 Q1560.95 37.9003 1560.95 48.0275 M1553.5 45.84 Q1553.41 39.7232 1550.05 36.0774 Q1546.73 32.4315 1541.22 32.4315 Q1534.98 32.4315 1531.22 35.9558 Q1527.49 39.4801 1526.92 45.8805 L1553.5 45.84 Z" fill="#000000" fill-rule="nonzero" fill-opacity="1" /><path clip-path="url(#clip350)" d="M1573.18 9.54393 L1580.64 9.54393 L1580.64 72.576 L1573.18 72.576 L1573.18 9.54393 Z" fill="#000000" fill-rule="nonzero" fill-opacity="1" /><path clip-path="url(#clip350)" d="M1630.71 65.6895 L1659.26 65.6895 L1659.26 72.576 L1620.86 72.576 L1620.86 65.6895 Q1625.52 60.8689 1633.54 52.7671 Q1641.6 44.6248 1643.67 42.2752 Q1647.6 37.8598 1649.14 34.8216 Q1650.72 31.7429 1650.72 28.7857 Q1650.72 23.9651 1647.31 20.927 Q1643.95 17.8888 1638.52 17.8888 Q1634.68 17.8888 1630.38 19.2256 Q1626.13 20.5624 1621.27 23.2765 L1621.27 15.0127 Q1626.21 13.0277 1630.5 12.015 Q1634.8 11.0023 1638.36 11.0023 Q1647.76 11.0023 1653.35 15.7013 Q1658.94 20.4004 1658.94 28.2591 Q1658.94 31.9859 1657.52 35.3482 Q1656.15 38.6699 1652.46 43.2069 Q1651.45 44.3817 1646.02 50.0125 Q1640.59 55.6027 1630.71 65.6895 Z" fill="#000000" fill-rule="nonzero" fill-opacity="1" /><polyline clip-path="url(#clip352)" style="stroke:#009af9; stroke-linecap:round; stroke-linejoin:round; stroke-width:8; stroke-opacity:1; fill:none" points="1333.88,833.39 1368.67,833.39 1403.74,833.39 1439.01,833.39 1474.44,833.39 1509.95,833.39 1545.51,833.39 1581.04,833.39 1616.51,833.39 1651.85,833.39 1687.02,833.39 1721.97,833.39 1756.64,833.39 1791,833.39 1824.99,833.39 1858.58,833.39 1891.72,833.39 1924.37,833.39 1956.48,833.39 1988.03,833.39 2018.97,833.39 2049.27,833.39 2078.89,833.39 2107.8,833.39 2135.96,833.39 2163.34,833.39 2189.92,833.39 2215.66,833.39 2240.53,833.39 2264.51,833.39 2287.58,833.39 2309.7,833.39 2330.85,833.39 2351.02,833.39 2370.17,833.39 2388.29,833.39 2405.37,833.39 2421.37,833.39 2436.29,833.39 2450.11,833.39 2462.82,833.39 2474.4,833.39 2484.84,833.39 2494.13,833.39 2502.26,833.39 2509.22,833.39 2515.01,833.39 2519.62,833.39 2523.04,833.39 2525.28,833.39 2526.32,833.39 2526.17,833.39 2524.82,833.39 2522.29,833.39 2518.57,833.39 2513.66,833.39 2507.58,833.39 2500.31,833.39 2491.89,833.39 2482.3,833.39 2471.56,833.39 2459.69,833.39 2446.69,833.39 2432.57,833.39 2417.35,833.39 2401.05,833.39 2383.67,833.39 2365.24,833.39 2345.78,833.39 2325.29,833.39 2303.81,833.39 2281.34,833.39 2257.92,833.39 2233.56,833.39 2208.29,833.39 2182.12,833.39 2155.09,833.39 2127.21,833.39 2098.52,833.39 2069.03,833.39 2038.76,833.39 2007.76,833.39 1976.04,833.39 1943.62,833.39 1910.54,833.39 1876.82,833.39 1842.48,833.39 1807.55,833.39 1772.05,833.39 1736.01,833.39 1699.46,833.39 1662.4,833.39 1624.87,833.39 1586.88,833.39 1548.45,833.39 1509.6,833.39 1470.34,833.39 1430.67,833.39 1390.62,833.39 1350.18,833.39 1316.73,833.39 1287.9,833.39 1258.87,833.39 1229.69,833.39 1200.4,833.39 1171.05,833.39 1141.68,833.39 1112.33,833.39 1083.05,833.39 1053.87,833.39 1024.85,833.39 996.009,833.39 967.397,833.39 939.05,833.39 911.005,833.39 883.297,833.39 855.963,833.39 829.036,833.39 802.55,833.39 776.537,833.39 751.029,833.39 726.055,833.39 701.646,833.39 677.83,833.39 654.635,833.39 632.087,833.39 610.212,833.39 589.035,833.39 568.58,833.39 548.869,833.39 529.925,833.39 511.768,833.39 494.419,833.39 477.896,833.39 462.216,833.39 447.399,833.39 433.458,833.39 420.41,833.39 408.268,833.39 397.045,833.39 386.753,833.39 377.404,833.39 369.008,833.39 361.572,833.39 355.106,833.39 349.616,833.39 345.109,833.39 341.588,833.39 339.059,833.39 337.523,833.39 336.984,833.39 337.441,833.39 338.895,833.39 341.344,833.39 344.787,833.39 349.221,833.39 354.641,833.39 361.043,833.39 368.42,833.39 376.766,833.39 386.073,833.39 396.333,833.39 407.535,833.39 419.67,833.39 432.726,833.39 446.691,833.39 461.553,833.39 477.297,833.39 493.909,833.39 511.375,833.39 529.677,833.39 548.801,833.39 568.728,833.39 589.441,833.39 610.922,833.39 633.152,833.39 656.112,833.39 679.783,833.39 704.143,833.39 729.174,833.39 754.854,833.39 781.163,833.39 808.08,833.39 835.584,833.39 863.654,833.39 892.27,833.39 921.41,833.39 951.056,833.39 981.186,833.39 1011.78,833.39 1042.82,833.39 1074.29,833.39 1106.18,833.39 1138.45,833.39 1171.11,833.39 1204.13,833.39 1237.51,833.39 1271.24,833.39 1305.3,833.39 1337.61,833.39 1360.01,833.39 1382.59,833.39 1405.31,833.39 1428.14,833.39 1451.05,833.39 1473.99,833.39 1496.95,833.39 1519.89,833.39 1542.78,833.39 1565.58,833.39 1588.27,833.39 1610.81,833.39 1633.18,833.39 1655.35,833.39 1677.29,833.39 1698.96,833.39 1720.35,833.39 1741.42,833.39 1762.15,833.39 1782.51,833.39 1802.48,833.39 1822.04,833.39 1841.16,833.39 1859.81,833.39 1877.98,833.39 1895.65,833.39 1912.78,833.39 1929.37,833.39 1945.4,833.39 1960.84,833.39 1975.68,833.39 1989.9,833.39 2003.49,833.39 2016.42,833.39 2028.69,833.39 2040.28,833.39 2051.18,833.39 2061.37,833.39 2070.85,833.39 2079.6,833.39 2087.62,833.39 2094.89,833.39 2101.41,833.39 2107.16,833.39 2112.15,833.39 2116.36,833.39 2119.8,833.39 2122.45,833.39 2124.31,833.39 2125.39,833.39 2125.67,833.39 2125.17,833.39 2123.87,833.39 2121.78,833.39 2118.9,833.39 2115.23,833.39 2110.78,833.39 2105.54,833.39 2099.53,833.39 2092.75,833.39 2085.2,833.39 2076.89,833.39 2067.82,833.39 2058.01,833.39 2047.47,833.39 2036.2,833.39 2024.21,833.39 2011.51,833.39 1998.12,833.39 1984.05,833.39 1969.3,833.39 1953.89,833.39 1937.84,833.39 1921.15,833.39 1903.85,833.39 1885.94,833.39 1867.44,833.39 1848.36,833.39 1828.73,833.39 1808.55,833.39 1787.84,833.39 1766.62,833.39 1744.91,833.39 1722.71,833.39 1700.05,833.39 1676.95,833.39 1653.41,833.39 1629.45,833.39 1605.1,833.39 1580.36,833.39 1555.24,833.39 1529.78,833.39 1503.97,833.39 1477.83,833.39 1451.38,833.39 1424.62,833.39 1397.57,833.39 1370.24,833.39 1342.64,833.39 1323.16,833.39 1307.41,833.39 1291.53,833.39 1275.57,833.39 1259.53,833.39 1243.44,833.39 1227.32,833.39 1211.2,833.39 1195.08,833.39 1178.99,833.39 1162.96,833.39 1147,833.39 1131.14,833.39 1115.39,833.39 1099.78,833.39 1084.31,833.39 1069.03,833.39 1053.93,833.39 1039.05,833.39 1024.4,833.39 1010,833.39 995.863,833.39 982.011,833.39 968.46,833.39 955.226,833.39 942.326,833.39 929.775,833.39 917.588,833.39 905.78,833.39 894.366,833.39 883.358,833.39 872.771,833.39 862.617,833.39 852.907,833.39 843.654,833.39 834.868,833.39 826.561,833.39 818.742,833.39 811.42,833.39 804.604,833.39 798.303,833.39 792.525,833.39 787.276,833.39 782.562,833.39 778.391,833.39 774.767,833.39 771.696,833.39 769.181,833.39 767.226,833.39 765.835,833.39 765.009,833.39 764.751,833.39 765.062,833.39 765.943,833.39 767.394,833.39 769.415,833.39 772.006,833.39 775.163,833.39 778.887,833.39 783.174,833.39 788.021,833.39 793.424,833.39 799.38,833.39 805.885,833.39 812.932,833.39 820.517,833.39 828.634,833.39 837.276,833.39 846.437,833.39 856.108,833.39 866.284,833.39 876.954,833.39 888.112,833.39 899.748,833.39 911.853,833.39 924.417,833.39 937.432,833.39 950.886,833.39 964.77,833.39 979.072,833.39 993.784,833.39 1008.89,833.39 1024.39,833.39 1040.26,833.39 1056.49,833.39 1073.08,833.39 1090,833.39 1107.26,833.39 1124.83,833.39 1142.71,833.39 1160.89,833.39 1179.35,833.39 1198.08,833.39 1217.07,833.39 1236.31,833.39 1255.8,833.39 1275.51,833.39 1295.44,833.39 1315.59,833.39 1334.7,833.39 1342.95,833.39 1351.26,833.39 "/>
<polyline clip-path="url(#clip352)" style="stroke:#e26f46; stroke-linecap:round; stroke-linejoin:round; stroke-width:8; stroke-opacity:1; fill:none" points="1333.88,748.434 1368.67,752.827 1403.74,756.87 1439.01,760.581 1474.44,763.978 1509.95,767.079 1545.51,769.904 1581.04,772.471 1616.51,774.798 1651.85,776.904 1687.02,778.806 1721.97,780.519 1756.64,782.061 1791,783.445 1824.99,784.685 1858.58,785.795 1891.72,786.785 1924.37,787.667 1956.48,788.452 1988.03,789.149 2018.97,789.765 2049.27,790.31 2078.89,790.791 2107.8,791.213 2135.96,791.584 2163.34,791.908 2189.92,792.19 2215.66,792.436 2240.53,792.648 2264.51,792.831 2287.58,792.989 2309.7,793.123 2330.85,793.238 2351.02,793.334 2370.17,793.416 2388.29,793.483 2405.37,793.54 2421.37,793.586 2436.29,793.623 2450.11,793.654 2462.82,793.678 2474.4,793.697 2484.84,793.711 2494.13,793.722 2502.26,793.731 2509.22,793.737 2515.01,793.742 2519.62,793.745 2523.04,793.747 2525.28,793.748 2526.32,793.748 2526.17,793.748 2524.82,793.748 2522.29,793.746 2518.57,793.744 2513.66,793.741 2507.58,793.736 2500.31,793.729 2491.89,793.72 2482.3,793.708 2471.56,793.692 2459.69,793.672 2446.69,793.646 2432.57,793.614 2417.35,793.575 2401.05,793.526 2383.67,793.467 2365.24,793.396 2345.78,793.31 2325.29,793.209 2303.81,793.089 2281.34,792.948 2257.92,792.783 2233.56,792.591 2208.29,792.368 2182.12,792.11 2155.09,791.814 2127.21,791.473 2098.52,791.082 2069.03,790.636 2038.76,790.128 2007.76,789.549 1976.04,788.892 1943.62,788.147 1910.54,787.305 1876.82,786.352 1842.48,785.277 1807.55,784.064 1772.05,782.699 1736.01,781.162 1699.46,779.435 1662.4,777.494 1624.87,775.315 1586.88,772.869 1548.45,770.126 1509.6,767.05 1470.34,763.601 1430.67,759.735 1390.62,910.59 1350.18,916.011 1316.73,916.131 1287.9,912.623 1258.87,909.346 1229.69,906.293 1200.4,903.455 1171.05,900.823 1141.68,898.386 1112.33,896.134 1083.05,894.058 1053.87,892.146 1024.85,890.389 996.009,888.777 967.397,887.3 939.05,885.948 911.005,884.714 883.297,883.587 855.963,882.561 829.036,881.627 802.55,880.779 776.537,880.008 751.029,879.31 726.055,878.678 701.646,878.107 677.83,877.591 654.635,877.126 632.087,876.706 610.212,876.33 589.035,875.991 568.58,875.687 548.869,875.415 529.925,875.172 511.768,874.955 494.419,874.762 477.896,874.589 462.216,874.437 447.399,874.301 433.458,874.182 420.41,874.077 408.268,873.984 397.045,873.904 386.753,873.833 377.404,873.773 369.008,873.72 361.572,873.676 355.106,873.639 349.616,873.609 345.109,873.584 341.588,873.566 339.059,873.552 337.523,873.545 336.984,873.542 337.441,873.544 338.895,873.552 341.344,873.564 344.787,873.582 349.221,873.606 354.641,873.636 361.043,873.673 368.42,873.717 376.766,873.769 386.073,873.829 396.333,873.899 407.535,873.979 419.67,874.071 432.726,874.176 446.691,874.295 461.553,874.431 477.297,874.583 493.909,874.756 511.375,874.95 529.677,875.169 548.801,875.414 568.728,875.689 589.441,875.997 610.922,876.341 633.152,876.726 656.112,877.154 679.783,877.632 704.143,878.163 729.174,878.755 754.854,879.412 781.163,880.141 808.08,880.95 835.584,881.847 863.654,882.841 892.27,883.942 921.41,885.16 951.056,886.507 981.186,887.997 1011.78,889.643 1042.82,891.461 1074.29,893.468 1106.18,895.684 1138.45,898.13 1171.11,900.828 1204.13,903.805 1237.51,907.089 1271.24,910.712 1305.3,914.709 1337.61,748.923 1360.01,751.77 1382.59,754.476 1405.31,757.043 1428.14,759.474 1451.05,761.771 1473.99,763.937 1496.95,765.978 1519.89,767.896 1542.78,769.696 1565.58,771.384 1588.27,772.963 1610.81,774.439 1633.18,775.817 1655.35,777.102 1677.29,778.298 1698.96,779.41 1720.35,780.444 1741.42,781.403 1762.15,782.292 1782.51,783.116 1802.48,783.878 1822.04,784.582 1841.16,785.233 1859.81,785.833 1877.98,786.386 1895.65,786.896 1912.78,787.364 1929.37,787.795 1945.4,788.19 1960.84,788.553 1975.68,788.884 1989.9,789.188 2003.49,789.465 2016.42,789.717 2028.69,789.946 2040.28,790.154 2051.18,790.343 2061.37,790.513 2070.85,790.665 2079.6,790.802 2087.62,790.923 2094.89,791.03 2101.41,791.124 2107.16,791.204 2112.15,791.273 2116.36,791.33 2119.8,791.376 2122.45,791.411 2124.31,791.435 2125.39,791.449 2125.67,791.453 2125.17,791.446 2123.87,791.429 2121.78,791.402 2118.9,791.364 2115.23,791.315 2110.78,791.254 2105.54,791.182 2099.53,791.097 2092.75,790.999 2085.2,790.887 2076.89,790.76 2067.82,790.617 2058.01,790.457 2047.47,790.279 2036.2,790.082 2024.21,789.864 2011.51,789.622 1998.12,789.357 1984.05,789.065 1969.3,788.744 1953.89,788.392 1937.84,788.006 1921.15,787.584 1903.85,787.123 1885.94,786.619 1867.44,786.069 1848.36,785.469 1828.73,784.814 1808.55,784.101 1787.84,783.324 1766.62,782.477 1744.91,781.556 1722.71,780.554 1700.05,779.465 1676.95,778.28 1653.41,776.992 1629.45,775.593 1605.1,774.073 1580.36,772.423 1555.24,770.632 1529.78,768.687 1503.97,766.577 1477.83,764.287 1451.38,761.803 1424.62,759.109 1397.57,756.186 1370.24,753.016 1342.64,749.577 1323.16,916.951 1307.41,914.968 1291.53,913.051 1275.57,911.201 1259.53,909.418 1243.44,907.703 1227.32,906.056 1211.2,904.476 1195.08,902.963 1178.99,901.515 1162.96,900.133 1147,898.814 1131.14,897.557 1115.39,896.361 1099.78,895.224 1084.31,894.144 1069.03,893.12 1053.93,892.15 1039.05,891.232 1024.4,890.363 1010,889.543 995.863,888.769 982.011,888.039 968.46,887.352 955.226,886.706 942.326,886.099 929.775,885.529 917.588,884.995 905.78,884.494 894.366,884.026 883.358,883.59 872.771,883.182 862.617,882.803 852.907,882.451 843.654,882.125 834.868,881.823 826.561,881.545 818.742,881.289 811.42,881.055 804.604,880.842 798.303,880.649 792.525,880.475 787.276,880.319 782.562,880.181 778.391,880.061 774.767,879.958 771.696,879.872 769.181,879.801 767.226,879.747 765.835,879.709 765.009,879.686 764.751,879.679 765.062,879.688 765.943,879.712 767.394,879.752 769.415,879.808 772.006,879.88 775.163,879.969 778.887,880.075 783.174,880.199 788.021,880.341 793.424,880.501 799.38,880.681 805.885,880.882 812.932,881.103 820.517,881.347 828.634,881.614 837.276,881.905 846.437,882.222 856.108,882.566 866.284,882.939 876.954,883.342 888.112,883.776 899.748,884.245 911.853,884.749 924.417,885.292 937.432,885.874 950.886,886.499 964.77,887.17 979.072,887.888 993.784,888.658 1008.89,889.481 1024.39,890.362 1040.26,891.304 1056.49,892.311 1073.08,893.387 1090,894.536 1107.26,895.763 1124.83,897.072 1142.71,898.468 1160.89,899.958 1179.35,901.546 1198.08,903.239 1217.07,905.044 1236.31,906.966 1255.8,909.013 1275.51,911.194 1295.44,913.516 1315.59,915.987 1334.7,748.543 1342.95,749.617 1351.26,750.677 "/>
<polyline clip-path="url(#clip352)" style="stroke:#008000; stroke-linecap:round; stroke-linejoin:round; stroke-width:8; stroke-opacity:1; fill:none" stroke-dasharray="4, 8" points="1333.88,547.049 1368.67,571.681 1403.74,597.523 1439.01,624.492 1474.44,652.482 1509.95,681.364 1545.51,710.99 1581.04,741.195 1616.51,771.8 1651.85,802.616 1687.02,833.451 1721.97,864.11 1756.64,894.407 1791,924.161 1824.99,953.208 1858.58,981.402 1891.72,1008.61 1924.37,1034.74 1956.48,1059.7 1988.03,1083.43 2018.97,1105.88 2049.27,1127.05 2078.89,1146.93 2107.8,1165.54 2135.96,1182.89 2163.34,1199.02 2189.92,1213.99 2215.66,1227.84 2240.53,1240.62 2264.51,1252.4 2287.58,1263.23 2309.7,1273.16 2330.85,1282.25 2351.02,1290.57 2370.17,1298.14 2388.29,1305.04 2405.37,1311.3 2421.37,1316.96 2436.29,1322.06 2450.11,1326.64 2462.82,1330.73 2474.4,1334.36 2484.84,1337.55 2494.13,1340.33 2502.26,1342.71 2509.22,1344.72 2515.01,1346.36 2519.62,1347.65 2523.04,1348.61 2525.28,1349.22 2526.32,1349.51 2526.17,1349.47 2524.82,1349.1 2522.29,1348.4 2518.57,1347.36 2513.66,1345.98 2507.58,1344.24 2500.31,1342.14 2491.89,1339.66 2482.3,1336.78 2471.56,1333.48 2459.69,1329.73 2446.69,1325.52 2432.57,1320.8 2417.35,1315.56 2401.05,1309.74 2383.67,1303.31 2365.24,1296.22 2345.78,1288.44 2325.29,1279.9 2303.81,1270.56 2281.34,1260.35 2257.92,1249.22 2233.56,1237.1 2208.29,1223.94 2182.12,1209.67 2155.09,1194.24 2127.21,1177.58 2098.52,1159.65 2069.03,1140.41 2038.76,1119.81 2007.76,1097.84 1976.04,1074.5 1943.62,1049.8 1910.54,1023.77 1876.82,996.459 1842.48,967.956 1807.55,938.359 1772.05,907.794 1736.01,876.407 1699.46,844.365 1662.4,811.853 1624.87,779.064 1586.88,746.201 1548.45,713.47 1509.6,681.072 1470.34,649.199 1430.67,618.034 1390.62,587.741 1350.18,558.462 1316.73,535.297 1287.9,516.126 1258.87,497.582 1229.69,479.717 1200.4,462.574 1171.05,446.183 1141.68,430.567 1112.33,415.737 1083.05,401.697 1053.87,388.442 1024.85,375.96 996.009,364.235 967.397,353.244 939.05,342.961 911.005,333.359 883.297,324.405 855.963,316.067 829.036,308.313 802.55,301.11 776.537,294.424 751.029,288.224 726.055,282.479 701.646,277.158 677.83,272.234 654.635,267.679 632.087,263.468 610.212,259.577 589.035,255.984 568.58,252.668 548.869,249.61 529.925,246.793 511.768,244.199 494.419,241.814 477.896,239.625 462.216,237.618 447.399,235.783 433.458,234.109 420.41,232.586 408.268,231.207 397.045,229.963 386.753,228.848 377.404,227.856 369.008,226.981 361.572,226.22 355.106,225.567 349.616,225.02 345.109,224.575 341.588,224.23 339.059,223.984 337.523,223.836 336.984,223.784 337.441,223.828 338.895,223.969 341.344,224.207 344.787,224.543 349.221,224.981 354.641,225.52 361.043,226.166 368.42,226.921 376.766,227.789 386.073,228.775 396.333,229.885 407.535,231.125 419.67,232.501 432.726,234.022 446.691,235.697 461.553,237.535 477.297,239.547 493.909,241.745 511.375,244.144 529.677,246.757 548.801,249.6 568.728,252.692 589.441,256.052 610.922,259.701 633.152,263.663 656.112,267.963 679.783,272.628 704.143,277.69 729.174,283.18 754.854,289.132 781.163,295.586 808.08,302.58 835.584,310.158 863.654,318.364 892.27,327.248 921.41,336.857 951.056,347.244 981.186,358.462 1011.78,370.565 1042.82,383.608 1074.29,397.643 1106.18,412.724 1138.45,428.9 1171.11,446.216 1204.13,464.715 1237.51,484.43 1271.24,505.388 1305.3,527.606 1337.61,549.639 1360.01,565.453 1382.59,581.819 1405.31,598.706 1428.14,616.081 1451.05,633.903 1473.99,652.127 1496.95,670.703 1519.89,689.578 1542.78,708.692 1565.58,727.986 1588.27,747.397 1610.81,766.859 1633.18,786.308 1655.35,805.678 1677.29,824.906 1698.96,843.93 1720.35,862.69 1741.42,881.129 1762.15,899.196 1782.51,916.843 1802.48,934.025 1822.04,950.704 1841.16,966.847 1859.81,982.425 1877.98,997.414 1895.65,1011.8 1912.78,1025.56 1929.37,1038.68 1945.4,1051.17 1960.84,1063.02 1975.68,1074.23 1989.9,1084.81 2003.49,1094.75 2016.42,1104.06 2028.69,1112.77 2040.28,1120.86 2051.18,1128.36 2061.37,1135.28 2070.85,1141.62 2079.6,1147.4 2087.62,1152.64 2094.89,1157.33 2101.41,1161.49 2107.16,1165.14 2112.15,1168.27 2116.36,1170.89 2119.8,1173.02 2122.45,1174.66 2124.31,1175.81 2125.39,1176.47 2125.67,1176.64 2125.17,1176.33 2123.87,1175.53 2121.78,1174.25 2118.9,1172.47 2115.23,1170.19 2110.78,1167.41 2105.54,1164.12 2099.53,1160.3 2092.75,1155.95 2085.2,1151.06 2076.89,1145.62 2067.82,1139.6 2058.01,1133.01 2047.47,1125.82 2036.2,1118.02 2024.21,1109.6 2011.51,1100.55 1998.12,1090.84 1984.05,1080.48 1969.3,1069.44 1953.89,1057.72 1937.84,1045.31 1921.15,1032.2 1903.85,1018.41 1885.94,1003.92 1867.44,988.74 1848.36,972.887 1828.73,956.372 1808.55,939.216 1787.84,921.444 1766.62,903.086 1744.91,884.179 1722.71,864.765 1700.05,844.891 1676.95,824.61 1653.41,803.977 1629.45,783.055 1605.1,761.908 1580.36,740.604 1555.24,719.212 1529.78,697.802 1503.97,676.444 1477.83,655.21 1451.38,634.166 1424.62,613.379 1397.57,592.909 1370.24,572.816 1342.64,553.153 1323.16,539.677 1307.41,529.016 1291.53,518.502 1275.57,508.155 1259.53,497.996 1243.44,488.04 1227.32,478.303 1211.2,468.8 1195.08,459.543 1178.99,450.542 1162.96,441.805 1147,433.341 1131.14,425.154 1115.39,417.248 1099.78,409.626 1084.31,402.289 1069.03,395.236 1053.93,388.468 1039.05,381.981 1024.4,375.773 1010,369.84 995.863,364.177 982.011,358.779 968.46,353.641 955.226,348.756 942.326,344.119 929.775,339.724 917.588,335.563 905.78,331.63 894.366,327.919 883.358,324.424 872.771,321.137 862.617,318.052 852.907,315.165 843.654,312.467 834.868,309.955 826.561,307.623 818.742,305.465 811.42,303.477 804.604,301.654 798.303,299.993 792.525,298.489 787.276,297.139 782.562,295.94 778.391,294.888 774.767,293.983 771.696,293.221 769.181,292.601 767.226,292.121 765.835,291.781 765.009,291.58 764.751,291.517 765.062,291.593 765.943,291.808 767.394,292.162 769.415,292.659 772.006,293.298 775.163,294.082 778.887,295.013 783.174,296.094 788.021,297.329 793.424,298.721 799.38,300.275 805.885,301.994 812.932,303.885 820.517,305.952 828.634,308.201 837.276,310.639 846.437,313.273 856.108,316.11 866.284,319.159 876.954,322.427 888.112,325.923 899.748,329.658 911.853,333.641 924.417,337.882 937.432,342.392 950.886,347.183 964.77,352.266 979.072,357.653 993.784,363.357 1008.89,369.391 1024.39,375.767 1040.26,382.5 1056.49,389.601 1073.08,397.084 1090,404.964 1107.26,413.251 1124.83,421.961 1142.71,431.103 1160.89,440.691 1179.35,450.736 1198.08,461.246 1217.07,472.233 1236.31,483.702 1255.8,495.662 1275.51,508.117 1295.44,521.071 1315.59,534.525 1334.7,547.622 1342.95,553.369 1351.26,559.224 "/>
<polyline clip-path="url(#clip352)" style="stroke:#008000; stroke-linecap:round; stroke-linejoin:round; stroke-width:8; stroke-opacity:1; fill:none" points="1333.88,594.448 1368.67,624.564 1403.74,655.607 1439.01,687.403 1474.44,719.766 1509.95,752.493 1545.51,785.375 1581.04,818.202 1616.51,850.765 1651.85,882.867 1687.02,914.322 1721.97,944.962 1756.64,974.639 1791,1003.23 1824.99,1030.63 1858.58,1056.76 1891.72,1081.58 1924.37,1105.03 1956.48,1127.12 1988.03,1147.84 2018.97,1167.22 2049.27,1185.28 2078.89,1202.07 2107.8,1217.64 2135.96,1232.04 2163.34,1245.33 2189.92,1257.58 2215.66,1268.84 2240.53,1279.18 2264.51,1288.67 2287.58,1297.35 2309.7,1305.28 2330.85,1312.52 2351.02,1319.12 2370.17,1325.12 2388.29,1330.56 2405.37,1335.49 2421.37,1339.94 2436.29,1343.95 2450.11,1347.54 2462.82,1350.75 2474.4,1353.58 2484.84,1356.08 2494.13,1358.25 2502.26,1360.11 2509.22,1361.67 2515.01,1362.95 2519.62,1363.96 2523.04,1364.7 2525.28,1365.18 2526.32,1365.41 2526.17,1365.37 2524.82,1365.09 2522.29,1364.54 2518.57,1363.73 2513.66,1362.66 2507.58,1361.3 2500.31,1359.66 2491.89,1357.73 2482.3,1355.48 2471.56,1352.9 2459.69,1349.97 2446.69,1346.66 2432.57,1342.97 2417.35,1338.84 2401.05,1334.26 2383.67,1329.19 2365.24,1323.6 2345.78,1317.43 2325.29,1310.65 2303.81,1303.2 2281.34,1295.04 2257.92,1286.11 2233.56,1276.34 2208.29,1265.68 2182.12,1254.05 2155.09,1241.4 2127.21,1227.65 2098.52,1212.73 2069.03,1196.57 2038.76,1179.12 2007.76,1160.31 1976.04,1140.08 1943.62,1118.39 1910.54,1095.22 1876.82,1070.54 1842.48,1044.36 1807.55,1016.68 1772.05,987.569 1736.01,957.077 1699.46,925.301 1662.4,892.358 1624.87,858.394 1586.88,823.577 1548.45,788.097 1509.6,752.165 1470.34,716.004 1430.67,679.845 1390.62,643.922 1350.18,608.467 1316.73,579.896 1287.9,555.903 1258.87,532.395 1229.69,509.471 1200.4,487.219 1171.05,465.714 1141.68,445.021 1112.33,425.188 1083.05,406.254 1053.87,388.243 1024.85,371.169 996.009,355.034 967.397,339.83 939.05,325.544 911.005,312.152 883.297,299.627 855.963,287.936 829.036,277.044 802.55,266.914 776.537,257.506 751.029,248.779 726.055,240.696 701.646,233.215 677.83,226.3 654.635,219.912 632.087,214.018 610.212,208.584 589.035,203.577 568.58,198.968 548.869,194.729 529.925,190.835 511.768,187.26 494.419,183.984 477.896,180.986 462.216,178.246 447.399,175.748 433.458,173.476 420.41,171.417 408.268,169.556 397.045,167.883 386.753,166.387 377.404,165.06 369.008,163.892 361.572,162.877 355.106,162.009 349.616,161.282 345.109,160.692 341.588,160.236 339.059,159.911 337.523,159.714 336.984,159.645 337.441,159.703 338.895,159.89 341.344,160.205 344.787,160.651 349.221,161.23 354.641,161.947 361.043,162.806 368.42,163.811 376.766,164.97 386.073,166.29 396.333,167.779 407.535,169.446 419.67,171.302 432.726,173.359 446.691,175.631 461.553,178.132 477.297,180.879 493.909,183.89 511.375,187.184 529.677,190.785 548.801,194.715 568.728,199 589.441,203.67 610.922,208.756 633.152,214.29 656.112,220.309 679.783,226.853 704.143,233.962 729.174,241.681 754.854,250.057 781.163,259.14 808.08,268.982 835.584,279.637 863.654,291.16 892.27,303.607 921.41,317.036 951.056,331.501 981.186,347.058 1011.78,363.757 1042.82,381.644 1074.29,400.76 1106.18,421.137 1138.45,442.799 1171.11,465.758 1204.13,490.011 1237.51,515.545 1271.24,542.326 1305.3,570.308 1337.61,597.639 1360.01,616.999 1382.59,636.81 1405.31,657.014 1428.14,677.552 1451.05,698.356 1473.99,719.36 1496.95,740.491 1519.89,761.679 1542.78,782.85 1565.58,803.933 1588.27,824.857 1610.81,845.555 1633.18,865.963 1655.35,886.02 1677.29,905.671 1698.96,924.864 1720.35,943.555 1741.42,961.705 1762.15,979.278 1782.51,996.247 1802.48,1012.59 1822.04,1028.29 1841.16,1043.33 1859.81,1057.7 1877.98,1071.41 1895.65,1084.45 1912.78,1096.83 1929.37,1108.54 1945.4,1119.61 1960.84,1130.04 1975.68,1139.85 1989.9,1149.04 2003.49,1157.64 2016.42,1165.66 2028.69,1173.11 2040.28,1180.02 2051.18,1186.39 2061.37,1192.24 2070.85,1197.6 2079.6,1202.46 2087.62,1206.86 2094.89,1210.79 2101.41,1214.26 2107.16,1217.3 2112.15,1219.91 2116.36,1222.1 2119.8,1223.86 2122.45,1225.22 2124.31,1226.17 2125.39,1226.72 2125.67,1226.87 2125.17,1226.61 2123.87,1225.95 2121.78,1224.88 2118.9,1223.4 2115.23,1221.51 2110.78,1219.2 2105.54,1216.45 2099.53,1213.27 2092.75,1209.63 2085.2,1205.53 2076.89,1200.96 2067.82,1195.9 2058.01,1190.33 2047.47,1184.23 2036.2,1177.6 2024.21,1170.41 2011.51,1162.63 1998.12,1154.27 1984.05,1145.28 1969.3,1135.66 1953.89,1125.38 1937.84,1114.42 1921.15,1102.77 1903.85,1090.41 1885.94,1077.32 1867.44,1063.49 1848.36,1048.92 1828.73,1033.59 1808.55,1017.49 1787.84,1000.64 1766.62,983.035 1744.91,964.686 1722.71,945.609 1700.05,925.828 1676.95,905.37 1653.41,884.27 1629.45,862.569 1605.1,840.317 1580.36,817.567 1555.24,794.38 1529.78,770.823 1503.97,746.966 1477.83,722.886 1451.38,698.661 1424.62,674.374 1397.57,650.106 1370.24,625.94 1342.64,601.959 1323.16,585.332 1307.41,572.069 1291.53,558.893 1275.57,545.835 1259.53,532.923 1243.44,520.184 1227.32,507.645 1211.2,495.329 1195.08,483.259 1178.99,471.454 1162.96,459.933 1147,448.71 1131.14,437.801 1115.39,427.216 1099.78,416.965 1084.31,407.055 1069.03,397.492 1053.93,388.28 1039.05,379.42 1024.4,370.913 1010,362.759 995.863,354.954 982.011,347.496 968.46,340.381 955.226,333.603 942.326,327.156 929.775,321.034 917.588,315.23 905.78,309.737 894.366,304.548 883.358,299.654 872.771,295.048 862.617,290.722 852.907,286.669 843.654,282.881 834.868,279.352 826.561,276.074 818.742,273.039 811.42,270.243 804.604,267.679 798.303,265.342 792.525,263.226 787.276,261.326 782.562,259.638 778.391,258.159 774.767,256.884 771.696,255.812 769.181,254.939 767.226,254.264 765.835,253.785 765.009,253.502 764.751,253.413 765.062,253.52 765.943,253.823 767.394,254.322 769.415,255.02 772.006,255.92 775.163,257.023 778.887,258.334 783.174,259.856 788.021,261.594 793.424,263.553 799.38,265.739 805.885,268.158 812.932,270.817 820.517,273.724 828.634,276.886 837.276,280.313 846.437,284.013 856.108,287.996 866.284,292.274 876.954,296.856 888.112,301.754 899.748,306.98 911.853,312.546 924.417,318.466 937.432,324.751 950.886,331.416 964.77,338.474 979.072,345.938 993.784,353.823 1008.89,362.14 1024.39,370.905 1040.26,380.128 1056.49,389.823 1073.08,400.001 1090,410.673 1107.26,421.847 1124.83,433.532 1142.71,445.734 1160.89,458.459 1179.35,471.709 1198.08,485.486 1217.07,499.787 1236.31,514.609 1255.8,529.945 1275.51,545.787 1295.44,562.122 1315.59,578.935 1334.7,595.154 1342.95,602.225 1351.26,609.398 "/>
<path clip-path="url(#clip350)" d="M1446.2 554.876 L2284.83 554.876 L2284.83 166.076 L1446.2 166.076  Z" fill="#ffffff" fill-rule="evenodd" fill-opacity="1"/>
<polyline clip-path="url(#clip350)" style="stroke:#000000; stroke-linecap:round; stroke-linejoin:round; stroke-width:4; stroke-opacity:1; fill:none" points="1446.2,554.876 2284.83,554.876 2284.83,166.076 1446.2,166.076 1446.2,554.876 "/>
<polyline clip-path="url(#clip350)" style="stroke:#009af9; stroke-linecap:round; stroke-linejoin:round; stroke-width:12; stroke-opacity:1; fill:none" points="1468.84,243.836 1604.69,243.836 "/>
<path clip-path="url(#clip350)" d="M1660.7 219.617 L1660.7 226.457 Q1656.71 224.548 1653.16 223.61 Q1649.62 222.673 1646.32 222.673 Q1640.59 222.673 1637.47 224.895 Q1634.38 227.117 1634.38 231.214 Q1634.38 234.652 1636.43 236.423 Q1638.51 238.159 1644.28 239.235 L1648.51 240.103 Q1656.36 241.596 1660.07 245.381 Q1663.82 249.131 1663.82 255.45 Q1663.82 262.985 1658.75 266.874 Q1653.72 270.763 1643.96 270.763 Q1640.28 270.763 1636.12 269.929 Q1631.98 269.096 1627.54 267.464 L1627.54 260.242 Q1631.81 262.638 1635.91 263.853 Q1640 265.068 1643.96 265.068 Q1649.97 265.068 1653.23 262.707 Q1656.5 260.346 1656.5 255.971 Q1656.5 252.152 1654.14 249.999 Q1651.81 247.846 1646.46 246.77 L1642.19 245.936 Q1634.34 244.374 1630.84 241.041 Q1627.33 237.707 1627.33 231.77 Q1627.33 224.895 1632.16 220.937 Q1637.02 216.978 1645.53 216.978 Q1649.17 216.978 1652.96 217.638 Q1656.74 218.298 1660.7 219.617 Z" fill="#000000" fill-rule="nonzero" fill-opacity="1" /><path clip-path="url(#clip350)" d="M1674.48 230.867 L1680.87 230.867 L1680.87 269.756 L1674.48 269.756 L1674.48 230.867 M1674.48 215.728 L1680.87 215.728 L1680.87 223.818 L1674.48 223.818 L1674.48 215.728 Z" fill="#000000" fill-rule="nonzero" fill-opacity="1" /><path clip-path="url(#clip350)" d="M1724.52 238.332 Q1726.91 234.027 1730.25 231.978 Q1733.58 229.93 1738.09 229.93 Q1744.17 229.93 1747.47 234.2 Q1750.77 238.436 1750.77 246.284 L1750.77 269.756 L1744.34 269.756 L1744.34 246.492 Q1744.34 240.902 1742.37 238.193 Q1740.39 235.485 1736.32 235.485 Q1731.36 235.485 1728.48 238.784 Q1725.59 242.082 1725.59 247.777 L1725.59 269.756 L1719.17 269.756 L1719.17 246.492 Q1719.17 240.867 1717.19 238.193 Q1715.21 235.485 1711.08 235.485 Q1706.18 235.485 1703.3 238.818 Q1700.42 242.117 1700.42 247.777 L1700.42 269.756 L1694 269.756 L1694 230.867 L1700.42 230.867 L1700.42 236.909 Q1702.61 233.332 1705.66 231.631 Q1708.72 229.93 1712.92 229.93 Q1717.16 229.93 1720.11 232.082 Q1723.09 234.235 1724.52 238.332 Z" fill="#000000" fill-rule="nonzero" fill-opacity="1" /><path clip-path="url(#clip350)" d="M1769.69 263.922 L1769.69 284.547 L1763.27 284.547 L1763.27 230.867 L1769.69 230.867 L1769.69 236.77 Q1771.71 233.298 1774.76 231.631 Q1777.85 229.93 1782.12 229.93 Q1789.21 229.93 1793.61 235.555 Q1798.06 241.179 1798.06 250.346 Q1798.06 259.513 1793.61 265.138 Q1789.21 270.763 1782.12 270.763 Q1777.85 270.763 1774.76 269.096 Q1771.71 267.395 1769.69 263.922 M1791.43 250.346 Q1791.43 243.298 1788.51 239.304 Q1785.63 235.277 1780.56 235.277 Q1775.49 235.277 1772.57 239.304 Q1769.69 243.298 1769.69 250.346 Q1769.69 257.395 1772.57 261.422 Q1775.49 265.415 1780.56 265.415 Q1785.63 265.415 1788.51 261.422 Q1791.43 257.395 1791.43 250.346 Z" fill="#000000" fill-rule="nonzero" fill-opacity="1" /><path clip-path="url(#clip350)" d="M1808.65 215.728 L1815.04 215.728 L1815.04 269.756 L1808.65 269.756 L1808.65 215.728 Z" fill="#000000" fill-rule="nonzero" fill-opacity="1" /><path clip-path="url(#clip350)" d="M1861.67 248.714 L1861.67 251.839 L1832.3 251.839 Q1832.71 258.436 1836.25 261.909 Q1839.83 265.346 1846.18 265.346 Q1849.86 265.346 1853.3 264.443 Q1856.77 263.54 1860.18 261.735 L1860.18 267.777 Q1856.74 269.235 1853.13 269.999 Q1849.52 270.763 1845.8 270.763 Q1836.5 270.763 1831.05 265.346 Q1825.63 259.929 1825.63 250.693 Q1825.63 241.145 1830.77 235.555 Q1835.94 229.93 1844.69 229.93 Q1852.54 229.93 1857.09 234.999 Q1861.67 240.034 1861.67 248.714 M1855.28 246.839 Q1855.21 241.596 1852.33 238.471 Q1849.48 235.346 1844.76 235.346 Q1839.41 235.346 1836.18 238.367 Q1832.99 241.388 1832.5 246.874 L1855.28 246.839 Z" fill="#000000" fill-rule="nonzero" fill-opacity="1" /><path clip-path="url(#clip350)" d="M1872.43 217.916 L1902.23 217.916 L1902.23 223.818 L1879.45 223.818 L1879.45 239.096 L1900 239.096 L1900 244.999 L1879.45 244.999 L1879.45 269.756 L1872.43 269.756 L1872.43 217.916 Z" fill="#000000" fill-rule="nonzero" fill-opacity="1" /><path clip-path="url(#clip350)" d="M1913.34 217.916 L1923.79 217.916 L1937.02 253.193 L1950.32 217.916 L1960.77 217.916 L1960.77 269.756 L1953.93 269.756 L1953.93 224.235 L1940.56 259.79 L1933.51 259.79 L1920.14 224.235 L1920.14 269.756 L1913.34 269.756 L1913.34 217.916 Z" fill="#000000" fill-rule="nonzero" fill-opacity="1" /><path clip-path="url(#clip350)" d="M1973.89 217.916 L1980.94 217.916 L1980.94 249.409 Q1980.94 257.742 1983.96 261.422 Q1986.98 265.068 1993.75 265.068 Q2000.49 265.068 2003.51 261.422 Q2006.53 257.742 2006.53 249.409 L2006.53 217.916 L2013.58 217.916 L2013.58 250.277 Q2013.58 260.415 2008.54 265.589 Q2003.54 270.763 1993.75 270.763 Q1983.93 270.763 1978.89 265.589 Q1973.89 260.415 1973.89 250.277 L1973.89 217.916 Z" fill="#000000" fill-rule="nonzero" fill-opacity="1" /><polyline clip-path="url(#clip350)" style="stroke:#e26f46; stroke-linecap:round; stroke-linejoin:round; stroke-width:12; stroke-opacity:1; fill:none" points="1468.84,321.596 1604.69,321.596 "/>
<path clip-path="url(#clip350)" d="M1650.11 314.599 Q1649.03 313.974 1647.75 313.696 Q1646.5 313.384 1644.97 313.384 Q1639.55 313.384 1636.64 316.926 Q1633.75 320.433 1633.75 327.03 L1633.75 347.516 L1627.33 347.516 L1627.33 308.627 L1633.75 308.627 L1633.75 314.669 Q1635.77 311.127 1639 309.426 Q1642.23 307.69 1646.84 307.69 Q1647.5 307.69 1648.3 307.794 Q1649.1 307.863 1650.07 308.037 L1650.11 314.599 Z" fill="#000000" fill-rule="nonzero" fill-opacity="1" /><path clip-path="url(#clip350)" d="M1688.51 326.474 L1688.51 329.599 L1659.14 329.599 Q1659.55 336.196 1663.09 339.669 Q1666.67 343.106 1673.03 343.106 Q1676.71 343.106 1680.14 342.203 Q1683.62 341.3 1687.02 339.495 L1687.02 345.537 Q1683.58 346.995 1679.97 347.759 Q1676.36 348.523 1672.64 348.523 Q1663.34 348.523 1657.89 343.106 Q1652.47 337.689 1652.47 328.453 Q1652.47 318.905 1657.61 313.315 Q1662.78 307.69 1671.53 307.69 Q1679.38 307.69 1683.93 312.759 Q1688.51 317.794 1688.51 326.474 M1682.12 324.599 Q1682.05 319.356 1679.17 316.231 Q1676.32 313.106 1671.6 313.106 Q1666.25 313.106 1663.03 316.127 Q1659.83 319.148 1659.34 324.634 L1682.12 324.599 Z" fill="#000000" fill-rule="nonzero" fill-opacity="1" /><path clip-path="url(#clip350)" d="M1718.68 293.488 L1718.68 298.801 L1712.57 298.801 Q1709.14 298.801 1707.78 300.19 Q1706.46 301.578 1706.46 305.19 L1706.46 308.627 L1716.98 308.627 L1716.98 313.592 L1706.46 313.592 L1706.46 347.516 L1700.04 347.516 L1700.04 313.592 L1693.93 313.592 L1693.93 308.627 L1700.04 308.627 L1700.04 305.919 Q1700.04 299.426 1703.06 296.474 Q1706.08 293.488 1712.64 293.488 L1718.68 293.488 Z" fill="#000000" fill-rule="nonzero" fill-opacity="1" /><path clip-path="url(#clip350)" d="M1757.3 326.474 L1757.3 329.599 L1727.92 329.599 Q1728.34 336.196 1731.88 339.669 Q1735.46 343.106 1741.81 343.106 Q1745.49 343.106 1748.93 342.203 Q1752.4 341.3 1755.8 339.495 L1755.8 345.537 Q1752.37 346.995 1748.75 347.759 Q1745.14 348.523 1741.43 348.523 Q1732.12 348.523 1726.67 343.106 Q1721.25 337.689 1721.25 328.453 Q1721.25 318.905 1726.39 313.315 Q1731.57 307.69 1740.32 307.69 Q1748.16 307.69 1752.71 312.759 Q1757.3 317.794 1757.3 326.474 M1750.91 324.599 Q1750.84 319.356 1747.96 316.231 Q1745.11 313.106 1740.39 313.106 Q1735.04 313.106 1731.81 316.127 Q1728.62 319.148 1728.13 324.634 L1750.91 324.599 Z" fill="#000000" fill-rule="nonzero" fill-opacity="1" /><path clip-path="url(#clip350)" d="M1790.32 314.599 Q1789.24 313.974 1787.96 313.696 Q1786.71 313.384 1785.18 313.384 Q1779.76 313.384 1776.84 316.926 Q1773.96 320.433 1773.96 327.03 L1773.96 347.516 L1767.54 347.516 L1767.54 308.627 L1773.96 308.627 L1773.96 314.669 Q1775.98 311.127 1779.21 309.426 Q1782.43 307.69 1787.05 307.69 Q1787.71 307.69 1788.51 307.794 Q1789.31 307.863 1790.28 308.037 L1790.32 314.599 Z" fill="#000000" fill-rule="nonzero" fill-opacity="1" /><path clip-path="url(#clip350)" d="M1828.72 326.474 L1828.72 329.599 L1799.34 329.599 Q1799.76 336.196 1803.3 339.669 Q1806.88 343.106 1813.23 343.106 Q1816.91 343.106 1820.35 342.203 Q1823.82 341.3 1827.23 339.495 L1827.23 345.537 Q1823.79 346.995 1820.18 347.759 Q1816.57 348.523 1812.85 348.523 Q1803.55 348.523 1798.09 343.106 Q1792.68 337.689 1792.68 328.453 Q1792.68 318.905 1797.82 313.315 Q1802.99 307.69 1811.74 307.69 Q1819.59 307.69 1824.14 312.759 Q1828.72 317.794 1828.72 326.474 M1822.33 324.599 Q1822.26 319.356 1819.38 316.231 Q1816.53 313.106 1811.81 313.106 Q1806.46 313.106 1803.23 316.127 Q1800.04 319.148 1799.55 324.634 L1822.33 324.599 Z" fill="#000000" fill-rule="nonzero" fill-opacity="1" /><path clip-path="url(#clip350)" d="M1871.53 324.044 L1871.53 347.516 L1865.14 347.516 L1865.14 324.252 Q1865.14 318.731 1862.99 315.988 Q1860.84 313.245 1856.53 313.245 Q1851.36 313.245 1848.37 316.544 Q1845.39 319.842 1845.39 325.537 L1845.39 347.516 L1838.96 347.516 L1838.96 308.627 L1845.39 308.627 L1845.39 314.669 Q1847.68 311.162 1850.77 309.426 Q1853.89 307.69 1857.95 307.69 Q1864.66 307.69 1868.09 311.856 Q1871.53 315.988 1871.53 324.044 Z" fill="#000000" fill-rule="nonzero" fill-opacity="1" /><path clip-path="url(#clip350)" d="M1912.26 310.12 L1912.26 316.092 Q1909.55 314.599 1906.81 313.87 Q1904.1 313.106 1901.32 313.106 Q1895.11 313.106 1891.67 317.064 Q1888.23 320.988 1888.23 328.106 Q1888.23 335.224 1891.67 339.182 Q1895.11 343.106 1901.32 343.106 Q1904.1 343.106 1906.81 342.377 Q1909.55 341.613 1912.26 340.12 L1912.26 346.023 Q1909.59 347.273 1906.7 347.898 Q1903.86 348.523 1900.63 348.523 Q1891.84 348.523 1886.67 343.002 Q1881.5 337.481 1881.5 328.106 Q1881.5 318.592 1886.7 313.141 Q1891.95 307.69 1901.04 307.69 Q1904 307.69 1906.81 308.315 Q1909.62 308.905 1912.26 310.12 Z" fill="#000000" fill-rule="nonzero" fill-opacity="1" /><path clip-path="url(#clip350)" d="M1956.63 326.474 L1956.63 329.599 L1927.26 329.599 Q1927.68 336.196 1931.22 339.669 Q1934.79 343.106 1941.15 343.106 Q1944.83 343.106 1948.27 342.203 Q1951.74 341.3 1955.14 339.495 L1955.14 345.537 Q1951.7 346.995 1948.09 347.759 Q1944.48 348.523 1940.77 348.523 Q1931.46 348.523 1926.01 343.106 Q1920.59 337.689 1920.59 328.453 Q1920.59 318.905 1925.73 313.315 Q1930.91 307.69 1939.66 307.69 Q1947.5 307.69 1952.05 312.759 Q1956.63 317.794 1956.63 326.474 M1950.25 324.599 Q1950.18 319.356 1947.29 316.231 Q1944.45 313.106 1939.73 313.106 Q1934.38 313.106 1931.15 316.127 Q1927.95 319.148 1927.47 324.634 L1950.25 324.599 Z" fill="#000000" fill-rule="nonzero" fill-opacity="1" /><polyline clip-path="url(#clip350)" style="stroke:#008000; stroke-linecap:round; stroke-linejoin:round; stroke-width:12; stroke-opacity:1; fill:none" stroke-dasharray="6, 12" points="1468.84,399.356 1604.69,399.356 "/>
<path clip-path="url(#clip350)" d="M1627.33 373.436 L1636.78 373.436 L1659.76 416.804 L1659.76 373.436 L1666.57 373.436 L1666.57 425.276 L1657.12 425.276 L1634.14 381.908 L1634.14 425.276 L1627.33 425.276 L1627.33 373.436 Z" fill="#000000" fill-rule="nonzero" fill-opacity="1" /><path clip-path="url(#clip350)" d="M1713.51 404.234 L1713.51 407.359 L1684.14 407.359 Q1684.55 413.956 1688.09 417.429 Q1691.67 420.866 1698.03 420.866 Q1701.71 420.866 1705.14 419.963 Q1708.62 419.06 1712.02 417.255 L1712.02 423.297 Q1708.58 424.755 1704.97 425.519 Q1701.36 426.283 1697.64 426.283 Q1688.34 426.283 1682.89 420.866 Q1677.47 415.449 1677.47 406.213 Q1677.47 396.665 1682.61 391.075 Q1687.78 385.45 1696.53 385.45 Q1704.38 385.45 1708.93 390.519 Q1713.51 395.554 1713.51 404.234 M1707.12 402.359 Q1707.05 397.116 1704.17 393.991 Q1701.32 390.866 1696.6 390.866 Q1691.25 390.866 1688.03 393.887 Q1684.83 396.908 1684.34 402.394 L1707.12 402.359 Z" fill="#000000" fill-rule="nonzero" fill-opacity="1" /><path clip-path="url(#clip350)" d="M1723.34 409.929 L1723.34 386.387 L1729.73 386.387 L1729.73 409.686 Q1729.73 415.206 1731.88 417.984 Q1734.03 420.727 1738.34 420.727 Q1743.51 420.727 1746.5 417.429 Q1749.52 414.13 1749.52 408.436 L1749.52 386.387 L1755.91 386.387 L1755.91 425.276 L1749.52 425.276 L1749.52 419.304 Q1747.19 422.845 1744.1 424.581 Q1741.05 426.283 1736.98 426.283 Q1730.28 426.283 1726.81 422.116 Q1723.34 417.949 1723.34 409.929 M1739.41 385.45 L1739.41 385.45 Z" fill="#000000" fill-rule="nonzero" fill-opacity="1" /><path clip-path="url(#clip350)" d="M1791.6 392.359 Q1790.52 391.734 1789.24 391.456 Q1787.99 391.144 1786.46 391.144 Q1781.05 391.144 1778.13 394.686 Q1775.25 398.193 1775.25 404.79 L1775.25 425.276 L1768.82 425.276 L1768.82 386.387 L1775.25 386.387 L1775.25 392.429 Q1777.26 388.887 1780.49 387.186 Q1783.72 385.45 1788.34 385.45 Q1789 385.45 1789.8 385.554 Q1790.59 385.623 1791.57 385.797 L1791.6 392.359 Z" fill="#000000" fill-rule="nonzero" fill-opacity="1" /><path clip-path="url(#clip350)" d="M1815.98 405.727 Q1808.23 405.727 1805.25 407.498 Q1802.26 409.269 1802.26 413.54 Q1802.26 416.942 1804.48 418.956 Q1806.74 420.935 1810.59 420.935 Q1815.91 420.935 1819.1 417.185 Q1822.33 413.401 1822.33 407.151 L1822.33 405.727 L1815.98 405.727 M1828.72 403.088 L1828.72 425.276 L1822.33 425.276 L1822.33 419.373 Q1820.14 422.915 1816.88 424.616 Q1813.61 426.283 1808.89 426.283 Q1802.92 426.283 1799.38 422.949 Q1795.87 419.581 1795.87 413.956 Q1795.87 407.394 1800.25 404.061 Q1804.66 400.727 1813.37 400.727 L1822.33 400.727 L1822.33 400.102 Q1822.33 395.693 1819.41 393.297 Q1816.53 390.866 1811.29 390.866 Q1807.96 390.866 1804.8 391.665 Q1801.64 392.463 1798.72 394.061 L1798.72 388.158 Q1802.23 386.804 1805.52 386.144 Q1808.82 385.45 1811.95 385.45 Q1820.39 385.45 1824.55 389.825 Q1828.72 394.199 1828.72 403.088 Z" fill="#000000" fill-rule="nonzero" fill-opacity="1" /><path clip-path="url(#clip350)" d="M1841.88 371.248 L1848.27 371.248 L1848.27 425.276 L1841.88 425.276 L1841.88 371.248 Z" fill="#000000" fill-rule="nonzero" fill-opacity="1" /><path clip-path="url(#clip350)" d="M1861.91 373.436 L1891.7 373.436 L1891.7 379.338 L1868.93 379.338 L1868.93 394.616 L1889.48 394.616 L1889.48 400.519 L1868.93 400.519 L1868.93 425.276 L1861.91 425.276 L1861.91 373.436 Z" fill="#000000" fill-rule="nonzero" fill-opacity="1" /><path clip-path="url(#clip350)" d="M1902.82 373.436 L1913.27 373.436 L1926.5 408.713 L1939.79 373.436 L1950.25 373.436 L1950.25 425.276 L1943.41 425.276 L1943.41 379.755 L1930.04 415.31 L1922.99 415.31 L1909.62 379.755 L1909.62 425.276 L1902.82 425.276 L1902.82 373.436 Z" fill="#000000" fill-rule="nonzero" fill-opacity="1" /><path clip-path="url(#clip350)" d="M1963.37 373.436 L1970.42 373.436 L1970.42 404.929 Q1970.42 413.262 1973.44 416.942 Q1976.46 420.588 1983.23 420.588 Q1989.97 420.588 1992.99 416.942 Q1996.01 413.262 1996.01 404.929 L1996.01 373.436 L2003.06 373.436 L2003.06 405.797 Q2003.06 415.935 1998.02 421.109 Q1993.02 426.283 1983.23 426.283 Q1973.41 426.283 1968.37 421.109 Q1963.37 415.935 1963.37 405.797 L1963.37 373.436 Z" fill="#000000" fill-rule="nonzero" fill-opacity="1" /><path clip-path="url(#clip350)" d="M2053.89 371.318 Q2049.24 379.304 2046.98 387.116 Q2044.72 394.929 2044.72 402.949 Q2044.72 410.97 2046.98 418.852 Q2049.27 426.699 2053.89 434.651 L2048.34 434.651 Q2043.13 426.491 2040.52 418.609 Q2037.95 410.727 2037.95 402.949 Q2037.95 395.206 2040.52 387.359 Q2043.09 379.512 2048.34 371.318 L2053.89 371.318 Z" fill="#000000" fill-rule="nonzero" fill-opacity="1" /><path clip-path="url(#clip350)" d="M2073.23 419.373 L2097.71 419.373 L2097.71 425.276 L2064.79 425.276 L2064.79 419.373 Q2068.79 415.241 2075.66 408.297 Q2082.57 401.318 2084.34 399.304 Q2087.71 395.519 2089.03 392.915 Q2090.38 390.276 2090.38 387.741 Q2090.38 383.609 2087.47 381.005 Q2084.59 378.401 2079.93 378.401 Q2076.63 378.401 2072.95 379.547 Q2069.31 380.693 2065.14 383.019 L2065.14 375.936 Q2069.38 374.234 2073.06 373.366 Q2076.74 372.498 2079.79 372.498 Q2087.85 372.498 2092.64 376.526 Q2097.43 380.554 2097.43 387.29 Q2097.43 390.484 2096.22 393.366 Q2095.04 396.213 2091.88 400.102 Q2091.01 401.109 2086.36 405.936 Q2081.7 410.727 2073.23 419.373 Z" fill="#000000" fill-rule="nonzero" fill-opacity="1" /><path clip-path="url(#clip350)" d="M2112.5 373.436 L2140.04 373.436 L2140.04 379.338 L2118.93 379.338 L2118.93 392.047 Q2120.45 391.526 2121.98 391.283 Q2123.51 391.005 2125.04 391.005 Q2133.72 391.005 2138.79 395.762 Q2143.86 400.519 2143.86 408.644 Q2143.86 417.012 2138.65 421.665 Q2133.44 426.283 2123.96 426.283 Q2120.7 426.283 2117.29 425.727 Q2113.93 425.172 2110.31 424.06 L2110.31 417.012 Q2113.44 418.713 2116.77 419.547 Q2120.11 420.38 2123.82 420.38 Q2129.83 420.38 2133.34 417.22 Q2136.84 414.06 2136.84 408.644 Q2136.84 403.227 2133.34 400.068 Q2129.83 396.908 2123.82 396.908 Q2121.01 396.908 2118.2 397.533 Q2115.42 398.158 2112.5 399.477 L2112.5 373.436 Z" fill="#000000" fill-rule="nonzero" fill-opacity="1" /><path clip-path="url(#clip350)" d="M2172.68 378.054 Q2167.26 378.054 2164.52 383.401 Q2161.81 388.713 2161.81 399.408 Q2161.81 410.067 2164.52 415.415 Q2167.26 420.727 2172.68 420.727 Q2178.13 420.727 2180.84 415.415 Q2183.58 410.067 2183.58 399.408 Q2183.58 388.713 2180.84 383.401 Q2178.13 378.054 2172.68 378.054 M2172.68 372.498 Q2181.39 372.498 2185.97 379.408 Q2190.59 386.283 2190.59 399.408 Q2190.59 412.498 2185.97 419.408 Q2181.39 426.283 2172.68 426.283 Q2163.96 426.283 2159.34 419.408 Q2154.76 412.498 2154.76 399.408 Q2154.76 386.283 2159.34 379.408 Q2163.96 372.498 2172.68 372.498 Z" fill="#000000" fill-rule="nonzero" fill-opacity="1" /><path clip-path="url(#clip350)" d="M2217.92 378.054 Q2212.5 378.054 2209.76 383.401 Q2207.05 388.713 2207.05 399.408 Q2207.05 410.067 2209.76 415.415 Q2212.5 420.727 2217.92 420.727 Q2223.37 420.727 2226.08 415.415 Q2228.82 410.067 2228.82 399.408 Q2228.82 388.713 2226.08 383.401 Q2223.37 378.054 2217.92 378.054 M2217.92 372.498 Q2226.63 372.498 2231.22 379.408 Q2235.83 386.283 2235.83 399.408 Q2235.83 412.498 2231.22 419.408 Q2226.63 426.283 2217.92 426.283 Q2209.2 426.283 2204.58 419.408 Q2200 412.498 2200 399.408 Q2200 386.283 2204.58 379.408 Q2209.2 372.498 2217.92 372.498 Z" fill="#000000" fill-rule="nonzero" fill-opacity="1" /><path clip-path="url(#clip350)" d="M2246.25 371.318 L2251.81 371.318 Q2257.02 379.512 2259.58 387.359 Q2262.19 395.206 2262.19 402.949 Q2262.19 410.727 2259.58 418.609 Q2257.02 426.491 2251.81 434.651 L2246.25 434.651 Q2250.87 426.699 2253.13 418.852 Q2255.42 410.97 2255.42 402.949 Q2255.42 394.929 2253.13 387.116 Q2250.87 379.304 2246.25 371.318 Z" fill="#000000" fill-rule="nonzero" fill-opacity="1" /><polyline clip-path="url(#clip350)" style="stroke:#008000; stroke-linecap:round; stroke-linejoin:round; stroke-width:12; stroke-opacity:1; fill:none" points="1468.84,477.116 1604.69,477.116 "/>
<path clip-path="url(#clip350)" d="M1627.33 451.196 L1636.78 451.196 L1659.76 494.564 L1659.76 451.196 L1666.57 451.196 L1666.57 503.036 L1657.12 503.036 L1634.14 459.668 L1634.14 503.036 L1627.33 503.036 L1627.33 451.196 Z" fill="#000000" fill-rule="nonzero" fill-opacity="1" /><path clip-path="url(#clip350)" d="M1713.51 481.994 L1713.51 485.119 L1684.14 485.119 Q1684.55 491.716 1688.09 495.189 Q1691.67 498.626 1698.03 498.626 Q1701.71 498.626 1705.14 497.723 Q1708.62 496.82 1712.02 495.015 L1712.02 501.057 Q1708.58 502.515 1704.97 503.279 Q1701.36 504.043 1697.64 504.043 Q1688.34 504.043 1682.89 498.626 Q1677.47 493.209 1677.47 483.973 Q1677.47 474.425 1682.61 468.835 Q1687.78 463.21 1696.53 463.21 Q1704.38 463.21 1708.93 468.279 Q1713.51 473.314 1713.51 481.994 M1707.12 480.119 Q1707.05 474.876 1704.17 471.751 Q1701.32 468.626 1696.6 468.626 Q1691.25 468.626 1688.03 471.647 Q1684.83 474.668 1684.34 480.154 L1707.12 480.119 Z" fill="#000000" fill-rule="nonzero" fill-opacity="1" /><path clip-path="url(#clip350)" d="M1723.34 487.689 L1723.34 464.147 L1729.73 464.147 L1729.73 487.446 Q1729.73 492.966 1731.88 495.744 Q1734.03 498.487 1738.34 498.487 Q1743.51 498.487 1746.5 495.189 Q1749.52 491.89 1749.52 486.196 L1749.52 464.147 L1755.91 464.147 L1755.91 503.036 L1749.52 503.036 L1749.52 497.064 Q1747.19 500.605 1744.1 502.341 Q1741.05 504.043 1736.98 504.043 Q1730.28 504.043 1726.81 499.876 Q1723.34 495.709 1723.34 487.689 M1739.41 463.21 L1739.41 463.21 Z" fill="#000000" fill-rule="nonzero" fill-opacity="1" /><path clip-path="url(#clip350)" d="M1791.6 470.119 Q1790.52 469.494 1789.24 469.216 Q1787.99 468.904 1786.46 468.904 Q1781.05 468.904 1778.13 472.446 Q1775.25 475.953 1775.25 482.55 L1775.25 503.036 L1768.82 503.036 L1768.82 464.147 L1775.25 464.147 L1775.25 470.189 Q1777.26 466.647 1780.49 464.946 Q1783.72 463.21 1788.34 463.21 Q1789 463.21 1789.8 463.314 Q1790.59 463.383 1791.57 463.557 L1791.6 470.119 Z" fill="#000000" fill-rule="nonzero" fill-opacity="1" /><path clip-path="url(#clip350)" d="M1815.98 483.487 Q1808.23 483.487 1805.25 485.258 Q1802.26 487.029 1802.26 491.3 Q1802.26 494.702 1804.48 496.716 Q1806.74 498.695 1810.59 498.695 Q1815.91 498.695 1819.1 494.945 Q1822.33 491.161 1822.33 484.911 L1822.33 483.487 L1815.98 483.487 M1828.72 480.848 L1828.72 503.036 L1822.33 503.036 L1822.33 497.133 Q1820.14 500.675 1816.88 502.376 Q1813.61 504.043 1808.89 504.043 Q1802.92 504.043 1799.38 500.709 Q1795.87 497.341 1795.87 491.716 Q1795.87 485.154 1800.25 481.821 Q1804.66 478.487 1813.37 478.487 L1822.33 478.487 L1822.33 477.862 Q1822.33 473.453 1819.41 471.057 Q1816.53 468.626 1811.29 468.626 Q1807.96 468.626 1804.8 469.425 Q1801.64 470.223 1798.72 471.821 L1798.72 465.918 Q1802.23 464.564 1805.52 463.904 Q1808.82 463.21 1811.95 463.21 Q1820.39 463.21 1824.55 467.585 Q1828.72 471.959 1828.72 480.848 Z" fill="#000000" fill-rule="nonzero" fill-opacity="1" /><path clip-path="url(#clip350)" d="M1841.88 449.008 L1848.27 449.008 L1848.27 503.036 L1841.88 503.036 L1841.88 449.008 Z" fill="#000000" fill-rule="nonzero" fill-opacity="1" /><path clip-path="url(#clip350)" d="M1861.91 451.196 L1891.7 451.196 L1891.7 457.098 L1868.93 457.098 L1868.93 472.376 L1889.48 472.376 L1889.48 478.279 L1868.93 478.279 L1868.93 503.036 L1861.91 503.036 L1861.91 451.196 Z" fill="#000000" fill-rule="nonzero" fill-opacity="1" /><path clip-path="url(#clip350)" d="M1902.82 451.196 L1913.27 451.196 L1926.5 486.473 L1939.79 451.196 L1950.25 451.196 L1950.25 503.036 L1943.41 503.036 L1943.41 457.515 L1930.04 493.07 L1922.99 493.07 L1909.62 457.515 L1909.62 503.036 L1902.82 503.036 L1902.82 451.196 Z" fill="#000000" fill-rule="nonzero" fill-opacity="1" /><path clip-path="url(#clip350)" d="M1963.37 451.196 L1970.42 451.196 L1970.42 482.689 Q1970.42 491.022 1973.44 494.702 Q1976.46 498.348 1983.23 498.348 Q1989.97 498.348 1992.99 494.702 Q1996.01 491.022 1996.01 482.689 L1996.01 451.196 L2003.06 451.196 L2003.06 483.557 Q2003.06 493.695 1998.02 498.869 Q1993.02 504.043 1983.23 504.043 Q1973.41 504.043 1968.37 498.869 Q1963.37 493.695 1963.37 483.557 L1963.37 451.196 Z" fill="#000000" fill-rule="nonzero" fill-opacity="1" /><path clip-path="url(#clip350)" d="M2053.89 449.078 Q2049.24 457.064 2046.98 464.876 Q2044.72 472.689 2044.72 480.709 Q2044.72 488.73 2046.98 496.612 Q2049.27 504.459 2053.89 512.411 L2048.34 512.411 Q2043.13 504.251 2040.52 496.369 Q2037.95 488.487 2037.95 480.709 Q2037.95 472.966 2040.52 465.119 Q2043.09 457.272 2048.34 449.078 L2053.89 449.078 Z" fill="#000000" fill-rule="nonzero" fill-opacity="1" /><path clip-path="url(#clip350)" d="M2067.26 451.196 L2094.79 451.196 L2094.79 457.098 L2073.68 457.098 L2073.68 469.807 Q2075.21 469.286 2076.74 469.043 Q2078.27 468.765 2079.79 468.765 Q2088.47 468.765 2093.54 473.522 Q2098.61 478.279 2098.61 486.404 Q2098.61 494.772 2093.4 499.425 Q2088.2 504.043 2078.72 504.043 Q2075.45 504.043 2072.05 503.487 Q2068.68 502.932 2065.07 501.82 L2065.07 494.772 Q2068.2 496.473 2071.53 497.307 Q2074.86 498.14 2078.58 498.14 Q2084.59 498.14 2088.09 494.98 Q2091.6 491.82 2091.6 486.404 Q2091.6 480.987 2088.09 477.828 Q2084.59 474.668 2078.58 474.668 Q2075.77 474.668 2072.95 475.293 Q2070.18 475.918 2067.26 477.237 L2067.26 451.196 Z" fill="#000000" fill-rule="nonzero" fill-opacity="1" /><path clip-path="url(#clip350)" d="M2127.43 455.814 Q2122.02 455.814 2119.27 461.161 Q2116.56 466.473 2116.56 477.168 Q2116.56 487.827 2119.27 493.175 Q2122.02 498.487 2127.43 498.487 Q2132.88 498.487 2135.59 493.175 Q2138.34 487.827 2138.34 477.168 Q2138.34 466.473 2135.59 461.161 Q2132.88 455.814 2127.43 455.814 M2127.43 450.258 Q2136.15 450.258 2140.73 457.168 Q2145.35 464.043 2145.35 477.168 Q2145.35 490.258 2140.73 497.168 Q2136.15 504.043 2127.43 504.043 Q2118.72 504.043 2114.1 497.168 Q2109.52 490.258 2109.52 477.168 Q2109.52 464.043 2114.1 457.168 Q2118.72 450.258 2127.43 450.258 Z" fill="#000000" fill-rule="nonzero" fill-opacity="1" /><path clip-path="url(#clip350)" d="M2172.68 455.814 Q2167.26 455.814 2164.52 461.161 Q2161.81 466.473 2161.81 477.168 Q2161.81 487.827 2164.52 493.175 Q2167.26 498.487 2172.68 498.487 Q2178.13 498.487 2180.84 493.175 Q2183.58 487.827 2183.58 477.168 Q2183.58 466.473 2180.84 461.161 Q2178.13 455.814 2172.68 455.814 M2172.68 450.258 Q2181.39 450.258 2185.97 457.168 Q2190.59 464.043 2190.59 477.168 Q2190.59 490.258 2185.97 497.168 Q2181.39 504.043 2172.68 504.043 Q2163.96 504.043 2159.34 497.168 Q2154.76 490.258 2154.76 477.168 Q2154.76 464.043 2159.34 457.168 Q2163.96 450.258 2172.68 450.258 Z" fill="#000000" fill-rule="nonzero" fill-opacity="1" /><path clip-path="url(#clip350)" d="M2217.92 455.814 Q2212.5 455.814 2209.76 461.161 Q2207.05 466.473 2207.05 477.168 Q2207.05 487.827 2209.76 493.175 Q2212.5 498.487 2217.92 498.487 Q2223.37 498.487 2226.08 493.175 Q2228.82 487.827 2228.82 477.168 Q2228.82 466.473 2226.08 461.161 Q2223.37 455.814 2217.92 455.814 M2217.92 450.258 Q2226.63 450.258 2231.22 457.168 Q2235.83 464.043 2235.83 477.168 Q2235.83 490.258 2231.22 497.168 Q2226.63 504.043 2217.92 504.043 Q2209.2 504.043 2204.58 497.168 Q2200 490.258 2200 477.168 Q2200 464.043 2204.58 457.168 Q2209.2 450.258 2217.92 450.258 Z" fill="#000000" fill-rule="nonzero" fill-opacity="1" /><path clip-path="url(#clip350)" d="M2246.25 449.078 L2251.81 449.078 Q2257.02 457.272 2259.58 465.119 Q2262.19 472.966 2262.19 480.709 Q2262.19 488.487 2259.58 496.369 Q2257.02 504.251 2251.81 512.411 L2246.25 512.411 Q2250.87 504.459 2253.13 496.612 Q2255.42 488.73 2255.42 480.709 Q2255.42 472.689 2253.13 464.876 Q2250.87 457.064 2246.25 449.078 Z" fill="#000000" fill-rule="nonzero" fill-opacity="1" /></svg>
