<?xml version="1.0" encoding="utf-8"?>
<svg xmlns="http://www.w3.org/2000/svg" xmlns:xlink="http://www.w3.org/1999/xlink" width="600" height="400" viewBox="0 0 2400 1600">
<defs>
  <clipPath id="clip540">
    <rect x="0" y="0" width="2400" height="1600"/>
  </clipPath>
</defs>
<path clip-path="url(#clip540)" d="M0 1600 L2400 1600 L2400 0 L0 0  Z" fill="#ffffff" fill-rule="evenodd" fill-opacity="1"/>
<defs>
  <clipPath id="clip541">
    <rect x="480" y="0" width="1681" height="1600"/>
  </clipPath>
</defs>
<path clip-path="url(#clip540)" d="M303.503 1401.58 L2352.76 1401.58 L2352.76 123.472 L303.503 123.472  Z" fill="#ffffff" fill-rule="evenodd" fill-opacity="1"/>
<defs>
  <clipPath id="clip542">
    <rect x="303" y="123" width="2050" height="1279"/>
  </clipPath>
</defs>
<polyline clip-path="url(#clip542)" style="stroke:#000000; stroke-linecap:round; stroke-linejoin:round; stroke-width:2; stroke-opacity:0.1; fill:none" points="361.501,1401.58 361.501,123.472 "/>
<polyline clip-path="url(#clip542)" style="stroke:#000000; stroke-linecap:round; stroke-linejoin:round; stroke-width:2; stroke-opacity:0.1; fill:none" points="844.815,1401.58 844.815,123.472 "/>
<polyline clip-path="url(#clip542)" style="stroke:#000000; stroke-linecap:round; stroke-linejoin:round; stroke-width:2; stroke-opacity:0.1; fill:none" points="1328.13,1401.58 1328.13,123.472 "/>
<polyline clip-path="url(#clip542)" style="stroke:#000000; stroke-linecap:round; stroke-linejoin:round; stroke-width:2; stroke-opacity:0.1; fill:none" points="1811.44,1401.58 1811.44,123.472 "/>
<polyline clip-path="url(#clip542)" style="stroke:#000000; stroke-linecap:round; stroke-linejoin:round; stroke-width:2; stroke-opacity:0.1; fill:none" points="2294.76,1401.58 2294.76,123.472 "/>
<polyline clip-path="url(#clip542)" style="stroke:#000000; stroke-linecap:round; stroke-linejoin:round; stroke-width:2; stroke-opacity:0.1; fill:none" points="303.503,1390.41 2352.76,1390.41 "/>
<polyline clip-path="url(#clip542)" style="stroke:#000000; stroke-linecap:round; stroke-linejoin:round; stroke-width:2; stroke-opacity:0.1; fill:none" points="303.503,1106.76 2352.76,1106.76 "/>
<polyline clip-path="url(#clip542)" style="stroke:#000000; stroke-linecap:round; stroke-linejoin:round; stroke-width:2; stroke-opacity:0.1; fill:none" points="303.503,823.113 2352.76,823.113 "/>
<polyline clip-path="url(#clip542)" style="stroke:#000000; stroke-linecap:round; stroke-linejoin:round; stroke-width:2; stroke-opacity:0.1; fill:none" points="303.503,539.465 2352.76,539.465 "/>
<polyline clip-path="url(#clip542)" style="stroke:#000000; stroke-linecap:round; stroke-linejoin:round; stroke-width:2; stroke-opacity:0.1; fill:none" points="303.503,255.817 2352.76,255.817 "/>
<polyline clip-path="url(#clip540)" style="stroke:#000000; stroke-linecap:round; stroke-linejoin:round; stroke-width:4; stroke-opacity:1; fill:none" points="303.503,1401.58 2352.76,1401.58 "/>
<polyline clip-path="url(#clip540)" style="stroke:#000000; stroke-linecap:round; stroke-linejoin:round; stroke-width:4; stroke-opacity:1; fill:none" points="361.501,1401.58 361.501,1382.68 "/>
<polyline clip-path="url(#clip540)" style="stroke:#000000; stroke-linecap:round; stroke-linejoin:round; stroke-width:4; stroke-opacity:1; fill:none" points="844.815,1401.58 844.815,1382.68 "/>
<polyline clip-path="url(#clip540)" style="stroke:#000000; stroke-linecap:round; stroke-linejoin:round; stroke-width:4; stroke-opacity:1; fill:none" points="1328.13,1401.58 1328.13,1382.68 "/>
<polyline clip-path="url(#clip540)" style="stroke:#000000; stroke-linecap:round; stroke-linejoin:round; stroke-width:4; stroke-opacity:1; fill:none" points="1811.44,1401.58 1811.44,1382.68 "/>
<polyline clip-path="url(#clip540)" style="stroke:#000000; stroke-linecap:round; stroke-linejoin:round; stroke-width:4; stroke-opacity:1; fill:none" points="2294.76,1401.58 2294.76,1382.68 "/>
<path clip-path="url(#clip540)" d="M361.501 1438.36 Q356.084 1438.36 353.341 1443.71 Q350.633 1449.02 350.633 1459.71 Q350.633 1470.37 353.341 1475.72 Q356.084 1481.03 361.501 1481.03 Q366.952 1481.03 369.66 1475.72 Q372.403 1470.37 372.403 1459.71 Q372.403 1449.02 369.66 1443.71 Q366.952 1438.36 361.501 1438.36 M361.501 1432.8 Q370.216 1432.8 374.799 1439.71 Q379.417 1446.59 379.417 1459.71 Q379.417 1472.8 374.799 1479.71 Q370.216 1486.59 361.501 1486.59 Q352.785 1486.59 348.167 1479.71 Q343.584 1472.8 343.584 1459.71 Q343.584 1446.59 348.167 1439.71 Q352.785 1432.8 361.501 1432.8 Z" fill="#000000" fill-rule="nonzero" fill-opacity="1" /><path clip-path="url(#clip540)" d="M830.388 1479.68 L841.846 1479.68 L841.846 1440.13 L829.381 1442.63 L829.381 1436.24 L841.777 1433.74 L848.791 1433.74 L848.791 1479.68 L860.249 1479.68 L860.249 1485.58 L830.388 1485.58 L830.388 1479.68 Z" fill="#000000" fill-rule="nonzero" fill-opacity="1" /><path clip-path="url(#clip540)" d="M1320.11 1479.68 L1344.59 1479.68 L1344.59 1485.58 L1311.67 1485.58 L1311.67 1479.68 Q1315.66 1475.55 1322.54 1468.6 Q1329.45 1461.62 1331.22 1459.61 Q1334.59 1455.82 1335.91 1453.22 Q1337.26 1450.58 1337.26 1448.05 Q1337.26 1443.91 1334.34 1441.31 Q1331.46 1438.71 1326.81 1438.71 Q1323.51 1438.71 1319.83 1439.85 Q1316.19 1441 1312.02 1443.32 L1312.02 1436.24 Q1316.25 1434.54 1319.94 1433.67 Q1323.62 1432.8 1326.67 1432.8 Q1334.73 1432.8 1339.52 1436.83 Q1344.31 1440.86 1344.31 1447.59 Q1344.31 1450.79 1343.09 1453.67 Q1341.91 1456.52 1338.75 1460.41 Q1337.89 1461.41 1333.23 1466.24 Q1328.58 1471.03 1320.11 1479.68 Z" fill="#000000" fill-rule="nonzero" fill-opacity="1" /><path clip-path="url(#clip540)" d="M1817.82 1457.63 Q1822.85 1458.7 1825.66 1462.11 Q1828.51 1465.51 1828.51 1470.51 Q1828.51 1478.18 1823.23 1482.39 Q1817.95 1486.59 1808.23 1486.59 Q1804.97 1486.59 1801.5 1485.93 Q1798.06 1485.3 1794.38 1484.02 L1794.38 1477.25 Q1797.29 1478.95 1800.77 1479.82 Q1804.24 1480.68 1808.02 1480.68 Q1814.62 1480.68 1818.06 1478.08 Q1821.53 1475.48 1821.53 1470.51 Q1821.53 1465.93 1818.3 1463.36 Q1815.11 1460.75 1809.38 1460.75 L1803.34 1460.75 L1803.34 1454.99 L1809.66 1454.99 Q1814.83 1454.99 1817.57 1452.94 Q1820.32 1450.86 1820.32 1446.97 Q1820.32 1442.98 1817.47 1440.86 Q1814.66 1438.71 1809.38 1438.71 Q1806.5 1438.71 1803.2 1439.33 Q1799.9 1439.96 1795.94 1441.27 L1795.94 1435.02 Q1799.93 1433.91 1803.41 1433.36 Q1806.91 1432.8 1810 1432.8 Q1817.99 1432.8 1822.64 1436.45 Q1827.29 1440.06 1827.29 1446.24 Q1827.29 1450.55 1824.83 1453.53 Q1822.36 1456.48 1817.82 1457.63 Z" fill="#000000" fill-rule="nonzero" fill-opacity="1" /><path clip-path="url(#clip540)" d="M2299.27 1439.85 L2281.56 1467.52 L2299.27 1467.52 L2299.27 1439.85 M2297.43 1433.74 L2306.25 1433.74 L2306.25 1467.52 L2313.65 1467.52 L2313.65 1473.36 L2306.25 1473.36 L2306.25 1485.58 L2299.27 1485.58 L2299.27 1473.36 L2275.87 1473.36 L2275.87 1466.59 L2297.43 1433.74 Z" fill="#000000" fill-rule="nonzero" fill-opacity="1" /><path clip-path="url(#clip540)" d="M1271.74 1527.62 L1271.74 1538.66 L1284.9 1538.66 L1284.9 1543.62 L1271.74 1543.62 L1271.74 1564.74 Q1271.74 1569.49 1273.03 1570.85 Q1274.35 1572.2 1278.34 1572.2 L1284.9 1572.2 L1284.9 1577.55 L1278.34 1577.55 Q1270.94 1577.55 1268.13 1574.8 Q1265.32 1572.03 1265.32 1564.74 L1265.32 1543.62 L1260.63 1543.62 L1260.63 1538.66 L1265.32 1538.66 L1265.32 1527.62 L1271.74 1527.62 Z" fill="#000000" fill-rule="nonzero" fill-opacity="1" /><path clip-path="url(#clip540)" d="M1315.32 1523.52 L1330.04 1523.52 L1330.04 1528.49 L1321.71 1528.49 L1321.71 1581.96 L1330.04 1581.96 L1330.04 1586.92 L1315.32 1586.92 L1315.32 1523.52 Z" fill="#000000" fill-rule="nonzero" fill-opacity="1" /><path clip-path="url(#clip540)" d="M1368.44 1539.8 L1368.44 1545.85 Q1365.73 1544.46 1362.82 1543.76 Q1359.9 1543.07 1356.78 1543.07 Q1352.02 1543.07 1349.62 1544.53 Q1347.26 1545.99 1347.26 1548.9 Q1347.26 1551.12 1348.96 1552.41 Q1350.66 1553.66 1355.8 1554.8 L1357.99 1555.29 Q1364.8 1556.75 1367.64 1559.42 Q1370.53 1562.06 1370.53 1566.82 Q1370.53 1572.24 1366.22 1575.4 Q1361.95 1578.55 1354.45 1578.55 Q1351.32 1578.55 1347.92 1577.93 Q1344.55 1577.34 1340.8 1576.12 L1340.8 1569.53 Q1344.34 1571.37 1347.78 1572.3 Q1351.22 1573.21 1354.59 1573.21 Q1359.1 1573.21 1361.53 1571.68 Q1363.96 1570.12 1363.96 1567.3 Q1363.96 1564.7 1362.19 1563.31 Q1360.46 1561.92 1354.52 1560.64 L1352.3 1560.12 Q1346.36 1558.87 1343.72 1556.3 Q1341.08 1553.69 1341.08 1549.18 Q1341.08 1543.69 1344.97 1540.71 Q1348.86 1537.72 1356.01 1537.72 Q1359.55 1537.72 1362.68 1538.24 Q1365.8 1538.76 1368.44 1539.8 Z" fill="#000000" fill-rule="nonzero" fill-opacity="1" /><path clip-path="url(#clip540)" d="M1395.63 1523.52 L1395.63 1586.92 L1380.91 1586.92 L1380.91 1581.96 L1389.21 1581.96 L1389.21 1528.49 L1380.91 1528.49 L1380.91 1523.52 L1395.63 1523.52 Z" fill="#000000" fill-rule="nonzero" fill-opacity="1" /><polyline clip-path="url(#clip540)" style="stroke:#000000; stroke-linecap:round; stroke-linejoin:round; stroke-width:4; stroke-opacity:1; fill:none" points="303.503,1401.58 303.503,123.472 "/>
<polyline clip-path="url(#clip540)" style="stroke:#000000; stroke-linecap:round; stroke-linejoin:round; stroke-width:4; stroke-opacity:1; fill:none" points="303.503,1390.41 322.401,1390.41 "/>
<polyline clip-path="url(#clip540)" style="stroke:#000000; stroke-linecap:round; stroke-linejoin:round; stroke-width:4; stroke-opacity:1; fill:none" points="303.503,1106.76 322.401,1106.76 "/>
<polyline clip-path="url(#clip540)" style="stroke:#000000; stroke-linecap:round; stroke-linejoin:round; stroke-width:4; stroke-opacity:1; fill:none" points="303.503,823.113 322.401,823.113 "/>
<polyline clip-path="url(#clip540)" style="stroke:#000000; stroke-linecap:round; stroke-linejoin:round; stroke-width:4; stroke-opacity:1; fill:none" points="303.503,539.465 322.401,539.465 "/>
<polyline clip-path="url(#clip540)" style="stroke:#000000; stroke-linecap:round; stroke-linejoin:round; stroke-width:4; stroke-opacity:1; fill:none" points="303.503,255.817 322.401,255.817 "/>
<path clip-path="url(#clip540)" d="M136.497 1369.11 Q131.08 1369.11 128.337 1374.45 Q125.629 1379.77 125.629 1390.46 Q125.629 1401.12 128.337 1406.47 Q131.08 1411.78 136.497 1411.78 Q141.948 1411.78 144.656 1406.47 Q147.399 1401.12 147.399 1390.46 Q147.399 1379.77 144.656 1374.45 Q141.948 1369.11 136.497 1369.11 M136.497 1363.55 Q145.212 1363.55 149.795 1370.46 Q154.413 1377.34 154.413 1390.46 Q154.413 1403.55 149.795 1410.46 Q145.212 1417.34 136.497 1417.34 Q127.781 1417.34 123.163 1410.46 Q118.58 1403.55 118.58 1390.46 Q118.58 1377.34 123.163 1370.46 Q127.781 1363.55 136.497 1363.55 Z" fill="#000000" fill-rule="nonzero" fill-opacity="1" /><path clip-path="url(#clip540)" d="M166.74 1407.51 L174.066 1407.51 L174.066 1416.33 L166.74 1416.33 L166.74 1407.51 Z" fill="#000000" fill-rule="nonzero" fill-opacity="1" /><path clip-path="url(#clip540)" d="M189.413 1364.49 L216.948 1364.49 L216.948 1370.39 L195.837 1370.39 L195.837 1383.1 Q197.364 1382.58 198.892 1382.34 Q200.42 1382.06 201.948 1382.06 Q210.628 1382.06 215.698 1386.82 Q220.767 1391.57 220.767 1399.7 Q220.767 1408.07 215.559 1412.72 Q210.35 1417.34 200.871 1417.34 Q197.608 1417.34 194.205 1416.78 Q190.837 1416.23 187.226 1415.11 L187.226 1408.07 Q190.351 1409.77 193.684 1410.6 Q197.017 1411.43 200.732 1411.43 Q206.739 1411.43 210.246 1408.27 Q213.753 1405.11 213.753 1399.7 Q213.753 1394.28 210.246 1391.12 Q206.739 1387.96 200.732 1387.96 Q197.92 1387.96 195.108 1388.59 Q192.33 1389.21 189.413 1390.53 L189.413 1364.49 Z" fill="#000000" fill-rule="nonzero" fill-opacity="1" /><path clip-path="url(#clip540)" d="M249.586 1369.11 Q244.17 1369.11 241.427 1374.45 Q238.718 1379.77 238.718 1390.46 Q238.718 1401.12 241.427 1406.47 Q244.17 1411.78 249.586 1411.78 Q255.038 1411.78 257.746 1406.47 Q260.489 1401.12 260.489 1390.46 Q260.489 1379.77 257.746 1374.45 Q255.038 1369.11 249.586 1369.11 M249.586 1363.55 Q258.302 1363.55 262.885 1370.46 Q267.503 1377.34 267.503 1390.46 Q267.503 1403.55 262.885 1410.46 Q258.302 1417.34 249.586 1417.34 Q240.871 1417.34 236.253 1410.46 Q231.67 1403.55 231.67 1390.46 Q231.67 1377.34 236.253 1370.46 Q240.871 1363.55 249.586 1363.55 Z" fill="#000000" fill-rule="nonzero" fill-opacity="1" /><path clip-path="url(#clip540)" d="M137.99 1085.46 Q132.573 1085.46 129.83 1090.81 Q127.122 1096.12 127.122 1106.81 Q127.122 1117.47 129.83 1122.82 Q132.573 1128.13 137.99 1128.13 Q143.441 1128.13 146.149 1122.82 Q148.892 1117.47 148.892 1106.81 Q148.892 1096.12 146.149 1090.81 Q143.441 1085.46 137.99 1085.46 M137.99 1079.9 Q146.705 1079.9 151.288 1086.81 Q155.906 1093.69 155.906 1106.81 Q155.906 1119.9 151.288 1126.81 Q146.705 1133.69 137.99 1133.69 Q129.275 1133.69 124.657 1126.81 Q120.073 1119.9 120.073 1106.81 Q120.073 1093.69 124.657 1086.81 Q129.275 1079.9 137.99 1079.9 Z" fill="#000000" fill-rule="nonzero" fill-opacity="1" /><path clip-path="url(#clip540)" d="M168.233 1123.86 L175.559 1123.86 L175.559 1132.68 L168.233 1132.68 L168.233 1123.86 Z" fill="#000000" fill-rule="nonzero" fill-opacity="1" /><path clip-path="url(#clip540)" d="M189.066 1080.84 L222.399 1080.84 L222.399 1083.83 L203.58 1132.68 L196.253 1132.68 L213.962 1086.74 L189.066 1086.74 L189.066 1080.84 Z" fill="#000000" fill-rule="nonzero" fill-opacity="1" /><path clip-path="url(#clip540)" d="M236.149 1080.84 L263.684 1080.84 L263.684 1086.74 L242.573 1086.74 L242.573 1099.45 Q244.1 1098.93 245.628 1098.69 Q247.156 1098.41 248.684 1098.41 Q257.364 1098.41 262.434 1103.17 Q267.503 1107.92 267.503 1116.05 Q267.503 1124.42 262.295 1129.07 Q257.086 1133.69 247.607 1133.69 Q244.343 1133.69 240.941 1133.13 Q237.573 1132.58 233.961 1131.47 L233.961 1124.42 Q237.086 1126.12 240.42 1126.95 Q243.753 1127.79 247.468 1127.79 Q253.475 1127.79 256.982 1124.63 Q260.489 1121.47 260.489 1116.05 Q260.489 1110.63 256.982 1107.47 Q253.475 1104.31 247.468 1104.31 Q244.656 1104.31 241.843 1104.94 Q239.066 1105.56 236.149 1106.88 L236.149 1080.84 Z" fill="#000000" fill-rule="nonzero" fill-opacity="1" /><path clip-path="url(#clip540)" d="M122.712 843.13 L134.17 843.13 L134.17 803.582 L121.705 806.082 L121.705 799.693 L134.101 797.193 L141.115 797.193 L141.115 843.13 L152.573 843.13 L152.573 849.033 L122.712 849.033 L122.712 843.13 Z" fill="#000000" fill-rule="nonzero" fill-opacity="1" /><path clip-path="url(#clip540)" d="M166.74 840.214 L174.066 840.214 L174.066 849.033 L166.74 849.033 L166.74 840.214 Z" fill="#000000" fill-rule="nonzero" fill-opacity="1" /><path clip-path="url(#clip540)" d="M204.344 801.811 Q198.927 801.811 196.184 807.158 Q193.476 812.471 193.476 823.165 Q193.476 833.825 196.184 839.172 Q198.927 844.485 204.344 844.485 Q209.795 844.485 212.503 839.172 Q215.246 833.825 215.246 823.165 Q215.246 812.471 212.503 807.158 Q209.795 801.811 204.344 801.811 M204.344 796.256 Q213.059 796.256 217.642 803.165 Q222.26 810.04 222.26 823.165 Q222.26 836.255 217.642 843.165 Q213.059 850.04 204.344 850.04 Q195.628 850.04 191.01 843.165 Q186.427 836.255 186.427 823.165 Q186.427 810.04 191.01 803.165 Q195.628 796.256 204.344 796.256 Z" fill="#000000" fill-rule="nonzero" fill-opacity="1" /><path clip-path="url(#clip540)" d="M249.586 801.811 Q244.17 801.811 241.427 807.158 Q238.718 812.471 238.718 823.165 Q238.718 833.825 241.427 839.172 Q244.17 844.485 249.586 844.485 Q255.038 844.485 257.746 839.172 Q260.489 833.825 260.489 823.165 Q260.489 812.471 257.746 807.158 Q255.038 801.811 249.586 801.811 M249.586 796.256 Q258.302 796.256 262.885 803.165 Q267.503 810.04 267.503 823.165 Q267.503 836.255 262.885 843.165 Q258.302 850.04 249.586 850.04 Q240.871 850.04 236.253 843.165 Q231.67 836.255 231.67 823.165 Q231.67 810.04 236.253 803.165 Q240.871 796.256 249.586 796.256 Z" fill="#000000" fill-rule="nonzero" fill-opacity="1" /><path clip-path="url(#clip540)" d="M124.205 559.482 L135.663 559.482 L135.663 519.934 L123.198 522.434 L123.198 516.045 L135.594 513.545 L142.608 513.545 L142.608 559.482 L154.066 559.482 L154.066 565.385 L124.205 565.385 L124.205 559.482 Z" fill="#000000" fill-rule="nonzero" fill-opacity="1" /><path clip-path="url(#clip540)" d="M168.233 556.566 L175.559 556.566 L175.559 565.385 L168.233 565.385 L168.233 556.566 Z" fill="#000000" fill-rule="nonzero" fill-opacity="1" /><path clip-path="url(#clip540)" d="M196.878 559.482 L221.357 559.482 L221.357 565.385 L188.441 565.385 L188.441 559.482 Q192.434 555.35 199.309 548.406 Q206.219 541.427 207.989 539.413 Q211.357 535.628 212.677 533.024 Q214.031 530.385 214.031 527.85 Q214.031 523.718 211.114 521.114 Q208.232 518.51 203.58 518.51 Q200.281 518.51 196.601 519.656 Q192.955 520.802 188.788 523.128 L188.788 516.045 Q193.024 514.344 196.705 513.475 Q200.385 512.607 203.441 512.607 Q211.496 512.607 216.288 516.635 Q221.08 520.663 221.08 527.399 Q221.08 530.593 219.864 533.475 Q218.684 536.323 215.524 540.211 Q214.656 541.218 210.003 546.045 Q205.351 550.836 196.878 559.482 Z" fill="#000000" fill-rule="nonzero" fill-opacity="1" /><path clip-path="url(#clip540)" d="M236.149 513.545 L263.684 513.545 L263.684 519.448 L242.573 519.448 L242.573 532.156 Q244.1 531.635 245.628 531.392 Q247.156 531.114 248.684 531.114 Q257.364 531.114 262.434 535.871 Q267.503 540.628 267.503 548.753 Q267.503 557.121 262.295 561.774 Q257.086 566.392 247.607 566.392 Q244.343 566.392 240.941 565.836 Q237.573 565.281 233.961 564.17 L233.961 557.121 Q237.086 558.822 240.42 559.656 Q243.753 560.489 247.468 560.489 Q253.475 560.489 256.982 557.329 Q260.489 554.17 260.489 548.753 Q260.489 543.336 256.982 540.177 Q253.475 537.017 247.468 537.017 Q244.656 537.017 241.843 537.642 Q239.066 538.267 236.149 539.586 L236.149 513.545 Z" fill="#000000" fill-rule="nonzero" fill-opacity="1" /><path clip-path="url(#clip540)" d="M122.712 275.834 L134.17 275.834 L134.17 236.286 L121.705 238.786 L121.705 232.397 L134.101 229.897 L141.115 229.897 L141.115 275.834 L152.573 275.834 L152.573 281.737 L122.712 281.737 L122.712 275.834 Z" fill="#000000" fill-rule="nonzero" fill-opacity="1" /><path clip-path="url(#clip540)" d="M166.74 272.917 L174.066 272.917 L174.066 281.737 L166.74 281.737 L166.74 272.917 Z" fill="#000000" fill-rule="nonzero" fill-opacity="1" /><path clip-path="url(#clip540)" d="M189.413 229.897 L216.948 229.897 L216.948 235.799 L195.837 235.799 L195.837 248.508 Q197.364 247.987 198.892 247.744 Q200.42 247.466 201.948 247.466 Q210.628 247.466 215.698 252.223 Q220.767 256.98 220.767 265.105 Q220.767 273.473 215.559 278.126 Q210.35 282.744 200.871 282.744 Q197.608 282.744 194.205 282.188 Q190.837 281.633 187.226 280.521 L187.226 273.473 Q190.351 275.174 193.684 276.008 Q197.017 276.841 200.732 276.841 Q206.739 276.841 210.246 273.681 Q213.753 270.522 213.753 265.105 Q213.753 259.688 210.246 256.529 Q206.739 253.369 200.732 253.369 Q197.92 253.369 195.108 253.994 Q192.33 254.619 189.413 255.938 L189.413 229.897 Z" fill="#000000" fill-rule="nonzero" fill-opacity="1" /><path clip-path="url(#clip540)" d="M249.586 234.515 Q244.17 234.515 241.427 239.862 Q238.718 245.174 238.718 255.869 Q238.718 266.528 241.427 271.876 Q244.17 277.188 249.586 277.188 Q255.038 277.188 257.746 271.876 Q260.489 266.528 260.489 255.869 Q260.489 245.174 257.746 239.862 Q255.038 234.515 249.586 234.515 M249.586 228.959 Q258.302 228.959 262.885 235.869 Q267.503 242.744 267.503 255.869 Q267.503 268.959 262.885 275.869 Q258.302 282.744 249.586 282.744 Q240.871 282.744 236.253 275.869 Q231.67 268.959 231.67 255.869 Q231.67 242.744 236.253 235.869 Q240.871 228.959 249.586 228.959 Z" fill="#000000" fill-rule="nonzero" fill-opacity="1" /><path clip-path="url(#clip540)" d="M35.6047 1045.01 Q31.2992 1042.61 29.2506 1039.28 Q27.202 1035.94 27.202 1031.43 Q27.202 1025.35 31.4728 1022.06 Q35.7089 1018.76 43.5561 1018.76 L67.0282 1018.76 L67.0282 1025.18 L43.7644 1025.18 Q38.1741 1025.18 35.4658 1027.16 Q32.7575 1029.14 32.7575 1033.2 Q32.7575 1038.17 36.0561 1041.05 Q39.3547 1043.93 45.0491 1043.93 L67.0282 1043.93 L67.0282 1050.35 L43.7644 1050.35 Q38.1394 1050.35 35.4658 1052.33 Q32.7575 1054.31 32.7575 1058.44 Q32.7575 1063.34 36.0908 1066.22 Q39.3894 1069.1 45.0491 1069.1 L67.0282 1069.1 L67.0282 1075.53 L28.1395 1075.53 L28.1395 1069.1 L34.1811 1069.1 Q30.6047 1066.92 28.9034 1063.86 Q27.202 1060.81 27.202 1056.6 Q27.202 1052.37 29.3547 1049.42 Q31.5075 1046.43 35.6047 1045.01 Z" fill="#000000" fill-rule="nonzero" fill-opacity="1" /><path clip-path="url(#clip540)" d="M47.4797 988.341 Q47.4797 996.084 49.2505 999.07 Q51.0213 1002.06 55.2921 1002.06 Q58.6949 1002.06 60.7087 999.834 Q62.6879 997.577 62.6879 993.723 Q62.6879 988.41 58.9379 985.216 Q55.1532 981.987 48.9033 981.987 L47.4797 981.987 L47.4797 988.341 M44.8408 975.598 L67.0282 975.598 L67.0282 981.987 L61.1254 981.987 Q64.6671 984.174 66.3684 987.438 Q68.0351 990.702 68.0351 995.424 Q68.0351 1001.4 64.7018 1004.94 Q61.3337 1008.44 55.7088 1008.44 Q49.1463 1008.44 45.813 1004.07 Q42.4797 999.66 42.4797 990.945 L42.4797 981.987 L41.8547 981.987 Q37.445 981.987 35.0492 984.903 Q32.6186 987.785 32.6186 993.028 Q32.6186 996.362 33.4172 999.521 Q34.2158 1002.68 35.813 1005.6 L29.9103 1005.6 Q28.5561 1002.09 27.8964 998.792 Q27.202 995.493 27.202 992.369 Q27.202 983.931 31.577 979.764 Q35.9519 975.598 44.8408 975.598 Z" fill="#000000" fill-rule="nonzero" fill-opacity="1" /><path clip-path="url(#clip540)" d="M29.2853 937.647 L35.3269 937.647 Q33.9381 940.355 33.2436 943.272 Q32.5492 946.188 32.5492 949.313 Q32.5492 954.07 34.0075 956.466 Q35.4658 958.827 38.3825 958.827 Q40.6047 958.827 41.8894 957.126 Q43.1394 955.424 44.2852 950.285 L44.7713 948.098 Q46.2297 941.292 48.9033 938.445 Q51.5421 935.563 56.299 935.563 Q61.7157 935.563 64.8754 939.869 Q68.0351 944.14 68.0351 951.64 Q68.0351 954.765 67.4101 958.167 Q66.8198 961.535 65.6046 965.285 L59.0074 965.285 Q60.8476 961.744 61.7851 958.306 Q62.6879 954.869 62.6879 951.501 Q62.6879 946.987 61.1601 944.556 Q59.5976 942.126 56.7852 942.126 Q54.181 942.126 52.7921 943.897 Q51.4032 945.633 50.1185 951.57 L49.5977 953.792 Q48.3477 959.73 45.7783 962.369 Q43.1741 965.008 38.6603 965.008 Q33.1742 965.008 30.1881 961.119 Q27.202 957.23 27.202 950.077 Q27.202 946.535 27.7228 943.41 Q28.2436 940.285 29.2853 937.647 Z" fill="#000000" fill-rule="nonzero" fill-opacity="1" /><path clip-path="url(#clip540)" d="M29.2853 900.598 L35.3269 900.598 Q33.9381 903.306 33.2436 906.223 Q32.5492 909.14 32.5492 912.265 Q32.5492 917.022 34.0075 919.418 Q35.4658 921.779 38.3825 921.779 Q40.6047 921.779 41.8894 920.077 Q43.1394 918.376 44.2852 913.237 L44.7713 911.049 Q46.2297 904.244 48.9033 901.397 Q51.5421 898.515 56.299 898.515 Q61.7157 898.515 64.8754 902.82 Q68.0351 907.091 68.0351 914.591 Q68.0351 917.716 67.4101 921.119 Q66.8198 924.487 65.6046 928.237 L59.0074 928.237 Q60.8476 924.695 61.7851 921.258 Q62.6879 917.82 62.6879 914.452 Q62.6879 909.938 61.1601 907.508 Q59.5976 905.077 56.7852 905.077 Q54.181 905.077 52.7921 906.848 Q51.4032 908.584 50.1185 914.522 L49.5977 916.744 Q48.3477 922.681 45.7783 925.32 Q43.1741 927.959 38.6603 927.959 Q33.1742 927.959 30.1881 924.07 Q27.202 920.181 27.202 913.029 Q27.202 909.487 27.7228 906.362 Q28.2436 903.237 29.2853 900.598 Z" fill="#000000" fill-rule="nonzero" fill-opacity="1" /><path clip-path="url(#clip540)" d="M61.1949 859.557 L81.8197 859.557 L81.8197 865.98 L28.1395 865.98 L28.1395 859.557 L34.0422 859.557 Q30.57 857.543 28.9034 854.487 Q27.202 851.397 27.202 847.126 Q27.202 840.043 32.827 835.633 Q38.4519 831.189 47.6185 831.189 Q56.7852 831.189 62.4101 835.633 Q68.0351 840.043 68.0351 847.126 Q68.0351 851.397 66.3684 854.487 Q64.6671 857.543 61.1949 859.557 M47.6185 837.821 Q40.57 837.821 36.5769 840.737 Q32.5492 843.619 32.5492 848.689 Q32.5492 853.758 36.5769 856.675 Q40.57 859.557 47.6185 859.557 Q54.6671 859.557 58.6949 856.675 Q62.6879 853.758 62.6879 848.689 Q62.6879 843.619 58.6949 840.737 Q54.6671 837.821 47.6185 837.821 Z" fill="#000000" fill-rule="nonzero" fill-opacity="1" /><path clip-path="url(#clip540)" d="M32.6186 805.529 Q32.6186 810.668 36.6464 813.654 Q40.6394 816.64 47.6185 816.64 Q54.5977 816.64 58.6254 813.689 Q62.6185 810.703 62.6185 805.529 Q62.6185 800.425 58.5907 797.439 Q54.5629 794.453 47.6185 794.453 Q40.7089 794.453 36.6811 797.439 Q32.6186 800.425 32.6186 805.529 M27.202 805.529 Q27.202 797.196 32.6186 792.439 Q38.0353 787.682 47.6185 787.682 Q57.1671 787.682 62.6185 792.439 Q68.0351 797.196 68.0351 805.529 Q68.0351 813.897 62.6185 818.654 Q57.1671 823.376 47.6185 823.376 Q38.0353 823.376 32.6186 818.654 Q27.202 813.897 27.202 805.529 Z" fill="#000000" fill-rule="nonzero" fill-opacity="1" /><path clip-path="url(#clip540)" d="M29.2853 752.3 L35.3269 752.3 Q33.9381 755.009 33.2436 757.925 Q32.5492 760.842 32.5492 763.967 Q32.5492 768.724 34.0075 771.12 Q35.4658 773.481 38.3825 773.481 Q40.6047 773.481 41.8894 771.779 Q43.1394 770.078 44.2852 764.939 L44.7713 762.752 Q46.2297 755.946 48.9033 753.099 Q51.5421 750.217 56.299 750.217 Q61.7157 750.217 64.8754 754.523 Q68.0351 758.793 68.0351 766.293 Q68.0351 769.418 67.4101 772.821 Q66.8198 776.189 65.6046 779.939 L59.0074 779.939 Q60.8476 776.397 61.7851 772.96 Q62.6879 769.522 62.6879 766.154 Q62.6879 761.641 61.1601 759.21 Q59.5976 756.779 56.7852 756.779 Q54.181 756.779 52.7921 758.55 Q51.4032 760.286 50.1185 766.224 L49.5977 768.446 Q48.3477 774.384 45.7783 777.022 Q43.1741 779.661 38.6603 779.661 Q33.1742 779.661 30.1881 775.772 Q27.202 771.884 27.202 764.731 Q27.202 761.189 27.7228 758.064 Q28.2436 754.939 29.2853 752.3 Z" fill="#000000" fill-rule="nonzero" fill-opacity="1" /><path clip-path="url(#clip540)" d="M28.1395 740.043 L28.1395 733.655 L67.0282 733.655 L67.0282 740.043 L28.1395 740.043 M13.0007 740.043 L13.0007 733.655 L21.0909 733.655 L21.0909 740.043 L13.0007 740.043 Z" fill="#000000" fill-rule="nonzero" fill-opacity="1" /><path clip-path="url(#clip540)" d="M17.0979 713.967 L28.1395 713.967 L28.1395 700.808 L33.1047 700.808 L33.1047 713.967 L54.2157 713.967 Q58.9726 713.967 60.3268 712.683 Q61.681 711.363 61.681 707.37 L61.681 700.808 L67.0282 700.808 L67.0282 707.37 Q67.0282 714.766 64.2851 717.578 Q61.5074 720.391 54.2157 720.391 L33.1047 720.391 L33.1047 725.078 L28.1395 725.078 L28.1395 720.391 L17.0979 720.391 L17.0979 713.967 Z" fill="#000000" fill-rule="nonzero" fill-opacity="1" /><path clip-path="url(#clip540)" d="M28.1395 692.405 L28.1395 686.016 L67.0282 686.016 L67.0282 692.405 L28.1395 692.405 M13.0007 692.405 L13.0007 686.016 L21.0909 686.016 L21.0909 692.405 L13.0007 692.405 Z" fill="#000000" fill-rule="nonzero" fill-opacity="1" /><path clip-path="url(#clip540)" d="M32.6186 657.579 Q32.6186 662.717 36.6464 665.704 Q40.6394 668.69 47.6185 668.69 Q54.5977 668.69 58.6254 665.738 Q62.6185 662.752 62.6185 657.579 Q62.6185 652.474 58.5907 649.488 Q54.5629 646.502 47.6185 646.502 Q40.7089 646.502 36.6811 649.488 Q32.6186 652.474 32.6186 657.579 M27.202 657.579 Q27.202 649.245 32.6186 644.488 Q38.0353 639.732 47.6185 639.732 Q57.1671 639.732 62.6185 644.488 Q68.0351 649.245 68.0351 657.579 Q68.0351 665.947 62.6185 670.704 Q57.1671 675.426 47.6185 675.426 Q38.0353 675.426 32.6186 670.704 Q27.202 665.947 27.202 657.579 Z" fill="#000000" fill-rule="nonzero" fill-opacity="1" /><path clip-path="url(#clip540)" d="M43.5561 596.815 L67.0282 596.815 L67.0282 603.204 L43.7644 603.204 Q38.2436 603.204 35.5005 605.357 Q32.7575 607.509 32.7575 611.815 Q32.7575 616.989 36.0561 619.975 Q39.3547 622.961 45.0491 622.961 L67.0282 622.961 L67.0282 629.384 L28.1395 629.384 L28.1395 622.961 L34.1811 622.961 Q30.6742 620.669 28.9381 617.579 Q27.202 614.454 27.202 610.391 Q27.202 603.69 31.3686 600.253 Q35.5005 596.815 43.5561 596.815 Z" fill="#000000" fill-rule="nonzero" fill-opacity="1" /><path clip-path="url(#clip540)" d="M13.0007 562.058 L13.0007 547.336 L17.9659 547.336 L17.9659 555.669 L71.4379 555.669 L71.4379 547.336 L76.4031 547.336 L76.4031 562.058 L13.0007 562.058 Z" fill="#000000" fill-rule="nonzero" fill-opacity="1" /><path clip-path="url(#clip540)" d="M35.6047 503.448 Q31.2992 501.052 29.2506 497.718 Q27.202 494.385 27.202 489.871 Q27.202 483.795 31.4728 480.496 Q35.7089 477.198 43.5561 477.198 L67.0282 477.198 L67.0282 483.621 L43.7644 483.621 Q38.1741 483.621 35.4658 485.6 Q32.7575 487.58 32.7575 491.642 Q32.7575 496.607 36.0561 499.489 Q39.3547 502.371 45.0491 502.371 L67.0282 502.371 L67.0282 508.795 L43.7644 508.795 Q38.1394 508.795 35.4658 510.774 Q32.7575 512.753 32.7575 516.885 Q32.7575 521.781 36.0908 524.663 Q39.3894 527.545 45.0491 527.545 L67.0282 527.545 L67.0282 533.968 L28.1395 533.968 L28.1395 527.545 L34.1811 527.545 Q30.6047 525.357 28.9034 522.302 Q27.202 519.246 27.202 515.045 Q27.202 510.809 29.3547 507.857 Q31.5075 504.871 35.6047 503.448 Z" fill="#000000" fill-rule="nonzero" fill-opacity="1" /><path clip-path="url(#clip540)" d="M13.0007 449.524 L76.4031 449.524 L76.4031 464.246 L71.4379 464.246 L71.4379 455.948 L17.9659 455.948 L17.9659 464.246 L13.0007 464.246 L13.0007 449.524 Z" fill="#000000" fill-rule="nonzero" fill-opacity="1" /><path clip-path="url(#clip540)" d="M592.343 12.096 L604.537 12.096 L619.971 53.2532 L635.486 12.096 L647.679 12.096 L647.679 72.576 L639.699 72.576 L639.699 19.4686 L624.103 60.9499 L615.879 60.9499 L600.283 19.4686 L600.283 72.576 L592.343 72.576 L592.343 12.096 Z" fill="#000000" fill-rule="nonzero" fill-opacity="1" /><path clip-path="url(#clip540)" d="M681.18 32.4315 Q675.184 32.4315 671.701 37.1306 Q668.217 41.7891 668.217 49.9314 Q668.217 58.0738 671.66 62.7728 Q675.144 67.4314 681.18 67.4314 Q687.135 67.4314 690.618 62.7323 Q694.102 58.0333 694.102 49.9314 Q694.102 41.8701 690.618 37.1711 Q687.135 32.4315 681.18 32.4315 M681.18 26.1121 Q690.902 26.1121 696.452 32.4315 Q702.001 38.7509 702.001 49.9314 Q702.001 61.0714 696.452 67.4314 Q690.902 73.7508 681.18 73.7508 Q671.417 73.7508 665.867 67.4314 Q660.358 61.0714 660.358 49.9314 Q660.358 38.7509 665.867 32.4315 Q671.417 26.1121 681.18 26.1121 Z" fill="#000000" fill-rule="nonzero" fill-opacity="1" /><path clip-path="url(#clip540)" d="M744.212 34.0924 L744.212 9.54393 L751.666 9.54393 L751.666 72.576 L744.212 72.576 L744.212 65.7705 Q741.862 69.8214 738.257 71.8063 Q734.692 73.7508 729.669 73.7508 Q721.446 73.7508 716.261 67.1883 Q711.116 60.6258 711.116 49.9314 Q711.116 39.2371 716.261 32.6746 Q721.446 26.1121 729.669 26.1121 Q734.692 26.1121 738.257 28.0971 Q741.862 30.0415 744.212 34.0924 M718.813 49.9314 Q718.813 58.1548 722.175 62.8538 Q725.578 67.5124 731.492 67.5124 Q737.406 67.5124 740.809 62.8538 Q744.212 58.1548 744.212 49.9314 Q744.212 41.7081 740.809 37.0496 Q737.406 32.3505 731.492 32.3505 Q725.578 32.3505 722.175 37.0496 Q718.813 41.7081 718.813 49.9314 Z" fill="#000000" fill-rule="nonzero" fill-opacity="1" /><path clip-path="url(#clip540)" d="M767.018 27.2059 L774.472 27.2059 L774.472 72.576 L767.018 72.576 L767.018 27.2059 M767.018 9.54393 L774.472 9.54393 L774.472 18.9825 L767.018 18.9825 L767.018 9.54393 Z" fill="#000000" fill-rule="nonzero" fill-opacity="1" /><path clip-path="url(#clip540)" d="M813.037 9.54393 L813.037 15.7418 L805.907 15.7418 Q801.897 15.7418 800.317 17.3622 Q798.778 18.9825 798.778 23.1955 L798.778 27.2059 L811.052 27.2059 L811.052 32.9987 L798.778 32.9987 L798.778 72.576 L791.283 72.576 L791.283 32.9987 L784.154 32.9987 L784.154 27.2059 L791.283 27.2059 L791.283 24.0462 Q791.283 16.471 794.808 13.0277 Q798.332 9.54393 805.988 9.54393 L813.037 9.54393 Z" fill="#000000" fill-rule="nonzero" fill-opacity="1" /><path clip-path="url(#clip540)" d="M819.275 27.2059 L826.729 27.2059 L826.729 72.576 L819.275 72.576 L819.275 27.2059 M819.275 9.54393 L826.729 9.54393 L826.729 18.9825 L819.275 18.9825 L819.275 9.54393 Z" fill="#000000" fill-rule="nonzero" fill-opacity="1" /><path clip-path="url(#clip540)" d="M881.132 48.0275 L881.132 51.6733 L846.862 51.6733 Q847.348 59.3701 851.48 63.421 Q855.652 67.4314 863.065 67.4314 Q867.359 67.4314 871.37 66.3781 Q875.421 65.3249 879.391 63.2184 L879.391 70.267 Q875.38 71.9684 871.167 72.8596 Q866.954 73.7508 862.62 73.7508 Q851.763 73.7508 845.403 67.4314 Q839.084 61.1119 839.084 50.3365 Q839.084 39.1965 845.079 32.6746 Q851.115 26.1121 861.323 26.1121 Q870.479 26.1121 875.785 32.0264 Q881.132 37.9003 881.132 48.0275 M873.679 45.84 Q873.598 39.7232 870.235 36.0774 Q866.914 32.4315 861.405 32.4315 Q855.166 32.4315 851.399 35.9558 Q847.672 39.4801 847.105 45.8805 L873.679 45.84 Z" fill="#000000" fill-rule="nonzero" fill-opacity="1" /><path clip-path="url(#clip540)" d="M923.221 34.0924 L923.221 9.54393 L930.675 9.54393 L930.675 72.576 L923.221 72.576 L923.221 65.7705 Q920.872 69.8214 917.266 71.8063 Q913.702 73.7508 908.679 73.7508 Q900.455 73.7508 895.27 67.1883 Q890.125 60.6258 890.125 49.9314 Q890.125 39.2371 895.27 32.6746 Q900.455 26.1121 908.679 26.1121 Q913.702 26.1121 917.266 28.0971 Q920.872 30.0415 923.221 34.0924 M897.822 49.9314 Q897.822 58.1548 901.184 62.8538 Q904.587 67.5124 910.501 67.5124 Q916.416 67.5124 919.819 62.8538 Q923.221 58.1548 923.221 49.9314 Q923.221 41.7081 919.819 37.0496 Q916.416 32.3505 910.501 32.3505 Q904.587 32.3505 901.184 37.0496 Q897.822 41.7081 897.822 49.9314 Z" fill="#000000" fill-rule="nonzero" fill-opacity="1" /><path clip-path="url(#clip540)" d="M947.932 62.2867 L956.479 62.2867 L956.479 72.576 L947.932 72.576 L947.932 62.2867 M947.932 29.6769 L956.479 29.6769 L956.479 39.9662 L947.932 39.9662 L947.932 29.6769 Z" fill="#000000" fill-rule="nonzero" fill-opacity="1" /><path clip-path="url(#clip540)" d="M1000.67 12.096 L1012.87 12.096 L1028.3 53.2532 L1043.82 12.096 L1056.01 12.096 L1056.01 72.576 L1048.03 72.576 L1048.03 19.4686 L1032.43 60.9499 L1024.21 60.9499 L1008.61 19.4686 L1008.61 72.576 L1000.67 72.576 L1000.67 12.096 Z" fill="#000000" fill-rule="nonzero" fill-opacity="1" /><path clip-path="url(#clip540)" d="M1092.55 49.7694 Q1083.52 49.7694 1080.03 51.8354 Q1076.55 53.9013 1076.55 58.8839 Q1076.55 62.8538 1079.14 65.2034 Q1081.77 67.5124 1086.27 67.5124 Q1092.47 67.5124 1096.19 63.1374 Q1099.96 58.7219 1099.96 51.4303 L1099.96 49.7694 L1092.55 49.7694 M1107.42 46.6907 L1107.42 72.576 L1099.96 72.576 L1099.96 65.6895 Q1097.41 69.8214 1093.6 71.8063 Q1089.79 73.7508 1084.29 73.7508 Q1077.32 73.7508 1073.19 69.8619 Q1069.09 65.9325 1069.09 59.3701 Q1069.09 51.7138 1074.2 47.825 Q1079.34 43.9361 1089.51 43.9361 L1099.96 43.9361 L1099.96 43.2069 Q1099.96 38.0623 1096.56 35.2672 Q1093.2 32.4315 1087.08 32.4315 Q1083.19 32.4315 1079.51 33.3632 Q1075.82 34.295 1072.42 36.1584 L1072.42 29.2718 Q1076.51 27.692 1080.36 26.9223 Q1084.2 26.1121 1087.85 26.1121 Q1097.69 26.1121 1102.55 31.2163 Q1107.42 36.3204 1107.42 46.6907 Z" fill="#000000" fill-rule="nonzero" fill-opacity="1" /><path clip-path="url(#clip540)" d="M1151.69 28.5427 L1151.69 35.5912 Q1148.53 33.9709 1145.13 33.1607 Q1141.73 32.3505 1138.08 32.3505 Q1132.53 32.3505 1129.74 34.0519 Q1126.98 35.7533 1126.98 39.156 Q1126.98 41.7486 1128.97 43.2475 Q1130.95 44.7058 1136.95 46.0426 L1139.5 46.6097 Q1147.44 48.3111 1150.76 51.4303 Q1154.12 54.509 1154.12 60.0587 Q1154.12 66.3781 1149.1 70.0644 Q1144.12 73.7508 1135.37 73.7508 Q1131.72 73.7508 1127.75 73.0216 Q1123.82 72.3329 1119.45 70.9151 L1119.45 63.2184 Q1123.58 65.3654 1127.59 66.4591 Q1131.6 67.5124 1135.53 67.5124 Q1140.8 67.5124 1143.63 65.73 Q1146.47 63.9071 1146.47 60.6258 Q1146.47 57.5877 1144.4 55.9673 Q1142.38 54.3469 1135.45 52.8481 L1132.86 52.2405 Q1125.93 50.7821 1122.85 47.7845 Q1119.77 44.7463 1119.77 39.4801 Q1119.77 33.0797 1124.31 29.5959 Q1128.85 26.1121 1137.19 26.1121 Q1141.32 26.1121 1144.97 26.7198 Q1148.61 27.3274 1151.69 28.5427 Z" fill="#000000" fill-rule="nonzero" fill-opacity="1" /><path clip-path="url(#clip540)" d="M1194.92 28.5427 L1194.92 35.5912 Q1191.76 33.9709 1188.35 33.1607 Q1184.95 32.3505 1181.3 32.3505 Q1175.75 32.3505 1172.96 34.0519 Q1170.2 35.7533 1170.2 39.156 Q1170.2 41.7486 1172.19 43.2475 Q1174.17 44.7058 1180.17 46.0426 L1182.72 46.6097 Q1190.66 48.3111 1193.98 51.4303 Q1197.35 54.509 1197.35 60.0587 Q1197.35 66.3781 1192.32 70.0644 Q1187.34 73.7508 1178.59 73.7508 Q1174.94 73.7508 1170.97 73.0216 Q1167.05 72.3329 1162.67 70.9151 L1162.67 63.2184 Q1166.8 65.3654 1170.81 66.4591 Q1174.82 67.5124 1178.75 67.5124 Q1184.02 67.5124 1186.85 65.73 Q1189.69 63.9071 1189.69 60.6258 Q1189.69 57.5877 1187.62 55.9673 Q1185.6 54.3469 1178.67 52.8481 L1176.08 52.2405 Q1169.15 50.7821 1166.07 47.7845 Q1162.99 44.7463 1162.99 39.4801 Q1162.99 33.0797 1167.53 29.5959 Q1172.07 26.1121 1180.41 26.1121 Q1184.55 26.1121 1188.19 26.7198 Q1191.84 27.3274 1194.92 28.5427 Z" fill="#000000" fill-rule="nonzero" fill-opacity="1" /><path clip-path="url(#clip540)" d="M1242.8 65.7705 L1242.8 89.8329 L1235.3 89.8329 L1235.3 27.2059 L1242.8 27.2059 L1242.8 34.0924 Q1245.15 30.0415 1248.71 28.0971 Q1252.32 26.1121 1257.3 26.1121 Q1265.56 26.1121 1270.71 32.6746 Q1275.89 39.2371 1275.89 49.9314 Q1275.89 60.6258 1270.71 67.1883 Q1265.56 73.7508 1257.3 73.7508 Q1252.32 73.7508 1248.71 71.8063 Q1245.15 69.8214 1242.8 65.7705 M1268.16 49.9314 Q1268.16 41.7081 1264.75 37.0496 Q1261.39 32.3505 1255.48 32.3505 Q1249.56 32.3505 1246.16 37.0496 Q1242.8 41.7081 1242.8 49.9314 Q1242.8 58.1548 1246.16 62.8538 Q1249.56 67.5124 1255.48 67.5124 Q1261.39 67.5124 1264.75 62.8538 Q1268.16 58.1548 1268.16 49.9314 Z" fill="#000000" fill-rule="nonzero" fill-opacity="1" /><path clip-path="url(#clip540)" d="M1305.83 32.4315 Q1299.83 32.4315 1296.35 37.1306 Q1292.87 41.7891 1292.87 49.9314 Q1292.87 58.0738 1296.31 62.7728 Q1299.79 67.4314 1305.83 67.4314 Q1311.78 67.4314 1315.27 62.7323 Q1318.75 58.0333 1318.75 49.9314 Q1318.75 41.8701 1315.27 37.1711 Q1311.78 32.4315 1305.83 32.4315 M1305.83 26.1121 Q1315.55 26.1121 1321.1 32.4315 Q1326.65 38.7509 1326.65 49.9314 Q1326.65 61.0714 1321.1 67.4314 Q1315.55 73.7508 1305.83 73.7508 Q1296.07 73.7508 1290.52 67.4314 Q1285.01 61.0714 1285.01 49.9314 Q1285.01 38.7509 1290.52 32.4315 Q1296.07 26.1121 1305.83 26.1121 Z" fill="#000000" fill-rule="nonzero" fill-opacity="1" /><path clip-path="url(#clip540)" d="M1367.93 28.5427 L1367.93 35.5912 Q1364.77 33.9709 1361.37 33.1607 Q1357.96 32.3505 1354.32 32.3505 Q1348.77 32.3505 1345.97 34.0519 Q1343.22 35.7533 1343.22 39.156 Q1343.22 41.7486 1345.2 43.2475 Q1347.19 44.7058 1353.18 46.0426 L1355.74 46.6097 Q1363.68 48.3111 1367 51.4303 Q1370.36 54.509 1370.36 60.0587 Q1370.36 66.3781 1365.34 70.0644 Q1360.35 73.7508 1351.6 73.7508 Q1347.96 73.7508 1343.99 73.0216 Q1340.06 72.3329 1335.68 70.9151 L1335.68 63.2184 Q1339.82 65.3654 1343.83 66.4591 Q1347.84 67.5124 1351.77 67.5124 Q1357.03 67.5124 1359.87 65.73 Q1362.7 63.9071 1362.7 60.6258 Q1362.7 57.5877 1360.64 55.9673 Q1358.61 54.3469 1351.69 52.8481 L1349.09 52.2405 Q1342.17 50.7821 1339.09 47.7845 Q1336.01 44.7463 1336.01 39.4801 Q1336.01 33.0797 1340.55 29.5959 Q1345.08 26.1121 1353.43 26.1121 Q1357.56 26.1121 1361.21 26.7198 Q1364.85 27.3274 1367.93 28.5427 Z" fill="#000000" fill-rule="nonzero" fill-opacity="1" /><path clip-path="url(#clip540)" d="M1382.23 27.2059 L1389.68 27.2059 L1389.68 72.576 L1382.23 72.576 L1382.23 27.2059 M1382.23 9.54393 L1389.68 9.54393 L1389.68 18.9825 L1382.23 18.9825 L1382.23 9.54393 Z" fill="#000000" fill-rule="nonzero" fill-opacity="1" /><path clip-path="url(#clip540)" d="M1412.65 14.324 L1412.65 27.2059 L1428 27.2059 L1428 32.9987 L1412.65 32.9987 L1412.65 57.6282 Q1412.65 63.1779 1414.15 64.7578 Q1415.69 66.3376 1420.35 66.3376 L1428 66.3376 L1428 72.576 L1420.35 72.576 Q1411.72 72.576 1408.44 69.3758 Q1405.16 66.1351 1405.16 57.6282 L1405.16 32.9987 L1399.69 32.9987 L1399.69 27.2059 L1405.16 27.2059 L1405.16 14.324 L1412.65 14.324 Z" fill="#000000" fill-rule="nonzero" fill-opacity="1" /><path clip-path="url(#clip540)" d="M1437.81 27.2059 L1445.26 27.2059 L1445.26 72.576 L1437.81 72.576 L1437.81 27.2059 M1437.81 9.54393 L1445.26 9.54393 L1445.26 18.9825 L1437.81 18.9825 L1437.81 9.54393 Z" fill="#000000" fill-rule="nonzero" fill-opacity="1" /><path clip-path="url(#clip540)" d="M1478.44 32.4315 Q1472.44 32.4315 1468.96 37.1306 Q1465.48 41.7891 1465.48 49.9314 Q1465.48 58.0738 1468.92 62.7728 Q1472.4 67.4314 1478.44 67.4314 Q1484.39 67.4314 1487.88 62.7323 Q1491.36 58.0333 1491.36 49.9314 Q1491.36 41.8701 1487.88 37.1711 Q1484.39 32.4315 1478.44 32.4315 M1478.44 26.1121 Q1488.16 26.1121 1493.71 32.4315 Q1499.26 38.7509 1499.26 49.9314 Q1499.26 61.0714 1493.71 67.4314 Q1488.16 73.7508 1478.44 73.7508 Q1468.68 73.7508 1463.13 67.4314 Q1457.62 61.0714 1457.62 49.9314 Q1457.62 38.7509 1463.13 32.4315 Q1468.68 26.1121 1478.44 26.1121 Z" fill="#000000" fill-rule="nonzero" fill-opacity="1" /><path clip-path="url(#clip540)" d="M1549.33 45.1919 L1549.33 72.576 L1541.88 72.576 L1541.88 45.4349 Q1541.88 38.994 1539.36 35.7938 Q1536.85 32.5936 1531.83 32.5936 Q1525.79 32.5936 1522.31 36.4419 Q1518.83 40.2903 1518.83 46.9338 L1518.83 72.576 L1511.33 72.576 L1511.33 27.2059 L1518.83 27.2059 L1518.83 34.2544 Q1521.5 30.163 1525.1 28.1376 Q1528.75 26.1121 1533.49 26.1121 Q1541.31 26.1121 1545.32 30.9732 Q1549.33 35.7938 1549.33 45.1919 Z" fill="#000000" fill-rule="nonzero" fill-opacity="1" /><path clip-path="url(#clip540)" d="M1611.19 49.7694 Q1602.15 49.7694 1598.67 51.8354 Q1595.19 53.9013 1595.19 58.8839 Q1595.19 62.8538 1597.78 65.2034 Q1600.41 67.5124 1604.91 67.5124 Q1611.11 67.5124 1614.83 63.1374 Q1618.6 58.7219 1618.6 51.4303 L1618.6 49.7694 L1611.19 49.7694 M1626.05 46.6907 L1626.05 72.576 L1618.6 72.576 L1618.6 65.6895 Q1616.05 69.8214 1612.24 71.8063 Q1608.43 73.7508 1602.92 73.7508 Q1595.95 73.7508 1591.82 69.8619 Q1587.73 65.9325 1587.73 59.3701 Q1587.73 51.7138 1592.84 47.825 Q1597.98 43.9361 1608.15 43.9361 L1618.6 43.9361 L1618.6 43.2069 Q1618.6 38.0623 1615.2 35.2672 Q1611.83 32.4315 1605.72 32.4315 Q1601.83 32.4315 1598.14 33.3632 Q1594.46 34.295 1591.05 36.1584 L1591.05 29.2718 Q1595.14 27.692 1598.99 26.9223 Q1602.84 26.1121 1606.49 26.1121 Q1616.33 26.1121 1621.19 31.2163 Q1626.05 36.3204 1626.05 46.6907 Z" fill="#000000" fill-rule="nonzero" fill-opacity="1" /><path clip-path="url(#clip540)" d="M1664.37 9.54393 L1664.37 15.7418 L1657.25 15.7418 Q1653.23 15.7418 1651.65 17.3622 Q1650.12 18.9825 1650.12 23.1955 L1650.12 27.2059 L1662.39 27.2059 L1662.39 32.9987 L1650.12 32.9987 L1650.12 72.576 L1642.62 72.576 L1642.62 32.9987 L1635.49 32.9987 L1635.49 27.2059 L1642.62 27.2059 L1642.62 24.0462 Q1642.62 16.471 1646.15 13.0277 Q1649.67 9.54393 1657.33 9.54393 L1664.37 9.54393 Z" fill="#000000" fill-rule="nonzero" fill-opacity="1" /><path clip-path="url(#clip540)" d="M1676.53 14.324 L1676.53 27.2059 L1691.88 27.2059 L1691.88 32.9987 L1676.53 32.9987 L1676.53 57.6282 Q1676.53 63.1779 1678.03 64.7578 Q1679.57 66.3376 1684.22 66.3376 L1691.88 66.3376 L1691.88 72.576 L1684.22 72.576 Q1675.6 72.576 1672.31 69.3758 Q1669.03 66.1351 1669.03 57.6282 L1669.03 32.9987 L1663.56 32.9987 L1663.56 27.2059 L1669.03 27.2059 L1669.03 14.324 L1676.53 14.324 Z" fill="#000000" fill-rule="nonzero" fill-opacity="1" /><path clip-path="url(#clip540)" d="M1740.49 48.0275 L1740.49 51.6733 L1706.22 51.6733 Q1706.71 59.3701 1710.84 63.421 Q1715.01 67.4314 1722.42 67.4314 Q1726.72 67.4314 1730.73 66.3781 Q1734.78 65.3249 1738.75 63.2184 L1738.75 70.267 Q1734.74 71.9684 1730.53 72.8596 Q1726.31 73.7508 1721.98 73.7508 Q1711.12 73.7508 1704.76 67.4314 Q1698.44 61.1119 1698.44 50.3365 Q1698.44 39.1965 1704.44 32.6746 Q1710.47 26.1121 1720.68 26.1121 Q1729.84 26.1121 1735.14 32.0264 Q1740.49 37.9003 1740.49 48.0275 M1733.04 45.84 Q1732.96 39.7232 1729.59 36.0774 Q1726.27 32.4315 1720.76 32.4315 Q1714.52 32.4315 1710.76 35.9558 Q1707.03 39.4801 1706.46 45.8805 L1733.04 45.84 Z" fill="#000000" fill-rule="nonzero" fill-opacity="1" /><path clip-path="url(#clip540)" d="M1779.02 34.1734 Q1777.76 33.4443 1776.26 33.1202 Q1774.8 32.7556 1773.02 32.7556 Q1766.7 32.7556 1763.3 36.8875 Q1759.94 40.9789 1759.94 48.6757 L1759.94 72.576 L1752.44 72.576 L1752.44 27.2059 L1759.94 27.2059 L1759.94 34.2544 Q1762.29 30.1225 1766.05 28.1376 Q1769.82 26.1121 1775.21 26.1121 Q1775.98 26.1121 1776.91 26.2337 Q1777.84 26.3147 1778.97 26.5172 L1779.02 34.1734 Z" fill="#000000" fill-rule="nonzero" fill-opacity="1" /><path clip-path="url(#clip540)" d="M1842.21 44.2197 Q1844.84 45.1109 1847.31 48.0275 Q1849.83 50.9442 1852.34 56.0483 L1860.64 72.576 L1851.85 72.576 L1844.11 57.061 Q1841.12 50.9847 1838.28 48.9997 Q1835.48 47.0148 1830.62 47.0148 L1821.71 47.0148 L1821.71 72.576 L1813.53 72.576 L1813.53 12.096 L1832 12.096 Q1842.37 12.096 1847.48 16.4305 Q1852.58 20.7649 1852.58 29.5149 Q1852.58 35.2267 1849.91 38.994 Q1847.27 42.7613 1842.21 44.2197 M1821.71 18.8205 L1821.71 40.2903 L1832 40.2903 Q1837.92 40.2903 1840.91 37.5762 Q1843.95 34.8216 1843.95 29.5149 Q1843.95 24.2082 1840.91 21.5346 Q1837.92 18.8205 1832 18.8205 L1821.71 18.8205 Z" fill="#000000" fill-rule="nonzero" fill-opacity="1" /><path clip-path="url(#clip540)" d="M1866.35 54.671 L1866.35 27.2059 L1873.81 27.2059 L1873.81 54.3874 Q1873.81 60.8284 1876.32 64.0691 Q1878.83 67.2693 1883.85 67.2693 Q1889.89 67.2693 1893.37 63.421 Q1896.9 59.5726 1896.9 52.9291 L1896.9 27.2059 L1904.35 27.2059 L1904.35 72.576 L1896.9 72.576 L1896.9 65.6084 Q1894.18 69.7404 1890.58 71.7658 Q1887.01 73.7508 1882.27 73.7508 Q1874.45 73.7508 1870.4 68.8897 Q1866.35 64.0286 1866.35 54.671 M1885.11 26.1121 L1885.11 26.1121 Z" fill="#000000" fill-rule="nonzero" fill-opacity="1" /><path clip-path="url(#clip540)" d="M1957.42 45.1919 L1957.42 72.576 L1949.96 72.576 L1949.96 45.4349 Q1949.96 38.994 1947.45 35.7938 Q1944.94 32.5936 1939.92 32.5936 Q1933.88 32.5936 1930.4 36.4419 Q1926.91 40.2903 1926.91 46.9338 L1926.91 72.576 L1919.42 72.576 L1919.42 27.2059 L1926.91 27.2059 L1926.91 34.2544 Q1929.59 30.163 1933.19 28.1376 Q1936.84 26.1121 1941.58 26.1121 Q1949.4 26.1121 1953.41 30.9732 Q1957.42 35.7938 1957.42 45.1919 Z" fill="#000000" fill-rule="nonzero" fill-opacity="1" /><path clip-path="url(#clip540)" d="M1974.19 62.2867 L1982.74 62.2867 L1982.74 72.576 L1974.19 72.576 L1974.19 62.2867 M1974.19 29.6769 L1982.74 29.6769 L1982.74 39.9662 L1974.19 39.9662 L1974.19 29.6769 Z" fill="#000000" fill-rule="nonzero" fill-opacity="1" /><path clip-path="url(#clip540)" d="M2029.08 65.6895 L2042.45 65.6895 L2042.45 19.5497 L2027.9 22.4663 L2027.9 15.0127 L2042.36 12.096 L2050.55 12.096 L2050.55 65.6895 L2063.92 65.6895 L2063.92 72.576 L2029.08 72.576 L2029.08 65.6895 Z" fill="#000000" fill-rule="nonzero" fill-opacity="1" /><polyline clip-path="url(#clip542)" style="stroke:#009af9; stroke-linecap:round; stroke-linejoin:round; stroke-width:8; stroke-opacity:1; fill:none" points="361.501,823.113 366.334,840.072 371.167,856.901 376,873.583 380.833,890.101 385.666,906.438 390.5,922.579 395.333,938.506 400.166,954.205 404.999,969.66 409.832,984.854 414.665,999.773 419.498,1014.4 424.332,1028.73 429.165,1042.73 433.998,1056.4 438.831,1069.73 443.664,1082.69 448.497,1095.29 453.33,1107.49 458.164,1119.3 462.997,1130.7 467.83,1141.68 472.663,1152.23 477.496,1162.33 482.329,1171.98 487.162,1181.17 491.996,1189.89 496.829,1198.13 501.662,1205.88 506.495,1213.13 511.328,1219.88 516.161,1226.12 520.994,1231.84 525.828,1237.04 530.661,1241.71 535.494,1245.85 540.327,1249.46 545.16,1252.52 549.993,1255.05 554.826,1257.02 559.66,1258.45 564.493,1259.33 569.326,1259.67 574.159,1259.45 578.992,1258.68 583.825,1257.36 588.658,1255.5 593.492,1253.09 598.325,1250.13 603.158,1246.64 607.991,1242.6 612.824,1238.04 617.657,1232.95 622.49,1227.33 627.324,1221.2 632.157,1214.55 636.99,1207.4 641.823,1199.75 646.656,1191.62 651.489,1183 656.322,1173.9 661.156,1164.35 665.989,1154.33 670.822,1143.88 675.655,1132.99 680.488,1121.67 685.321,1109.95 690.154,1097.82 694.988,1085.31 699.821,1072.42 704.654,1059.16 709.487,1045.56 714.32,1031.62 719.153,1017.36 723.986,1002.8 728.82,987.935 733.653,972.796 738.486,957.393 743.319,941.743 748.152,925.861 752.985,909.763 757.818,893.465 762.652,876.983 767.485,860.333 772.318,843.533 777.151,826.599 781.984,809.548 786.817,792.397 791.65,775.164 796.484,757.865 801.317,740.518 806.15,723.14 810.983,705.748 815.816,688.36 820.649,670.994 825.482,653.666 830.316,636.394 835.149,619.196 839.982,602.088 844.815,585.087 849.648,568.211 854.481,551.477 859.314,534.901 864.148,518.499 868.981,502.288 873.814,486.285 878.647,470.506 883.48,454.965 888.313,439.679 893.147,424.663 897.98,409.932 902.813,395.5 907.646,381.383 912.479,367.594 917.312,354.147 922.145,341.056 926.979,328.333 931.812,315.991 936.645,304.043 941.478,292.501 946.311,281.376 951.144,270.679 955.977,260.42 960.811,250.612 965.644,241.262 970.477,232.38 975.31,223.976 980.143,216.057 984.976,208.632 989.809,201.708 994.643,195.291 999.476,189.39 1004.31,184.008 1009.14,179.152 1013.98,174.826 1018.81,171.035 1023.64,167.783 1028.47,165.072 1033.31,162.907 1038.14,161.287 1042.97,160.216 1047.81,159.695 1052.64,159.723 1057.47,160.302 1062.31,161.429 1067.14,163.105 1071.97,165.327 1076.81,168.094 1081.64,171.402 1086.47,175.248 1091.31,179.629 1096.14,184.539 1100.97,189.975 1105.8,195.93 1110.64,202.399 1115.47,209.376 1120.3,216.852 1125.14,224.821 1129.97,233.275 1134.8,242.206 1139.64,251.603 1144.47,261.459 1149.3,271.763 1154.14,282.505 1158.97,293.674 1163.8,305.258 1168.64,317.248 1173.47,329.629 1178.3,342.391 1183.14,355.52 1187.97,369.003 1192.8,382.826 1197.63,396.976 1202.47,411.439 1207.3,426.201 1212.13,441.245 1216.97,456.558 1221.8,472.124 1226.63,487.928 1231.47,503.953 1236.3,520.184 1241.13,536.604 1245.97,553.198 1250.8,569.948 1255.63,586.837 1260.47,603.85 1265.3,620.968 1270.13,638.175 1274.96,655.453 1279.8,672.786 1284.63,690.155 1289.46,707.544 1294.3,724.935 1299.13,742.311 1303.96,759.654 1308.8,776.947 1313.63,794.173 1318.46,811.314 1323.3,828.353 1328.13,845.274 1332.96,862.06 1337.8,878.693 1342.63,895.157 1347.46,911.435 1352.3,927.512 1357.13,943.371 1361.96,958.996 1366.79,974.371 1371.63,989.483 1376.46,1004.31 1381.29,1018.85 1386.13,1033.08 1390.96,1046.98 1395.79,1060.55 1400.63,1073.76 1405.46,1086.62 1410.29,1099.09 1415.13,1111.18 1419.96,1122.86 1424.79,1134.13 1429.63,1144.98 1434.46,1155.39 1439.29,1165.35 1444.12,1174.86 1448.96,1183.91 1453.79,1192.48 1458.62,1200.57 1463.46,1208.16 1468.29,1215.26 1473.12,1221.85 1477.96,1227.94 1482.79,1233.5 1487.62,1238.54 1492.46,1243.05 1497.29,1247.02 1502.12,1250.46 1506.96,1253.36 1511.79,1255.71 1516.62,1257.52 1521.46,1258.78 1526.29,1259.49 1531.12,1259.66 1535.95,1259.27 1540.79,1258.33 1545.62,1256.84 1550.45,1254.81 1555.29,1252.23 1560.12,1249.11 1564.95,1245.45 1569.79,1241.25 1574.62,1236.53 1579.45,1231.27 1584.29,1225.5 1589.12,1219.2 1593.95,1212.4 1598.79,1205.1 1603.62,1197.3 1608.45,1189.01 1613.28,1180.24 1618.12,1171.01 1622.95,1161.31 1627.78,1151.16 1632.62,1140.57 1637.45,1129.54 1642.28,1118.1 1647.12,1106.25 1651.95,1094 1656.78,1081.37 1661.62,1068.37 1666.45,1055.01 1671.28,1041.3 1676.12,1027.26 1680.95,1012.91 1685.78,998.246 1690.62,983.297 1695.45,968.076 1700.28,952.595 1705.11,936.872 1709.95,920.922 1714.78,904.76 1719.61,888.403 1724.45,871.868 1729.28,855.17 1734.11,838.327 1738.95,821.355 1743.78,804.272 1748.61,787.094 1753.45,769.838 1758.28,752.522 1763.11,735.164 1767.95,717.779 1772.78,700.387 1777.61,683.004 1782.44,665.648 1787.28,648.336 1792.11,631.085 1796.94,613.912 1801.78,596.835 1806.61,579.871 1811.44,563.037 1816.28,546.35 1821.11,529.826 1825.94,513.481 1830.78,497.333 1835.61,481.397 1840.44,465.689 1845.28,450.225 1850.11,435.021 1854.94,420.091 1859.78,405.451 1864.61,391.115 1869.44,377.097 1874.27,363.412 1879.11,350.074 1883.94,337.094 1888.77,324.488 1893.61,312.266 1898.44,300.442 1903.27,289.027 1908.11,278.032 1912.94,267.469 1917.77,257.349 1922.61,247.68 1927.44,238.474 1932.27,229.738 1937.11,221.483 1941.94,213.715 1946.77,206.444 1951.6,199.676 1956.44,193.417 1961.27,187.675 1966.1,182.455 1970.94,177.762 1975.77,173.6 1980.6,169.975 1985.44,166.89 1990.27,164.347 1995.1,162.349 1999.94,160.899 2004.77,159.997 2009.6,159.645 2014.44,159.843 2019.27,160.591 2024.1,161.887 2028.94,163.732 2033.77,166.122 2038.6,169.056 2043.43,172.53 2048.27,176.542 2053.1,181.086 2057.93,186.159 2062.77,191.756 2067.6,197.87 2072.43,204.496 2077.27,211.627 2082.1,219.256 2086.93,227.376 2091.77,235.977 2096.6,245.053 2101.43,254.593 2106.27,264.588 2111.1,275.028 2115.93,285.902 2120.77,297.201 2125.6,308.911 2130.43,321.023 2135.26,333.523 2140.1,346.399 2144.93,359.638 2149.76,373.228 2154.6,387.153 2159.43,401.402 2164.26,415.958 2169.1,430.808 2173.93,445.937 2178.76,461.33 2183.6,476.971 2188.43,492.844 2193.26,508.935 2198.1,525.226 2202.93,541.701 2207.76,558.345 2212.59,575.14 2217.43,592.069 2222.26,609.116 2227.09,626.263 2231.93,643.494 2236.76,660.791 2241.59,678.136 2246.43,695.514 2251.26,712.905 2256.09,730.293 2260.93,747.661 2265.76,764.99 2270.59,782.264 2275.43,799.466 2280.26,816.578 2285.09,833.583 2289.93,850.463 2294.76,867.204 "/>
<polyline clip-path="url(#clip542)" style="stroke:#e26f46; stroke-linecap:round; stroke-linejoin:round; stroke-width:8; stroke-opacity:1; fill:none" points="361.501,823.113 366.334,840.109 371.167,857.049 376,873.915 380.833,890.69 385.666,907.358 390.5,923.902 395.333,940.306 400.166,956.553 404.999,972.627 409.832,988.511 414.665,1004.19 419.498,1019.65 424.332,1034.87 429.165,1049.84 433.998,1064.54 438.831,1078.97 443.664,1093.09 448.497,1106.91 453.33,1120.4 458.164,1133.56 462.997,1146.36 467.83,1158.8 472.663,1170.86 477.496,1182.54 482.329,1193.81 487.162,1204.67 491.996,1215.11 496.829,1225.11 501.662,1234.66 506.495,1243.76 511.328,1252.4 516.161,1260.56 520.994,1268.24 525.828,1275.42 530.661,1282.1 535.494,1288.28 540.327,1293.94 545.16,1299.07 549.993,1303.68 554.826,1307.74 559.66,1311.26 564.493,1314.24 569.326,1316.65 574.159,1318.51 578.992,1319.79 583.825,1320.51 588.658,1320.65 593.492,1320.33 598.325,1319.6 603.158,1318.45 607.991,1316.87 612.824,1314.87 617.657,1312.45 622.49,1309.61 627.324,1306.34 632.157,1302.64 636.99,1298.53 641.823,1294 646.656,1289.06 651.489,1283.7 656.322,1277.93 661.156,1271.76 665.989,1265.19 670.822,1258.23 675.655,1250.88 680.488,1243.16 685.321,1235.05 690.154,1226.58 694.988,1217.76 699.821,1208.58 704.654,1199.06 709.487,1189.21 714.32,1179.03 719.153,1168.55 723.986,1157.76 728.82,1146.67 733.653,1135.31 738.486,1123.67 743.319,1111.78 748.152,1099.64 752.985,1087.26 757.818,1074.66 762.652,1061.85 767.485,1048.84 772.318,1035.64 777.151,1022.28 781.984,1008.75 786.817,995.08 791.65,981.277 796.484,967.357 801.317,953.332 806.15,939.218 810.983,925.027 815.816,910.775 820.649,896.475 825.482,882.142 830.316,867.79 835.149,853.433 839.982,839.086 844.815,824.763 849.648,810.478 854.481,796.247 859.314,782.082 864.148,767.998 868.981,754.01 873.814,740.131 878.647,726.375 883.48,712.756 888.313,699.288 893.147,685.984 897.98,672.857 902.813,659.922 907.646,647.19 912.479,634.675 917.312,622.39 922.145,610.346 926.979,598.556 931.812,587.032 936.645,575.786 941.478,564.829 946.311,554.173 951.144,543.828 955.977,533.805 960.811,524.115 965.644,514.768 970.477,505.773 975.31,497.14 980.143,488.878 984.976,480.997 989.809,473.504 994.643,466.409 999.476,459.72 1004.31,453.443 1009.14,447.587 1013.98,442.158 1018.81,437.164 1023.64,432.611 1028.47,428.506 1033.31,424.854 1038.14,421.662 1042.97,418.934 1047.81,416.677 1052.64,414.895 1057.47,413.594 1062.31,412.778 1067.14,412.453 1071.97,412.562 1076.81,413.001 1081.64,413.77 1086.47,414.872 1091.31,416.307 1096.14,418.078 1100.97,420.184 1105.8,422.625 1110.64,425.401 1115.47,428.511 1120.3,431.954 1125.14,435.728 1129.97,439.83 1134.8,444.259 1139.64,449.01 1144.47,454.081 1149.3,459.468 1154.14,465.165 1158.97,471.169 1163.8,477.474 1168.64,484.075 1173.47,490.966 1178.3,498.14 1183.14,505.593 1187.97,513.315 1192.8,521.301 1197.63,529.542 1202.47,538.032 1207.3,546.762 1212.13,555.723 1216.97,564.907 1221.8,574.305 1226.63,583.909 1231.47,593.708 1236.3,603.693 1241.13,613.854 1245.97,624.183 1250.8,634.667 1255.63,645.297 1260.47,656.063 1265.3,666.954 1270.13,677.958 1274.96,689.066 1279.8,700.266 1284.63,711.548 1289.46,722.898 1294.3,734.308 1299.13,745.765 1303.96,757.257 1308.8,768.773 1313.63,780.303 1318.46,791.834 1323.3,803.354 1328.13,814.852 1332.96,826.318 1337.8,837.738 1342.63,849.102 1347.46,860.398 1352.3,871.616 1357.13,882.743 1361.96,893.768 1366.79,904.681 1371.63,915.47 1376.46,926.124 1381.29,936.633 1386.13,946.985 1390.96,957.172 1395.79,967.181 1400.63,977.002 1405.46,986.627 1410.29,996.044 1415.13,1005.24 1419.96,1014.22 1424.79,1022.96 1429.63,1031.45 1434.46,1039.69 1439.29,1047.67 1444.12,1055.37 1448.96,1062.8 1453.79,1069.94 1458.62,1076.78 1463.46,1083.32 1468.29,1089.55 1473.12,1095.47 1477.96,1101.06 1482.79,1106.31 1487.62,1111.24 1492.46,1115.81 1497.29,1120.04 1502.12,1123.92 1506.96,1127.43 1511.79,1130.58 1516.62,1133.35 1521.46,1135.75 1526.29,1137.77 1531.12,1139.41 1535.95,1140.65 1540.79,1141.51 1545.62,1141.96 1550.45,1142.02 1555.29,1141.82 1560.12,1141.38 1564.95,1140.7 1569.79,1139.78 1574.62,1138.62 1579.45,1137.22 1584.29,1135.58 1589.12,1133.7 1593.95,1131.57 1598.79,1129.21 1603.62,1126.6 1608.45,1123.76 1613.28,1120.68 1618.12,1117.36 1622.95,1113.81 1627.78,1110.03 1632.62,1106.02 1637.45,1101.79 1642.28,1097.34 1647.12,1092.66 1651.95,1087.77 1656.78,1082.68 1661.62,1077.37 1666.45,1071.87 1671.28,1066.17 1676.12,1060.27 1680.95,1054.2 1685.78,1047.94 1690.62,1041.5 1695.45,1034.9 1700.28,1028.13 1705.11,1021.21 1709.95,1014.14 1714.78,1006.93 1719.61,999.576 1724.45,992.097 1729.28,984.495 1734.11,976.78 1738.95,968.957 1743.78,961.035 1748.61,953.021 1753.45,944.923 1758.28,936.75 1763.11,928.509 1767.95,920.208 1772.78,911.856 1777.61,903.46 1782.44,895.029 1787.28,886.572 1792.11,878.097 1796.94,869.612 1801.78,861.127 1806.61,852.648 1811.44,844.185 1816.28,835.746 1821.11,827.341 1825.94,818.976 1830.78,810.661 1835.61,802.405 1840.44,794.215 1845.28,786.099 1850.11,778.067 1854.94,770.126 1859.78,762.284 1864.61,754.55 1869.44,746.931 1874.27,739.436 1879.11,732.071 1883.94,724.846 1888.77,717.766 1893.61,710.841 1898.44,704.076 1903.27,697.48 1908.11,691.058 1912.94,684.819 1917.77,678.769 1922.61,672.914 1927.44,667.262 1932.27,661.818 1937.11,656.588 1941.94,651.578 1946.77,646.795 1951.6,642.244 1956.44,637.93 1961.27,633.859 1966.1,630.036 1970.94,626.465 1975.77,623.153 1980.6,620.102 1985.44,617.318 1990.27,614.806 1995.1,612.568 1999.94,610.61 2004.77,608.934 2009.6,607.545 2014.44,606.446 2019.27,605.641 2024.1,605.133 2028.94,604.924 2033.77,604.962 2038.6,605.137 2043.43,605.447 2048.27,605.894 2053.1,606.477 2057.93,607.197 2062.77,608.056 2067.6,609.052 2072.43,610.186 2077.27,611.459 2082.1,612.869 2086.93,614.417 2091.77,616.102 2096.6,617.922 2101.43,619.878 2106.27,621.968 2111.1,624.191 2115.93,626.546 2120.77,629.03 2125.6,631.643 2130.43,634.382 2135.26,637.245 2140.1,640.231 2144.93,643.336 2149.76,646.559 2154.6,649.896 2159.43,653.345 2164.26,656.904 2169.1,660.568 2173.93,664.335 2178.76,668.202 2183.6,672.165 2188.43,676.221 2193.26,680.365 2198.1,684.595 2202.93,688.905 2207.76,693.294 2212.59,697.755 2217.43,702.286 2222.26,706.881 2227.09,711.537 2231.93,716.248 2236.76,721.012 2241.59,725.822 2246.43,730.674 2251.26,735.564 2256.09,740.487 2260.93,745.438 2265.76,750.413 2270.59,755.405 2275.43,760.411 2280.26,765.425 2285.09,770.443 2289.93,775.458 2294.76,780.468 "/>
<polyline clip-path="url(#clip542)" style="stroke:#008000; stroke-linecap:round; stroke-linejoin:round; stroke-width:8; stroke-opacity:1; fill:none" stroke-dasharray="4, 8" points="361.501,823.113 366.334,837.978 371.167,852.822 376,867.632 380.833,882.398 385.666,897.107 390.5,911.747 395.333,926.308 400.166,940.778 404.999,955.147 409.832,969.404 414.665,983.539 419.498,997.541 424.332,1011.4 429.165,1025.11 433.998,1038.66 438.831,1052.04 443.664,1065.25 448.497,1078.26 453.33,1091.09 458.164,1103.71 462.997,1116.13 467.83,1128.33 472.663,1140.3 477.496,1152.05 482.329,1163.56 487.162,1174.83 491.996,1185.84 496.829,1196.61 501.662,1207.11 506.495,1217.34 511.328,1227.3 516.161,1236.98 520.994,1246.36 525.828,1255.46 530.661,1264.25 535.494,1272.73 540.327,1280.9 545.16,1288.74 549.993,1296.26 554.826,1303.44 559.66,1310.27 564.493,1316.75 569.326,1322.87 574.159,1328.61 578.992,1333.98 583.825,1338.96 588.658,1343.54 593.492,1347.71 598.325,1351.46 603.158,1354.8 607.991,1357.69 612.824,1360.14 617.657,1362.14 622.49,1363.68 627.324,1364.74 632.157,1365.32 636.99,1365.41 641.823,1365 646.656,1364.08 651.489,1362.64 656.322,1360.68 661.156,1358.18 665.989,1355.13 670.822,1351.54 675.655,1347.38 680.488,1342.67 685.321,1337.39 690.154,1331.54 694.988,1325.12 699.821,1318.13 704.654,1310.57 709.487,1302.44 714.32,1293.75 719.153,1284.49 723.986,1274.68 728.82,1264.31 733.653,1253.4 738.486,1241.96 743.319,1229.98 748.152,1217.49 752.985,1204.38 757.818,1190.68 762.652,1176.54 767.485,1162.08 772.318,1147.43 777.151,1132.66 781.984,1117.88 786.817,1103.14 791.65,1088.49 796.484,1073.98 801.317,1059.63 806.15,1045.44 810.983,1031.4 815.816,1017.49 820.649,1003.68 825.482,989.894 830.316,976.077 835.149,962.197 839.982,948.275 844.815,934.313 849.648,920.315 854.481,906.283 859.314,892.225 864.148,878.147 868.981,864.055 873.814,849.959 878.647,835.867 883.48,821.792 888.313,807.743 893.147,793.735 897.98,779.781 902.813,765.896 907.646,752.096 912.479,738.397 917.312,724.819 922.145,711.373 926.979,698.07 931.812,684.923 936.645,671.942 941.478,659.139 946.311,646.526 951.144,634.115 955.977,621.915 960.811,609.94 965.644,598.2 970.477,586.707 975.31,575.471 980.143,564.504 984.976,553.817 989.809,543.421 994.643,533.327 999.476,523.546 1004.31,514.088 1009.14,504.965 1013.98,496.188 1018.81,487.767 1023.64,479.712 1028.47,472.035 1033.31,464.746 1038.14,457.856 1042.97,451.374 1047.81,445.312 1052.64,439.663 1057.47,434.337 1062.31,429.366 1067.14,424.798 1071.97,420.676 1076.81,417.037 1081.64,413.911 1086.47,411.324 1091.31,409.295 1096.14,407.836 1100.97,406.956 1105.8,406.655 1110.64,406.929 1115.47,407.766 1120.3,409.152 1125.14,411.062 1129.97,413.469 1134.8,416.339 1139.64,419.631 1144.47,423.299 1149.3,427.291 1154.14,431.549 1158.97,436.009 1163.8,440.6 1168.64,445.248 1173.47,449.871 1178.3,454.395 1183.14,458.96 1187.97,463.648 1192.8,468.484 1197.63,473.49 1202.47,478.688 1207.3,484.094 1212.13,489.726 1216.97,495.598 1221.8,501.722 1226.63,508.106 1231.47,514.759 1236.3,521.686 1241.13,528.889 1245.97,536.37 1250.8,544.127 1255.63,552.157 1260.47,560.454 1265.3,569.009 1270.13,577.815 1274.96,586.87 1279.8,596.166 1284.63,605.694 1289.46,615.442 1294.3,625.4 1299.13,635.557 1303.96,645.903 1308.8,656.426 1313.63,667.115 1318.46,677.96 1323.3,688.949 1328.13,700.072 1332.96,711.316 1337.8,722.67 1342.63,734.123 1347.46,745.663 1352.3,757.279 1357.13,768.959 1361.96,780.691 1366.79,792.463 1371.63,804.263 1376.46,816.079 1381.29,827.899 1386.13,839.711 1390.96,851.502 1395.79,863.26 1400.63,874.973 1405.46,886.628 1410.29,898.212 1415.13,909.713 1419.96,921.117 1424.79,932.414 1429.63,943.597 1434.46,954.657 1439.29,965.583 1444.12,976.365 1448.96,986.992 1453.79,997.456 1458.62,1007.75 1463.46,1017.85 1468.29,1027.76 1473.12,1037.47 1477.96,1046.97 1482.79,1056.25 1487.62,1065.3 1492.46,1074.1 1497.29,1082.67 1502.12,1090.97 1506.96,1099.01 1511.79,1106.78 1516.62,1114.27 1521.46,1121.47 1526.29,1128.37 1531.12,1134.97 1535.95,1141.27 1540.79,1147.25 1545.62,1152.91 1550.45,1158.24 1555.29,1163.22 1560.12,1167.85 1564.95,1172.11 1569.79,1176 1574.62,1179.5 1579.45,1182.62 1584.29,1185.33 1589.12,1187.64 1593.95,1189.53 1598.79,1190.99 1603.62,1192.03 1608.45,1192.63 1613.28,1192.79 1618.12,1192.51 1622.95,1191.77 1627.78,1190.57 1632.62,1188.92 1637.45,1186.79 1642.28,1184.2 1647.12,1181.14 1651.95,1177.61 1656.78,1173.6 1661.62,1169.11 1666.45,1164.14 1671.28,1158.69 1676.12,1152.76 1680.95,1146.37 1685.78,1139.51 1690.62,1132.19 1695.45,1124.4 1700.28,1116.15 1705.11,1107.44 1709.95,1098.3 1714.78,1088.75 1719.61,1078.8 1724.45,1068.48 1729.28,1057.82 1734.11,1046.87 1738.95,1035.66 1743.78,1024.22 1748.61,1012.63 1753.45,1000.91 1758.28,989.14 1763.11,977.37 1767.95,965.667 1772.78,954.1 1777.61,942.728 1782.44,931.509 1787.28,920.423 1792.11,909.46 1796.94,898.613 1801.78,887.874 1806.61,877.236 1811.44,866.695 1816.28,856.247 1821.11,845.889 1825.94,835.619 1830.78,825.436 1835.61,815.342 1840.44,805.338 1845.28,795.427 1850.11,785.612 1854.94,775.899 1859.78,766.295 1864.61,756.805 1869.44,747.439 1874.27,738.207 1879.11,729.119 1883.94,720.186 1888.77,711.422 1893.61,702.841 1898.44,694.449 1903.27,686.255 1908.11,678.27 1912.94,670.506 1917.77,662.971 1922.61,655.675 1927.44,648.629 1932.27,641.838 1937.11,635.313 1941.94,629.059 1946.77,623.084 1951.6,617.394 1956.44,611.994 1961.27,606.89 1966.1,602.085 1970.94,597.585 1975.77,593.391 1980.6,589.508 1985.44,585.936 1990.27,582.679 1995.1,579.737 1999.94,577.111 2004.77,574.8 2009.6,572.805 2014.44,571.124 2019.27,569.761 2024.1,568.692 2028.94,567.893 2033.77,567.341 2038.6,567.018 2043.43,566.903 2048.27,566.982 2053.1,567.24 2057.93,567.664 2062.77,568.246 2067.6,568.977 2072.43,569.851 2077.27,570.865 2082.1,572.016 2086.93,573.306 2091.77,574.736 2096.6,576.31 2101.43,578.036 2106.27,579.923 2111.1,581.979 2115.93,584.219 2120.77,586.654 2125.6,589.278 2130.43,592.095 2135.26,595.11 2140.1,598.326 2144.93,601.747 2149.76,605.374 2154.6,609.211 2159.43,613.257 2164.26,617.514 2169.1,621.981 2173.93,626.656 2178.76,631.539 2183.6,636.626 2188.43,641.915 2193.26,647.402 2198.1,653.083 2202.93,658.952 2207.76,665.003 2212.59,671.23 2217.43,677.626 2222.26,684.183 2227.09,690.893 2231.93,697.749 2236.76,704.745 2241.59,711.872 2246.43,719.122 2251.26,726.486 2256.09,733.955 2260.93,741.521 2265.76,749.175 2270.59,756.908 2275.43,764.709 2280.26,772.571 2285.09,780.483 2289.93,788.436 2294.76,796.419 "/>
<path clip-path="url(#clip540)" d="M1444.66 477.116 L2284.45 477.116 L2284.45 166.076 L1444.66 166.076  Z" fill="#ffffff" fill-rule="evenodd" fill-opacity="1"/>
<polyline clip-path="url(#clip540)" style="stroke:#000000; stroke-linecap:round; stroke-linejoin:round; stroke-width:4; stroke-opacity:1; fill:none" points="1444.66,477.116 2284.45,477.116 2284.45,166.076 1444.66,166.076 1444.66,477.116 "/>
<polyline clip-path="url(#clip540)" style="stroke:#009af9; stroke-linecap:round; stroke-linejoin:round; stroke-width:12; stroke-opacity:1; fill:none" points="1467.43,243.836 1604.05,243.836 "/>
<path clip-path="url(#clip540)" d="M1660.19 219.617 L1660.19 226.457 Q1656.2 224.548 1652.65 223.61 Q1649.11 222.673 1645.81 222.673 Q1640.08 222.673 1636.96 224.895 Q1633.87 227.117 1633.87 231.214 Q1633.87 234.652 1635.92 236.423 Q1638 238.159 1643.76 239.235 L1648 240.103 Q1655.85 241.596 1659.56 245.381 Q1663.31 249.131 1663.31 255.45 Q1663.31 262.985 1658.24 266.874 Q1653.21 270.763 1643.45 270.763 Q1639.77 270.763 1635.6 269.929 Q1631.47 269.096 1627.03 267.464 L1627.03 260.242 Q1631.3 262.638 1635.4 263.853 Q1639.49 265.068 1643.45 265.068 Q1649.46 265.068 1652.72 262.707 Q1655.99 260.346 1655.99 255.971 Q1655.99 252.152 1653.63 249.999 Q1651.3 247.846 1645.95 246.77 L1641.68 245.936 Q1633.83 244.374 1630.33 241.041 Q1626.82 237.707 1626.82 231.77 Q1626.82 224.895 1631.65 220.937 Q1636.51 216.978 1645.01 216.978 Q1648.66 216.978 1652.45 217.638 Q1656.23 218.298 1660.19 219.617 Z" fill="#000000" fill-rule="nonzero" fill-opacity="1" /><path clip-path="url(#clip540)" d="M1673.97 230.867 L1680.36 230.867 L1680.36 269.756 L1673.97 269.756 L1673.97 230.867 M1673.97 215.728 L1680.36 215.728 L1680.36 223.818 L1673.97 223.818 L1673.97 215.728 Z" fill="#000000" fill-rule="nonzero" fill-opacity="1" /><path clip-path="url(#clip540)" d="M1724.01 238.332 Q1726.4 234.027 1729.74 231.978 Q1733.07 229.93 1737.58 229.93 Q1743.66 229.93 1746.96 234.2 Q1750.26 238.436 1750.26 246.284 L1750.26 269.756 L1743.83 269.756 L1743.83 246.492 Q1743.83 240.902 1741.85 238.193 Q1739.88 235.485 1735.81 235.485 Q1730.85 235.485 1727.97 238.784 Q1725.08 242.082 1725.08 247.777 L1725.08 269.756 L1718.66 269.756 L1718.66 246.492 Q1718.66 240.867 1716.68 238.193 Q1714.7 235.485 1710.57 235.485 Q1705.67 235.485 1702.79 238.818 Q1699.91 242.117 1699.91 247.777 L1699.91 269.756 L1693.49 269.756 L1693.49 230.867 L1699.91 230.867 L1699.91 236.909 Q1702.1 233.332 1705.15 231.631 Q1708.21 229.93 1712.41 229.93 Q1716.65 229.93 1719.6 232.082 Q1722.58 234.235 1724.01 238.332 Z" fill="#000000" fill-rule="nonzero" fill-opacity="1" /><path clip-path="url(#clip540)" d="M1769.18 263.922 L1769.18 284.547 L1762.76 284.547 L1762.76 230.867 L1769.18 230.867 L1769.18 236.77 Q1771.19 233.298 1774.25 231.631 Q1777.34 229.93 1781.61 229.93 Q1788.69 229.93 1793.1 235.555 Q1797.55 241.179 1797.55 250.346 Q1797.55 259.513 1793.1 265.138 Q1788.69 270.763 1781.61 270.763 Q1777.34 270.763 1774.25 269.096 Q1771.19 267.395 1769.18 263.922 M1790.92 250.346 Q1790.92 243.298 1788 239.304 Q1785.12 235.277 1780.05 235.277 Q1774.98 235.277 1772.06 239.304 Q1769.18 243.298 1769.18 250.346 Q1769.18 257.395 1772.06 261.422 Q1774.98 265.415 1780.05 265.415 Q1785.12 265.415 1788 261.422 Q1790.92 257.395 1790.92 250.346 Z" fill="#000000" fill-rule="nonzero" fill-opacity="1" /><path clip-path="url(#clip540)" d="M1808.14 215.728 L1814.53 215.728 L1814.53 269.756 L1808.14 269.756 L1808.14 215.728 Z" fill="#000000" fill-rule="nonzero" fill-opacity="1" /><path clip-path="url(#clip540)" d="M1861.16 248.714 L1861.16 251.839 L1831.78 251.839 Q1832.2 258.436 1835.74 261.909 Q1839.32 265.346 1845.67 265.346 Q1849.35 265.346 1852.79 264.443 Q1856.26 263.54 1859.67 261.735 L1859.67 267.777 Q1856.23 269.235 1852.62 269.999 Q1849.01 270.763 1845.29 270.763 Q1835.99 270.763 1830.53 265.346 Q1825.12 259.929 1825.12 250.693 Q1825.12 241.145 1830.26 235.555 Q1835.43 229.93 1844.18 229.93 Q1852.03 229.93 1856.58 234.999 Q1861.16 240.034 1861.16 248.714 M1854.77 246.839 Q1854.7 241.596 1851.82 238.471 Q1848.97 235.346 1844.25 235.346 Q1838.9 235.346 1835.67 238.367 Q1832.48 241.388 1831.99 246.874 L1854.77 246.839 Z" fill="#000000" fill-rule="nonzero" fill-opacity="1" /><path clip-path="url(#clip540)" d="M1871.92 217.916 L1901.71 217.916 L1901.71 223.818 L1878.94 223.818 L1878.94 239.096 L1899.49 239.096 L1899.49 244.999 L1878.94 244.999 L1878.94 269.756 L1871.92 269.756 L1871.92 217.916 Z" fill="#000000" fill-rule="nonzero" fill-opacity="1" /><path clip-path="url(#clip540)" d="M1912.83 217.916 L1923.28 217.916 L1936.51 253.193 L1949.8 217.916 L1960.26 217.916 L1960.26 269.756 L1953.42 269.756 L1953.42 224.235 L1940.05 259.79 L1933 259.79 L1919.63 224.235 L1919.63 269.756 L1912.83 269.756 L1912.83 217.916 Z" fill="#000000" fill-rule="nonzero" fill-opacity="1" /><path clip-path="url(#clip540)" d="M1973.38 217.916 L1980.43 217.916 L1980.43 249.409 Q1980.43 257.742 1983.45 261.422 Q1986.47 265.068 1993.24 265.068 Q1999.98 265.068 2003 261.422 Q2006.02 257.742 2006.02 249.409 L2006.02 217.916 L2013.07 217.916 L2013.07 250.277 Q2013.07 260.415 2008.03 265.589 Q2003.03 270.763 1993.24 270.763 Q1983.42 270.763 1978.38 265.589 Q1973.38 260.415 1973.38 250.277 L1973.38 217.916 Z" fill="#000000" fill-rule="nonzero" fill-opacity="1" /><polyline clip-path="url(#clip540)" style="stroke:#e26f46; stroke-linecap:round; stroke-linejoin:round; stroke-width:12; stroke-opacity:1; fill:none" points="1467.43,321.596 1604.05,321.596 "/>
<path clip-path="url(#clip540)" d="M1651.4 323.21 Q1653.66 323.974 1655.78 326.474 Q1657.93 328.974 1660.08 333.349 L1667.2 347.516 L1659.67 347.516 L1653.04 334.217 Q1650.47 329.009 1648.04 327.307 Q1645.64 325.606 1641.47 325.606 L1633.83 325.606 L1633.83 347.516 L1626.82 347.516 L1626.82 295.676 L1642.65 295.676 Q1651.54 295.676 1655.92 299.391 Q1660.29 303.106 1660.29 310.606 Q1660.29 315.502 1658 318.731 Q1655.74 321.96 1651.4 323.21 M1633.83 301.44 L1633.83 319.842 L1642.65 319.842 Q1647.72 319.842 1650.29 317.516 Q1652.9 315.155 1652.9 310.606 Q1652.9 306.058 1650.29 303.766 Q1647.72 301.44 1642.65 301.44 L1633.83 301.44 Z" fill="#000000" fill-rule="nonzero" fill-opacity="1" /><path clip-path="url(#clip540)" d="M1706.02 326.474 L1706.02 329.599 L1676.65 329.599 Q1677.06 336.196 1680.6 339.669 Q1684.18 343.106 1690.54 343.106 Q1694.22 343.106 1697.65 342.203 Q1701.13 341.3 1704.53 339.495 L1704.53 345.537 Q1701.09 346.995 1697.48 347.759 Q1693.87 348.523 1690.15 348.523 Q1680.85 348.523 1675.4 343.106 Q1669.98 337.689 1669.98 328.453 Q1669.98 318.905 1675.12 313.315 Q1680.29 307.69 1689.04 307.69 Q1696.89 307.69 1701.44 312.759 Q1706.02 317.794 1706.02 326.474 M1699.63 324.599 Q1699.56 319.356 1696.68 316.231 Q1693.83 313.106 1689.11 313.106 Q1683.76 313.106 1680.54 316.127 Q1677.34 319.148 1676.85 324.634 L1699.63 324.599 Z" fill="#000000" fill-rule="nonzero" fill-opacity="1" /><path clip-path="url(#clip540)" d="M1736.19 293.488 L1736.19 298.801 L1730.08 298.801 Q1726.65 298.801 1725.29 300.19 Q1723.97 301.578 1723.97 305.19 L1723.97 308.627 L1734.49 308.627 L1734.49 313.592 L1723.97 313.592 L1723.97 347.516 L1717.55 347.516 L1717.55 313.592 L1711.44 313.592 L1711.44 308.627 L1717.55 308.627 L1717.55 305.919 Q1717.55 299.426 1720.57 296.474 Q1723.59 293.488 1730.15 293.488 L1736.19 293.488 Z" fill="#000000" fill-rule="nonzero" fill-opacity="1" /><path clip-path="url(#clip540)" d="M1774.81 326.474 L1774.81 329.599 L1745.43 329.599 Q1745.85 336.196 1749.39 339.669 Q1752.97 343.106 1759.32 343.106 Q1763 343.106 1766.44 342.203 Q1769.91 341.3 1773.31 339.495 L1773.31 345.537 Q1769.88 346.995 1766.26 347.759 Q1762.65 348.523 1758.94 348.523 Q1749.63 348.523 1744.18 343.106 Q1738.76 337.689 1738.76 328.453 Q1738.76 318.905 1743.9 313.315 Q1749.08 307.69 1757.83 307.69 Q1765.67 307.69 1770.22 312.759 Q1774.81 317.794 1774.81 326.474 M1768.42 324.599 Q1768.35 319.356 1765.47 316.231 Q1762.62 313.106 1757.9 313.106 Q1752.55 313.106 1749.32 316.127 Q1746.13 319.148 1745.64 324.634 L1768.42 324.599 Z" fill="#000000" fill-rule="nonzero" fill-opacity="1" /><path clip-path="url(#clip540)" d="M1807.83 314.599 Q1806.75 313.974 1805.47 313.696 Q1804.22 313.384 1802.69 313.384 Q1797.27 313.384 1794.35 316.926 Q1791.47 320.433 1791.47 327.03 L1791.47 347.516 L1785.05 347.516 L1785.05 308.627 L1791.47 308.627 L1791.47 314.669 Q1793.49 311.127 1796.72 309.426 Q1799.94 307.69 1804.56 307.69 Q1805.22 307.69 1806.02 307.794 Q1806.82 307.863 1807.79 308.037 L1807.83 314.599 Z" fill="#000000" fill-rule="nonzero" fill-opacity="1" /><path clip-path="url(#clip540)" d="M1846.23 326.474 L1846.23 329.599 L1816.85 329.599 Q1817.27 336.196 1820.81 339.669 Q1824.39 343.106 1830.74 343.106 Q1834.42 343.106 1837.86 342.203 Q1841.33 341.3 1844.74 339.495 L1844.74 345.537 Q1841.3 346.995 1837.69 347.759 Q1834.08 348.523 1830.36 348.523 Q1821.06 348.523 1815.6 343.106 Q1810.19 337.689 1810.19 328.453 Q1810.19 318.905 1815.33 313.315 Q1820.5 307.69 1829.25 307.69 Q1837.1 307.69 1841.65 312.759 Q1846.23 317.794 1846.23 326.474 M1839.84 324.599 Q1839.77 319.356 1836.89 316.231 Q1834.04 313.106 1829.32 313.106 Q1823.97 313.106 1820.74 316.127 Q1817.55 319.148 1817.06 324.634 L1839.84 324.599 Z" fill="#000000" fill-rule="nonzero" fill-opacity="1" /><path clip-path="url(#clip540)" d="M1889.04 324.044 L1889.04 347.516 L1882.65 347.516 L1882.65 324.252 Q1882.65 318.731 1880.5 315.988 Q1878.35 313.245 1874.04 313.245 Q1868.87 313.245 1865.88 316.544 Q1862.9 319.842 1862.9 325.537 L1862.9 347.516 L1856.47 347.516 L1856.47 308.627 L1862.9 308.627 L1862.9 314.669 Q1865.19 311.162 1868.28 309.426 Q1871.4 307.69 1875.46 307.69 Q1882.17 307.69 1885.6 311.856 Q1889.04 315.988 1889.04 324.044 Z" fill="#000000" fill-rule="nonzero" fill-opacity="1" /><path clip-path="url(#clip540)" d="M1929.77 310.12 L1929.77 316.092 Q1927.06 314.599 1924.32 313.87 Q1921.61 313.106 1918.83 313.106 Q1912.62 313.106 1909.18 317.064 Q1905.74 320.988 1905.74 328.106 Q1905.74 335.224 1909.18 339.182 Q1912.62 343.106 1918.83 343.106 Q1921.61 343.106 1924.32 342.377 Q1927.06 341.613 1929.77 340.12 L1929.77 346.023 Q1927.1 347.273 1924.21 347.898 Q1921.37 348.523 1918.14 348.523 Q1909.35 348.523 1904.18 343.002 Q1899.01 337.481 1899.01 328.106 Q1899.01 318.592 1904.21 313.141 Q1909.46 307.69 1918.55 307.69 Q1921.51 307.69 1924.32 308.315 Q1927.13 308.905 1929.77 310.12 Z" fill="#000000" fill-rule="nonzero" fill-opacity="1" /><path clip-path="url(#clip540)" d="M1974.14 326.474 L1974.14 329.599 L1944.77 329.599 Q1945.19 336.196 1948.73 339.669 Q1952.3 343.106 1958.66 343.106 Q1962.34 343.106 1965.78 342.203 Q1969.25 341.3 1972.65 339.495 L1972.65 345.537 Q1969.21 346.995 1965.6 347.759 Q1961.99 348.523 1958.28 348.523 Q1948.97 348.523 1943.52 343.106 Q1938.1 337.689 1938.1 328.453 Q1938.1 318.905 1943.24 313.315 Q1948.42 307.69 1957.17 307.69 Q1965.01 307.69 1969.56 312.759 Q1974.14 317.794 1974.14 326.474 M1967.76 324.599 Q1967.69 319.356 1964.8 316.231 Q1961.96 313.106 1957.24 313.106 Q1951.89 313.106 1948.66 316.127 Q1945.46 319.148 1944.98 324.634 L1967.76 324.599 Z" fill="#000000" fill-rule="nonzero" fill-opacity="1" /><polyline clip-path="url(#clip540)" style="stroke:#008000; stroke-linecap:round; stroke-linejoin:round; stroke-width:12; stroke-opacity:1; fill:none" stroke-dasharray="6, 12" points="1467.43,399.356 1604.05,399.356 "/>
<path clip-path="url(#clip540)" d="M1626.82 373.436 L1636.26 373.436 L1659.25 416.804 L1659.25 373.436 L1666.06 373.436 L1666.06 425.276 L1656.61 425.276 L1633.63 381.908 L1633.63 425.276 L1626.82 425.276 L1626.82 373.436 Z" fill="#000000" fill-rule="nonzero" fill-opacity="1" /><path clip-path="url(#clip540)" d="M1713 404.234 L1713 407.359 L1683.63 407.359 Q1684.04 413.956 1687.58 417.429 Q1691.16 420.866 1697.51 420.866 Q1701.19 420.866 1704.63 419.963 Q1708.1 419.06 1711.51 417.255 L1711.51 423.297 Q1708.07 424.755 1704.46 425.519 Q1700.85 426.283 1697.13 426.283 Q1687.83 426.283 1682.38 420.866 Q1676.96 415.449 1676.96 406.213 Q1676.96 396.665 1682.1 391.075 Q1687.27 385.45 1696.02 385.45 Q1703.87 385.45 1708.42 390.519 Q1713 395.554 1713 404.234 M1706.61 402.359 Q1706.54 397.116 1703.66 393.991 Q1700.81 390.866 1696.09 390.866 Q1690.74 390.866 1687.51 393.887 Q1684.32 396.908 1683.83 402.394 L1706.61 402.359 Z" fill="#000000" fill-rule="nonzero" fill-opacity="1" /><path clip-path="url(#clip540)" d="M1722.83 409.929 L1722.83 386.387 L1729.22 386.387 L1729.22 409.686 Q1729.22 415.206 1731.37 417.984 Q1733.52 420.727 1737.83 420.727 Q1743 420.727 1745.99 417.429 Q1749.01 414.13 1749.01 408.436 L1749.01 386.387 L1755.4 386.387 L1755.4 425.276 L1749.01 425.276 L1749.01 419.304 Q1746.68 422.845 1743.59 424.581 Q1740.53 426.283 1736.47 426.283 Q1729.77 426.283 1726.3 422.116 Q1722.83 417.949 1722.83 409.929 M1738.9 385.45 L1738.9 385.45 Z" fill="#000000" fill-rule="nonzero" fill-opacity="1" /><path clip-path="url(#clip540)" d="M1791.09 392.359 Q1790.01 391.734 1788.73 391.456 Q1787.48 391.144 1785.95 391.144 Q1780.53 391.144 1777.62 394.686 Q1774.74 398.193 1774.74 404.79 L1774.74 425.276 L1768.31 425.276 L1768.31 386.387 L1774.74 386.387 L1774.74 392.429 Q1776.75 388.887 1779.98 387.186 Q1783.21 385.45 1787.83 385.45 Q1788.49 385.45 1789.28 385.554 Q1790.08 385.623 1791.06 385.797 L1791.09 392.359 Z" fill="#000000" fill-rule="nonzero" fill-opacity="1" /><path clip-path="url(#clip540)" d="M1815.47 405.727 Q1807.72 405.727 1804.74 407.498 Q1801.75 409.269 1801.75 413.54 Q1801.75 416.942 1803.97 418.956 Q1806.23 420.935 1810.08 420.935 Q1815.4 420.935 1818.59 417.185 Q1821.82 413.401 1821.82 407.151 L1821.82 405.727 L1815.47 405.727 M1828.21 403.088 L1828.21 425.276 L1821.82 425.276 L1821.82 419.373 Q1819.63 422.915 1816.37 424.616 Q1813.1 426.283 1808.38 426.283 Q1802.41 426.283 1798.87 422.949 Q1795.36 419.581 1795.36 413.956 Q1795.36 407.394 1799.74 404.061 Q1804.15 400.727 1812.86 400.727 L1821.82 400.727 L1821.82 400.102 Q1821.82 395.693 1818.9 393.297 Q1816.02 390.866 1810.78 390.866 Q1807.44 390.866 1804.28 391.665 Q1801.12 392.463 1798.21 394.061 L1798.21 388.158 Q1801.72 386.804 1805.01 386.144 Q1808.31 385.45 1811.44 385.45 Q1819.87 385.45 1824.04 389.825 Q1828.21 394.199 1828.21 403.088 Z" fill="#000000" fill-rule="nonzero" fill-opacity="1" /><path clip-path="url(#clip540)" d="M1841.37 371.248 L1847.76 371.248 L1847.76 425.276 L1841.37 425.276 L1841.37 371.248 Z" fill="#000000" fill-rule="nonzero" fill-opacity="1" /><path clip-path="url(#clip540)" d="M1861.4 373.436 L1891.19 373.436 L1891.19 379.338 L1868.42 379.338 L1868.42 394.616 L1888.97 394.616 L1888.97 400.519 L1868.42 400.519 L1868.42 425.276 L1861.4 425.276 L1861.4 373.436 Z" fill="#000000" fill-rule="nonzero" fill-opacity="1" /><path clip-path="url(#clip540)" d="M1902.3 373.436 L1912.76 373.436 L1925.99 408.713 L1939.28 373.436 L1949.74 373.436 L1949.74 425.276 L1942.89 425.276 L1942.89 379.755 L1929.53 415.31 L1922.48 415.31 L1909.11 379.755 L1909.11 425.276 L1902.3 425.276 L1902.3 373.436 Z" fill="#000000" fill-rule="nonzero" fill-opacity="1" /><path clip-path="url(#clip540)" d="M1962.86 373.436 L1969.91 373.436 L1969.91 404.929 Q1969.91 413.262 1972.93 416.942 Q1975.95 420.588 1982.72 420.588 Q1989.46 420.588 1992.48 416.942 Q1995.5 413.262 1995.5 404.929 L1995.5 373.436 L2002.55 373.436 L2002.55 405.797 Q2002.55 415.935 1997.51 421.109 Q1992.51 426.283 1982.72 426.283 Q1972.89 426.283 1967.86 421.109 Q1962.86 415.935 1962.86 405.797 L1962.86 373.436 Z" fill="#000000" fill-rule="nonzero" fill-opacity="1" /><path clip-path="url(#clip540)" d="M2053.38 371.318 Q2048.73 379.304 2046.47 387.116 Q2044.21 394.929 2044.21 402.949 Q2044.21 410.97 2046.47 418.852 Q2048.76 426.699 2053.38 434.651 L2047.82 434.651 Q2042.62 426.491 2040.01 418.609 Q2037.44 410.727 2037.44 402.949 Q2037.44 395.206 2040.01 387.359 Q2042.58 379.512 2047.82 371.318 L2053.38 371.318 Z" fill="#000000" fill-rule="nonzero" fill-opacity="1" /><path clip-path="url(#clip540)" d="M2072.72 419.373 L2097.2 419.373 L2097.2 425.276 L2064.28 425.276 L2064.28 419.373 Q2068.28 415.241 2075.15 408.297 Q2082.06 401.318 2083.83 399.304 Q2087.2 395.519 2088.52 392.915 Q2089.87 390.276 2089.87 387.741 Q2089.87 383.609 2086.96 381.005 Q2084.07 378.401 2079.42 378.401 Q2076.12 378.401 2072.44 379.547 Q2068.8 380.693 2064.63 383.019 L2064.63 375.936 Q2068.87 374.234 2072.55 373.366 Q2076.23 372.498 2079.28 372.498 Q2087.34 372.498 2092.13 376.526 Q2096.92 380.554 2096.92 387.29 Q2096.92 390.484 2095.71 393.366 Q2094.53 396.213 2091.37 400.102 Q2090.5 401.109 2085.85 405.936 Q2081.19 410.727 2072.72 419.373 Z" fill="#000000" fill-rule="nonzero" fill-opacity="1" /><path clip-path="url(#clip540)" d="M2111.99 373.436 L2139.53 373.436 L2139.53 379.338 L2118.41 379.338 L2118.41 392.047 Q2119.94 391.526 2121.47 391.283 Q2123 391.005 2124.53 391.005 Q2133.21 391.005 2138.28 395.762 Q2143.35 400.519 2143.35 408.644 Q2143.35 417.012 2138.14 421.665 Q2132.93 426.283 2123.45 426.283 Q2120.19 426.283 2116.78 425.727 Q2113.41 425.172 2109.8 424.06 L2109.8 417.012 Q2112.93 418.713 2116.26 419.547 Q2119.6 420.38 2123.31 420.38 Q2129.32 420.38 2132.82 417.22 Q2136.33 414.06 2136.33 408.644 Q2136.33 403.227 2132.82 400.068 Q2129.32 396.908 2123.31 396.908 Q2120.5 396.908 2117.69 397.533 Q2114.91 398.158 2111.99 399.477 L2111.99 373.436 Z" fill="#000000" fill-rule="nonzero" fill-opacity="1" /><path clip-path="url(#clip540)" d="M2172.16 378.054 Q2166.75 378.054 2164 383.401 Q2161.3 388.713 2161.3 399.408 Q2161.3 410.067 2164 415.415 Q2166.75 420.727 2172.16 420.727 Q2177.62 420.727 2180.32 415.415 Q2183.07 410.067 2183.07 399.408 Q2183.07 388.713 2180.32 383.401 Q2177.62 378.054 2172.16 378.054 M2172.16 372.498 Q2180.88 372.498 2185.46 379.408 Q2190.08 386.283 2190.08 399.408 Q2190.08 412.498 2185.46 419.408 Q2180.88 426.283 2172.16 426.283 Q2163.45 426.283 2158.83 419.408 Q2154.25 412.498 2154.25 399.408 Q2154.25 386.283 2158.83 379.408 Q2163.45 372.498 2172.16 372.498 Z" fill="#000000" fill-rule="nonzero" fill-opacity="1" /><path clip-path="url(#clip540)" d="M2217.41 378.054 Q2211.99 378.054 2209.25 383.401 Q2206.54 388.713 2206.54 399.408 Q2206.54 410.067 2209.25 415.415 Q2211.99 420.727 2217.41 420.727 Q2222.86 420.727 2225.57 415.415 Q2228.31 410.067 2228.31 399.408 Q2228.31 388.713 2225.57 383.401 Q2222.86 378.054 2217.41 378.054 M2217.41 372.498 Q2226.12 372.498 2230.71 379.408 Q2235.32 386.283 2235.32 399.408 Q2235.32 412.498 2230.71 419.408 Q2226.12 426.283 2217.41 426.283 Q2208.69 426.283 2204.07 419.408 Q2199.49 412.498 2199.49 399.408 Q2199.49 386.283 2204.07 379.408 Q2208.69 372.498 2217.41 372.498 Z" fill="#000000" fill-rule="nonzero" fill-opacity="1" /><path clip-path="url(#clip540)" d="M2245.74 371.318 L2251.3 371.318 Q2256.5 379.512 2259.07 387.359 Q2261.68 395.206 2261.68 402.949 Q2261.68 410.727 2259.07 418.609 Q2256.5 426.491 2251.3 434.651 L2245.74 434.651 Q2250.36 426.699 2252.62 418.852 Q2254.91 410.97 2254.91 402.949 Q2254.91 394.929 2252.62 387.116 Q2250.36 379.304 2245.74 371.318 Z" fill="#000000" fill-rule="nonzero" fill-opacity="1" /></svg>
