<?xml version="1.0" encoding="utf-8"?>
<svg xmlns="http://www.w3.org/2000/svg" xmlns:xlink="http://www.w3.org/1999/xlink" width="600" height="400" viewBox="0 0 2400 1600">
<defs>
  <clipPath id="clip810">
    <rect x="0" y="0" width="2400" height="1600"/>
  </clipPath>
</defs>
<path clip-path="url(#clip810)" d="M0 1600 L2400 1600 L2400 0 L0 0  Z" fill="#ffffff" fill-rule="evenodd" fill-opacity="1"/>
<defs>
  <clipPath id="clip811">
    <rect x="480" y="0" width="1681" height="1600"/>
  </clipPath>
</defs>
<path clip-path="url(#clip810)" d="M247.878 1401.58 L2352.76 1401.58 L2352.76 123.472 L247.878 123.472  Z" fill="#ffffff" fill-rule="evenodd" fill-opacity="1"/>
<defs>
  <clipPath id="clip812">
    <rect x="247" y="123" width="2106" height="1279"/>
  </clipPath>
</defs>
<polyline clip-path="url(#clip812)" style="stroke:#000000; stroke-linecap:round; stroke-linejoin:round; stroke-width:2; stroke-opacity:0.1; fill:none" points="458.366,1401.58 458.366,123.472 "/>
<polyline clip-path="url(#clip812)" style="stroke:#000000; stroke-linecap:round; stroke-linejoin:round; stroke-width:2; stroke-opacity:0.1; fill:none" points="879.342,1401.58 879.342,123.472 "/>
<polyline clip-path="url(#clip812)" style="stroke:#000000; stroke-linecap:round; stroke-linejoin:round; stroke-width:2; stroke-opacity:0.1; fill:none" points="1300.32,1401.58 1300.32,123.472 "/>
<polyline clip-path="url(#clip812)" style="stroke:#000000; stroke-linecap:round; stroke-linejoin:round; stroke-width:2; stroke-opacity:0.1; fill:none" points="1721.29,1401.58 1721.29,123.472 "/>
<polyline clip-path="url(#clip812)" style="stroke:#000000; stroke-linecap:round; stroke-linejoin:round; stroke-width:2; stroke-opacity:0.1; fill:none" points="2142.27,1401.58 2142.27,123.472 "/>
<polyline clip-path="url(#clip812)" style="stroke:#000000; stroke-linecap:round; stroke-linejoin:round; stroke-width:2; stroke-opacity:0.1; fill:none" points="247.878,1297.9 2352.76,1297.9 "/>
<polyline clip-path="url(#clip812)" style="stroke:#000000; stroke-linecap:round; stroke-linejoin:round; stroke-width:2; stroke-opacity:0.1; fill:none" points="247.878,1055.25 2352.76,1055.25 "/>
<polyline clip-path="url(#clip812)" style="stroke:#000000; stroke-linecap:round; stroke-linejoin:round; stroke-width:2; stroke-opacity:0.1; fill:none" points="247.878,812.592 2352.76,812.592 "/>
<polyline clip-path="url(#clip812)" style="stroke:#000000; stroke-linecap:round; stroke-linejoin:round; stroke-width:2; stroke-opacity:0.1; fill:none" points="247.878,569.935 2352.76,569.935 "/>
<polyline clip-path="url(#clip812)" style="stroke:#000000; stroke-linecap:round; stroke-linejoin:round; stroke-width:2; stroke-opacity:0.1; fill:none" points="247.878,327.279 2352.76,327.279 "/>
<polyline clip-path="url(#clip810)" style="stroke:#000000; stroke-linecap:round; stroke-linejoin:round; stroke-width:4; stroke-opacity:1; fill:none" points="247.878,1401.58 2352.76,1401.58 "/>
<polyline clip-path="url(#clip810)" style="stroke:#000000; stroke-linecap:round; stroke-linejoin:round; stroke-width:4; stroke-opacity:1; fill:none" points="458.366,1401.58 458.366,1382.68 "/>
<polyline clip-path="url(#clip810)" style="stroke:#000000; stroke-linecap:round; stroke-linejoin:round; stroke-width:4; stroke-opacity:1; fill:none" points="879.342,1401.58 879.342,1382.68 "/>
<polyline clip-path="url(#clip810)" style="stroke:#000000; stroke-linecap:round; stroke-linejoin:round; stroke-width:4; stroke-opacity:1; fill:none" points="1300.32,1401.58 1300.32,1382.68 "/>
<polyline clip-path="url(#clip810)" style="stroke:#000000; stroke-linecap:round; stroke-linejoin:round; stroke-width:4; stroke-opacity:1; fill:none" points="1721.29,1401.58 1721.29,1382.68 "/>
<polyline clip-path="url(#clip810)" style="stroke:#000000; stroke-linecap:round; stroke-linejoin:round; stroke-width:4; stroke-opacity:1; fill:none" points="2142.27,1401.58 2142.27,1382.68 "/>
<path clip-path="url(#clip810)" d="M378.158 1460.34 L422.672 1460.34 L422.672 1466.24 L378.158 1466.24 L378.158 1460.34 Z" fill="#000000" fill-rule="nonzero" fill-opacity="1" /><path clip-path="url(#clip810)" d="M439.026 1479.68 L450.484 1479.68 L450.484 1440.13 L438.019 1442.63 L438.019 1436.24 L450.415 1433.74 L457.429 1433.74 L457.429 1479.68 L468.887 1479.68 L468.887 1485.58 L439.026 1485.58 L439.026 1479.68 Z" fill="#000000" fill-rule="nonzero" fill-opacity="1" /><path clip-path="url(#clip810)" d="M483.053 1476.76 L490.38 1476.76 L490.38 1485.58 L483.053 1485.58 L483.053 1476.76 Z" fill="#000000" fill-rule="nonzero" fill-opacity="1" /><path clip-path="url(#clip810)" d="M520.657 1438.36 Q515.241 1438.36 512.498 1443.71 Q509.789 1449.02 509.789 1459.71 Q509.789 1470.37 512.498 1475.72 Q515.241 1481.03 520.657 1481.03 Q526.109 1481.03 528.817 1475.72 Q531.56 1470.37 531.56 1459.71 Q531.56 1449.02 528.817 1443.71 Q526.109 1438.36 520.657 1438.36 M520.657 1432.8 Q529.373 1432.8 533.956 1439.71 Q538.574 1446.59 538.574 1459.71 Q538.574 1472.8 533.956 1479.71 Q529.373 1486.59 520.657 1486.59 Q511.942 1486.59 507.324 1479.71 Q502.741 1472.8 502.741 1459.71 Q502.741 1446.59 507.324 1439.71 Q511.942 1432.8 520.657 1432.8 Z" fill="#000000" fill-rule="nonzero" fill-opacity="1" /><path clip-path="url(#clip810)" d="M799.88 1460.34 L844.394 1460.34 L844.394 1466.24 L799.88 1466.24 L799.88 1460.34 Z" fill="#000000" fill-rule="nonzero" fill-opacity="1" /><path clip-path="url(#clip810)" d="M874.533 1438.36 Q869.116 1438.36 866.373 1443.71 Q863.665 1449.02 863.665 1459.71 Q863.665 1470.37 866.373 1475.72 Q869.116 1481.03 874.533 1481.03 Q879.984 1481.03 882.692 1475.72 Q885.435 1470.37 885.435 1459.71 Q885.435 1449.02 882.692 1443.71 Q879.984 1438.36 874.533 1438.36 M874.533 1432.8 Q883.248 1432.8 887.831 1439.71 Q892.449 1446.59 892.449 1459.71 Q892.449 1472.8 887.831 1479.71 Q883.248 1486.59 874.533 1486.59 Q865.817 1486.59 861.199 1479.71 Q856.616 1472.8 856.616 1459.71 Q856.616 1446.59 861.199 1439.71 Q865.817 1432.8 874.533 1432.8 Z" fill="#000000" fill-rule="nonzero" fill-opacity="1" /><path clip-path="url(#clip810)" d="M904.775 1476.76 L912.102 1476.76 L912.102 1485.58 L904.775 1485.58 L904.775 1476.76 Z" fill="#000000" fill-rule="nonzero" fill-opacity="1" /><path clip-path="url(#clip810)" d="M927.449 1433.74 L954.984 1433.74 L954.984 1439.64 L933.873 1439.64 L933.873 1452.35 Q935.4 1451.83 936.928 1451.59 Q938.456 1451.31 939.984 1451.31 Q948.664 1451.31 953.734 1456.07 Q958.803 1460.82 958.803 1468.95 Q958.803 1477.32 953.595 1481.97 Q948.386 1486.59 938.907 1486.59 Q935.643 1486.59 932.241 1486.03 Q928.873 1485.48 925.261 1484.36 L925.261 1477.32 Q928.386 1479.02 931.72 1479.85 Q935.053 1480.68 938.768 1480.68 Q944.775 1480.68 948.282 1477.52 Q951.789 1474.36 951.789 1468.95 Q951.789 1463.53 948.282 1460.37 Q944.775 1457.21 938.768 1457.21 Q935.956 1457.21 933.143 1457.84 Q930.366 1458.46 927.449 1459.78 L927.449 1433.74 Z" fill="#000000" fill-rule="nonzero" fill-opacity="1" /><path clip-path="url(#clip810)" d="M1266.39 1438.36 Q1260.98 1438.36 1258.23 1443.71 Q1255.53 1449.02 1255.53 1459.71 Q1255.53 1470.37 1258.23 1475.72 Q1260.98 1481.03 1266.39 1481.03 Q1271.85 1481.03 1274.55 1475.72 Q1277.3 1470.37 1277.3 1459.71 Q1277.3 1449.02 1274.55 1443.71 Q1271.85 1438.36 1266.39 1438.36 M1266.39 1432.8 Q1275.11 1432.8 1279.69 1439.71 Q1284.31 1446.59 1284.31 1459.71 Q1284.31 1472.8 1279.69 1479.71 Q1275.11 1486.59 1266.39 1486.59 Q1257.68 1486.59 1253.06 1479.71 Q1248.48 1472.8 1248.48 1459.71 Q1248.48 1446.59 1253.06 1439.71 Q1257.68 1432.8 1266.39 1432.8 Z" fill="#000000" fill-rule="nonzero" fill-opacity="1" /><path clip-path="url(#clip810)" d="M1296.64 1476.76 L1303.96 1476.76 L1303.96 1485.58 L1296.64 1485.58 L1296.64 1476.76 Z" fill="#000000" fill-rule="nonzero" fill-opacity="1" /><path clip-path="url(#clip810)" d="M1334.24 1438.36 Q1328.82 1438.36 1326.08 1443.71 Q1323.37 1449.02 1323.37 1459.71 Q1323.37 1470.37 1326.08 1475.72 Q1328.82 1481.03 1334.24 1481.03 Q1339.69 1481.03 1342.4 1475.72 Q1345.14 1470.37 1345.14 1459.71 Q1345.14 1449.02 1342.4 1443.71 Q1339.69 1438.36 1334.24 1438.36 M1334.24 1432.8 Q1342.96 1432.8 1347.54 1439.71 Q1352.16 1446.59 1352.16 1459.71 Q1352.16 1472.8 1347.54 1479.71 Q1342.96 1486.59 1334.24 1486.59 Q1325.53 1486.59 1320.91 1479.71 Q1316.32 1472.8 1316.32 1459.71 Q1316.32 1446.59 1320.91 1439.71 Q1325.53 1432.8 1334.24 1432.8 Z" fill="#000000" fill-rule="nonzero" fill-opacity="1" /><path clip-path="url(#clip810)" d="M1688.12 1438.36 Q1682.7 1438.36 1679.96 1443.71 Q1677.25 1449.02 1677.25 1459.71 Q1677.25 1470.37 1679.96 1475.72 Q1682.7 1481.03 1688.12 1481.03 Q1693.57 1481.03 1696.28 1475.72 Q1699.02 1470.37 1699.02 1459.71 Q1699.02 1449.02 1696.28 1443.71 Q1693.57 1438.36 1688.12 1438.36 M1688.12 1432.8 Q1696.83 1432.8 1701.41 1439.71 Q1706.03 1446.59 1706.03 1459.71 Q1706.03 1472.8 1701.41 1479.71 Q1696.83 1486.59 1688.12 1486.59 Q1679.4 1486.59 1674.78 1479.71 Q1670.2 1472.8 1670.2 1459.71 Q1670.2 1446.59 1674.78 1439.71 Q1679.4 1432.8 1688.12 1432.8 Z" fill="#000000" fill-rule="nonzero" fill-opacity="1" /><path clip-path="url(#clip810)" d="M1718.36 1476.76 L1725.68 1476.76 L1725.68 1485.58 L1718.36 1485.58 L1718.36 1476.76 Z" fill="#000000" fill-rule="nonzero" fill-opacity="1" /><path clip-path="url(#clip810)" d="M1741.03 1433.74 L1768.57 1433.74 L1768.57 1439.64 L1747.46 1439.64 L1747.46 1452.35 Q1748.98 1451.83 1750.51 1451.59 Q1752.04 1451.31 1753.57 1451.31 Q1762.25 1451.31 1767.32 1456.07 Q1772.39 1460.82 1772.39 1468.95 Q1772.39 1477.32 1767.18 1481.97 Q1761.97 1486.59 1752.49 1486.59 Q1749.23 1486.59 1745.82 1486.03 Q1742.46 1485.48 1738.84 1484.36 L1738.84 1477.32 Q1741.97 1479.02 1745.3 1479.85 Q1748.64 1480.68 1752.35 1480.68 Q1758.36 1480.68 1761.87 1477.52 Q1765.37 1474.36 1765.37 1468.95 Q1765.37 1463.53 1761.87 1460.37 Q1758.36 1457.21 1752.35 1457.21 Q1749.54 1457.21 1746.73 1457.84 Q1743.95 1458.46 1741.03 1459.78 L1741.03 1433.74 Z" fill="#000000" fill-rule="nonzero" fill-opacity="1" /><path clip-path="url(#clip810)" d="M2093 1479.68 L2104.46 1479.68 L2104.46 1440.13 L2091.99 1442.63 L2091.99 1436.24 L2104.39 1433.74 L2111.4 1433.74 L2111.4 1479.68 L2122.86 1479.68 L2122.86 1485.58 L2093 1485.58 L2093 1479.68 Z" fill="#000000" fill-rule="nonzero" fill-opacity="1" /><path clip-path="url(#clip810)" d="M2137.03 1476.76 L2144.35 1476.76 L2144.35 1485.58 L2137.03 1485.58 L2137.03 1476.76 Z" fill="#000000" fill-rule="nonzero" fill-opacity="1" /><path clip-path="url(#clip810)" d="M2174.63 1438.36 Q2169.21 1438.36 2166.47 1443.71 Q2163.76 1449.02 2163.76 1459.71 Q2163.76 1470.37 2166.47 1475.72 Q2169.21 1481.03 2174.63 1481.03 Q2180.08 1481.03 2182.79 1475.72 Q2185.53 1470.37 2185.53 1459.71 Q2185.53 1449.02 2182.79 1443.71 Q2180.08 1438.36 2174.63 1438.36 M2174.63 1432.8 Q2183.34 1432.8 2187.93 1439.71 Q2192.55 1446.59 2192.55 1459.71 Q2192.55 1472.8 2187.93 1479.71 Q2183.34 1486.59 2174.63 1486.59 Q2165.91 1486.59 2161.3 1479.71 Q2156.71 1472.8 2156.71 1459.71 Q2156.71 1446.59 2161.3 1439.71 Q2165.91 1432.8 2174.63 1432.8 Z" fill="#000000" fill-rule="nonzero" fill-opacity="1" /><path clip-path="url(#clip810)" d="M1179.21 1538.66 L1185.98 1538.66 L1198.13 1571.3 L1210.28 1538.66 L1217.05 1538.66 L1202.47 1577.55 L1193.79 1577.55 L1179.21 1538.66 Z" fill="#000000" fill-rule="nonzero" fill-opacity="1" /><path clip-path="url(#clip810)" d="M1247.89 1523.52 L1262.61 1523.52 L1262.61 1528.49 L1254.28 1528.49 L1254.28 1581.96 L1262.61 1581.96 L1262.61 1586.92 L1247.89 1586.92 L1247.89 1523.52 Z" fill="#000000" fill-rule="nonzero" fill-opacity="1" /><path clip-path="url(#clip810)" d="M1306.5 1546.12 Q1308.89 1541.82 1312.23 1539.77 Q1315.56 1537.72 1320.07 1537.72 Q1326.15 1537.72 1329.45 1541.99 Q1332.75 1546.23 1332.75 1554.08 L1332.75 1577.55 L1326.32 1577.55 L1326.32 1554.28 Q1326.32 1548.69 1324.34 1545.99 Q1322.37 1543.28 1318.3 1543.28 Q1313.34 1543.28 1310.46 1546.58 Q1307.57 1549.87 1307.57 1555.57 L1307.57 1577.55 L1301.15 1577.55 L1301.15 1554.28 Q1301.15 1548.66 1299.17 1545.99 Q1297.19 1543.28 1293.06 1543.28 Q1288.16 1543.28 1285.28 1546.61 Q1282.4 1549.91 1282.4 1555.57 L1282.4 1577.55 L1275.98 1577.55 L1275.98 1538.66 L1282.4 1538.66 L1282.4 1544.7 Q1284.59 1541.12 1287.64 1539.42 Q1290.7 1537.72 1294.9 1537.72 Q1299.14 1537.72 1302.09 1539.87 Q1305.07 1542.03 1306.5 1546.12 Z" fill="#000000" fill-rule="nonzero" fill-opacity="1" /><path clip-path="url(#clip810)" d="M1356.84 1525.71 L1362.75 1525.71 L1344.69 1584.15 L1338.79 1584.15 L1356.84 1525.71 Z" fill="#000000" fill-rule="nonzero" fill-opacity="1" /><path clip-path="url(#clip810)" d="M1394.24 1539.8 L1394.24 1545.85 Q1391.53 1544.46 1388.62 1543.76 Q1385.7 1543.07 1382.57 1543.07 Q1377.82 1543.07 1375.42 1544.53 Q1373.06 1545.99 1373.06 1548.9 Q1373.06 1551.12 1374.76 1552.41 Q1376.46 1553.66 1381.6 1554.8 L1383.79 1555.29 Q1390.59 1556.75 1393.44 1559.42 Q1396.32 1562.06 1396.32 1566.82 Q1396.32 1572.24 1392.02 1575.4 Q1387.75 1578.55 1380.25 1578.55 Q1377.12 1578.55 1373.72 1577.93 Q1370.35 1577.34 1366.6 1576.12 L1366.6 1569.53 Q1370.14 1571.37 1373.58 1572.3 Q1377.02 1573.21 1380.39 1573.21 Q1384.9 1573.21 1387.33 1571.68 Q1389.76 1570.12 1389.76 1567.3 Q1389.76 1564.7 1387.99 1563.31 Q1386.25 1561.92 1380.32 1560.64 L1378.09 1560.12 Q1372.16 1558.87 1369.52 1556.3 Q1366.88 1553.69 1366.88 1549.18 Q1366.88 1543.69 1370.77 1540.71 Q1374.66 1537.72 1381.81 1537.72 Q1385.35 1537.72 1388.48 1538.24 Q1391.6 1538.76 1394.24 1539.8 Z" fill="#000000" fill-rule="nonzero" fill-opacity="1" /><path clip-path="url(#clip810)" d="M1421.43 1523.52 L1421.43 1586.92 L1406.71 1586.92 L1406.71 1581.96 L1415 1581.96 L1415 1528.49 L1406.71 1528.49 L1406.71 1523.52 L1421.43 1523.52 Z" fill="#000000" fill-rule="nonzero" fill-opacity="1" /><polyline clip-path="url(#clip810)" style="stroke:#000000; stroke-linecap:round; stroke-linejoin:round; stroke-width:4; stroke-opacity:1; fill:none" points="247.878,1401.58 247.878,123.472 "/>
<polyline clip-path="url(#clip810)" style="stroke:#000000; stroke-linecap:round; stroke-linejoin:round; stroke-width:4; stroke-opacity:1; fill:none" points="247.878,1297.9 266.776,1297.9 "/>
<polyline clip-path="url(#clip810)" style="stroke:#000000; stroke-linecap:round; stroke-linejoin:round; stroke-width:4; stroke-opacity:1; fill:none" points="247.878,1055.25 266.776,1055.25 "/>
<polyline clip-path="url(#clip810)" style="stroke:#000000; stroke-linecap:round; stroke-linejoin:round; stroke-width:4; stroke-opacity:1; fill:none" points="247.878,812.592 266.776,812.592 "/>
<polyline clip-path="url(#clip810)" style="stroke:#000000; stroke-linecap:round; stroke-linejoin:round; stroke-width:4; stroke-opacity:1; fill:none" points="247.878,569.935 266.776,569.935 "/>
<polyline clip-path="url(#clip810)" style="stroke:#000000; stroke-linecap:round; stroke-linejoin:round; stroke-width:4; stroke-opacity:1; fill:none" points="247.878,327.279 266.776,327.279 "/>
<path clip-path="url(#clip810)" d="M118.58 1298.58 L163.094 1298.58 L163.094 1304.48 L118.58 1304.48 L118.58 1298.58 Z" fill="#000000" fill-rule="nonzero" fill-opacity="1" /><path clip-path="url(#clip810)" d="M197.503 1278.09 L179.795 1305.77 L197.503 1305.77 L197.503 1278.09 M195.663 1271.98 L204.482 1271.98 L204.482 1305.77 L211.878 1305.77 L211.878 1311.6 L204.482 1311.6 L204.482 1323.82 L197.503 1323.82 L197.503 1311.6 L174.101 1311.6 L174.101 1304.83 L195.663 1271.98 Z" fill="#000000" fill-rule="nonzero" fill-opacity="1" /><path clip-path="url(#clip810)" d="M121.705 1055.92 L166.219 1055.92 L166.219 1061.83 L121.705 1061.83 L121.705 1055.92 Z" fill="#000000" fill-rule="nonzero" fill-opacity="1" /><path clip-path="url(#clip810)" d="M187.399 1075.26 L211.878 1075.26 L211.878 1081.17 L178.962 1081.17 L178.962 1075.26 Q182.955 1071.13 189.83 1064.19 Q196.739 1057.21 198.51 1055.2 Q201.878 1051.41 203.198 1048.81 Q204.552 1046.17 204.552 1043.63 Q204.552 1039.5 201.635 1036.9 Q198.753 1034.29 194.101 1034.29 Q190.802 1034.29 187.121 1035.44 Q183.476 1036.58 179.309 1038.91 L179.309 1031.83 Q183.545 1030.13 187.226 1029.26 Q190.906 1028.39 193.962 1028.39 Q202.017 1028.39 206.809 1032.42 Q211.6 1036.45 211.6 1043.18 Q211.6 1046.38 210.385 1049.26 Q209.205 1052.11 206.045 1055.99 Q205.177 1057 200.524 1061.83 Q195.871 1066.62 187.399 1075.26 Z" fill="#000000" fill-rule="nonzero" fill-opacity="1" /><path clip-path="url(#clip810)" d="M193.962 791.29 Q188.545 791.29 185.802 796.637 Q183.094 801.949 183.094 812.644 Q183.094 823.303 185.802 828.65 Q188.545 833.963 193.962 833.963 Q199.413 833.963 202.121 828.65 Q204.864 823.303 204.864 812.644 Q204.864 801.949 202.121 796.637 Q199.413 791.29 193.962 791.29 M193.962 785.734 Q202.677 785.734 207.26 792.644 Q211.878 799.519 211.878 812.644 Q211.878 825.734 207.26 832.644 Q202.677 839.518 193.962 839.518 Q185.246 839.518 180.628 832.644 Q176.045 825.734 176.045 812.644 Q176.045 799.519 180.628 792.644 Q185.246 785.734 193.962 785.734 Z" fill="#000000" fill-rule="nonzero" fill-opacity="1" /><path clip-path="url(#clip810)" d="M187.399 589.953 L211.878 589.953 L211.878 595.855 L178.962 595.855 L178.962 589.953 Q182.955 585.821 189.83 578.876 Q196.739 571.897 198.51 569.883 Q201.878 566.099 203.198 563.494 Q204.552 560.856 204.552 558.321 Q204.552 554.189 201.635 551.585 Q198.753 548.981 194.101 548.981 Q190.802 548.981 187.121 550.127 Q183.476 551.272 179.309 553.599 L179.309 546.515 Q183.545 544.814 187.226 543.946 Q190.906 543.078 193.962 543.078 Q202.017 543.078 206.809 547.106 Q211.6 551.133 211.6 557.87 Q211.6 561.064 210.385 563.946 Q209.205 566.793 206.045 570.682 Q205.177 571.689 200.524 576.515 Q195.871 581.307 187.399 589.953 Z" fill="#000000" fill-rule="nonzero" fill-opacity="1" /><path clip-path="url(#clip810)" d="M197.503 307.47 L179.795 335.144 L197.503 335.144 L197.503 307.47 M195.663 301.359 L204.482 301.359 L204.482 335.144 L211.878 335.144 L211.878 340.977 L204.482 340.977 L204.482 353.199 L197.503 353.199 L197.503 340.977 L174.101 340.977 L174.101 334.206 L195.663 301.359 Z" fill="#000000" fill-rule="nonzero" fill-opacity="1" /><path clip-path="url(#clip810)" d="M13.0007 1025.04 L18.3131 1025.04 L18.3131 1031.15 Q18.3131 1034.59 19.702 1035.94 Q21.0909 1037.26 24.702 1037.26 L28.1395 1037.26 L28.1395 1026.74 L33.1047 1026.74 L33.1047 1037.26 L67.0282 1037.26 L67.0282 1043.69 L33.1047 1043.69 L33.1047 1049.8 L28.1395 1049.8 L28.1395 1043.69 L25.4312 1043.69 Q18.9381 1043.69 15.9868 1040.67 Q13.0007 1037.65 13.0007 1031.08 L13.0007 1025.04 Z" fill="#000000" fill-rule="nonzero" fill-opacity="1" /><path clip-path="url(#clip810)" d="M34.1117 997.16 Q33.4867 998.237 33.2089 999.521 Q32.8964 1000.77 32.8964 1002.3 Q32.8964 1007.72 36.438 1010.63 Q39.945 1013.51 46.5422 1013.51 L67.0282 1013.51 L67.0282 1019.94 L28.1395 1019.94 L28.1395 1013.51 L34.1811 1013.51 Q30.6395 1011.5 28.9381 1008.27 Q27.202 1005.04 27.202 1000.42 Q27.202 999.764 27.3061 998.966 Q27.3756 998.167 27.5492 997.195 L34.1117 997.16 Z" fill="#000000" fill-rule="nonzero" fill-opacity="1" /><path clip-path="url(#clip810)" d="M28.1395 990.459 L28.1395 984.07 L67.0282 984.07 L67.0282 990.459 L28.1395 990.459 M13.0007 990.459 L13.0007 984.07 L21.0909 984.07 L21.0909 990.459 L13.0007 990.459 Z" fill="#000000" fill-rule="nonzero" fill-opacity="1" /><path clip-path="url(#clip810)" d="M29.6325 942.716 L35.6047 942.716 Q34.1117 945.424 33.3825 948.167 Q32.6186 950.876 32.6186 953.653 Q32.6186 959.869 36.5769 963.306 Q40.5005 966.744 47.6185 966.744 Q54.7366 966.744 58.6949 963.306 Q62.6185 959.869 62.6185 953.653 Q62.6185 950.876 61.8893 948.167 Q61.1254 945.424 59.6324 942.716 L65.5351 942.716 Q66.7851 945.39 67.4101 948.272 Q68.0351 951.119 68.0351 954.348 Q68.0351 963.133 62.5143 968.306 Q56.9935 973.48 47.6185 973.48 Q38.1047 973.48 32.6533 968.271 Q27.202 963.028 27.202 953.931 Q27.202 950.98 27.827 948.167 Q28.4173 945.355 29.6325 942.716 Z" fill="#000000" fill-rule="nonzero" fill-opacity="1" /><path clip-path="url(#clip810)" d="M17.0979 925.286 L28.1395 925.286 L28.1395 912.126 L33.1047 912.126 L33.1047 925.286 L54.2157 925.286 Q58.9726 925.286 60.3268 924.001 Q61.681 922.681 61.681 918.688 L61.681 912.126 L67.0282 912.126 L67.0282 918.688 Q67.0282 926.084 64.2851 928.897 Q61.5074 931.709 54.2157 931.709 L33.1047 931.709 L33.1047 936.397 L28.1395 936.397 L28.1395 931.709 L17.0979 931.709 L17.0979 925.286 Z" fill="#000000" fill-rule="nonzero" fill-opacity="1" /><path clip-path="url(#clip810)" d="M28.1395 903.723 L28.1395 897.334 L67.0282 897.334 L67.0282 903.723 L28.1395 903.723 M13.0007 903.723 L13.0007 897.334 L21.0909 897.334 L21.0909 903.723 L13.0007 903.723 Z" fill="#000000" fill-rule="nonzero" fill-opacity="1" /><path clip-path="url(#clip810)" d="M32.6186 868.897 Q32.6186 874.036 36.6464 877.022 Q40.6394 880.008 47.6185 880.008 Q54.5977 880.008 58.6254 877.057 Q62.6185 874.071 62.6185 868.897 Q62.6185 863.793 58.5907 860.807 Q54.5629 857.821 47.6185 857.821 Q40.7089 857.821 36.6811 860.807 Q32.6186 863.793 32.6186 868.897 M27.202 868.897 Q27.202 860.564 32.6186 855.807 Q38.0353 851.05 47.6185 851.05 Q57.1671 851.05 62.6185 855.807 Q68.0351 860.564 68.0351 868.897 Q68.0351 877.265 62.6185 882.022 Q57.1671 886.744 47.6185 886.744 Q38.0353 886.744 32.6186 882.022 Q27.202 877.265 27.202 868.897 Z" fill="#000000" fill-rule="nonzero" fill-opacity="1" /><path clip-path="url(#clip810)" d="M43.5561 808.133 L67.0282 808.133 L67.0282 814.522 L43.7644 814.522 Q38.2436 814.522 35.5005 816.675 Q32.7575 818.828 32.7575 823.133 Q32.7575 828.307 36.0561 831.293 Q39.3547 834.279 45.0491 834.279 L67.0282 834.279 L67.0282 840.703 L28.1395 840.703 L28.1395 834.279 L34.1811 834.279 Q30.6742 831.987 28.9381 828.897 Q27.202 825.772 27.202 821.71 Q27.202 815.008 31.3686 811.571 Q35.5005 808.133 43.5561 808.133 Z" fill="#000000" fill-rule="nonzero" fill-opacity="1" /><path clip-path="url(#clip810)" d="M13.0007 753.099 L18.3131 753.099 L18.3131 759.21 Q18.3131 762.648 19.702 764.002 Q21.0909 765.321 24.702 765.321 L28.1395 765.321 L28.1395 754.8 L33.1047 754.8 L33.1047 765.321 L67.0282 765.321 L67.0282 771.745 L33.1047 771.745 L33.1047 777.856 L28.1395 777.856 L28.1395 771.745 L25.4312 771.745 Q18.9381 771.745 15.9868 768.724 Q13.0007 765.703 13.0007 759.141 L13.0007 753.099 Z" fill="#000000" fill-rule="nonzero" fill-opacity="1" /><path clip-path="url(#clip810)" d="M32.6186 732.682 Q32.6186 737.821 36.6464 740.807 Q40.6394 743.793 47.6185 743.793 Q54.5977 743.793 58.6254 740.842 Q62.6185 737.856 62.6185 732.682 Q62.6185 727.578 58.5907 724.592 Q54.5629 721.606 47.6185 721.606 Q40.7089 721.606 36.6811 724.592 Q32.6186 727.578 32.6186 732.682 M27.202 732.682 Q27.202 724.349 32.6186 719.592 Q38.0353 714.835 47.6185 714.835 Q57.1671 714.835 62.6185 719.592 Q68.0351 724.349 68.0351 732.682 Q68.0351 741.05 62.6185 745.807 Q57.1671 750.53 47.6185 750.53 Q38.0353 750.53 32.6186 745.807 Q27.202 741.05 27.202 732.682 Z" fill="#000000" fill-rule="nonzero" fill-opacity="1" /><path clip-path="url(#clip810)" d="M34.1117 681.71 Q33.4867 682.787 33.2089 684.072 Q32.8964 685.322 32.8964 686.849 Q32.8964 692.266 36.438 695.183 Q39.945 698.065 46.5422 698.065 L67.0282 698.065 L67.0282 704.488 L28.1395 704.488 L28.1395 698.065 L34.1811 698.065 Q30.6395 696.051 28.9381 692.821 Q27.202 689.592 27.202 684.974 Q27.202 684.315 27.3061 683.516 Q27.3756 682.717 27.5492 681.745 L34.1117 681.71 Z" fill="#000000" fill-rule="nonzero" fill-opacity="1" /><path clip-path="url(#clip810)" d="M29.6325 648.586 L35.6047 648.586 Q34.1117 651.294 33.3825 654.037 Q32.6186 656.745 32.6186 659.523 Q32.6186 665.738 36.5769 669.176 Q40.5005 672.613 47.6185 672.613 Q54.7366 672.613 58.6949 669.176 Q62.6185 665.738 62.6185 659.523 Q62.6185 656.745 61.8893 654.037 Q61.1254 651.294 59.6324 648.586 L65.5351 648.586 Q66.7851 651.259 67.4101 654.141 Q68.0351 656.988 68.0351 660.218 Q68.0351 669.002 62.5143 674.176 Q56.9935 679.349 47.6185 679.349 Q38.1047 679.349 32.6533 674.141 Q27.202 668.898 27.202 659.801 Q27.202 656.849 27.827 654.037 Q28.4173 651.224 29.6325 648.586 Z" fill="#000000" fill-rule="nonzero" fill-opacity="1" /><path clip-path="url(#clip810)" d="M45.9866 604.211 L49.1116 604.211 L49.1116 633.586 Q55.7088 633.169 59.181 629.627 Q62.6185 626.051 62.6185 619.697 Q62.6185 616.016 61.7157 612.579 Q60.8129 609.107 59.0074 605.704 L65.049 605.704 Q66.5073 609.141 67.2712 612.752 Q68.0351 616.364 68.0351 620.079 Q68.0351 629.384 62.6185 634.836 Q57.2018 640.252 47.9658 640.252 Q38.4172 640.252 32.827 635.113 Q27.202 629.94 27.202 621.19 Q27.202 613.343 32.2714 608.794 Q37.3061 604.211 45.9866 604.211 M44.1116 610.6 Q38.8686 610.669 35.7436 613.551 Q32.6186 616.398 32.6186 621.12 Q32.6186 626.468 35.6394 629.697 Q38.6603 632.891 44.1463 633.377 L44.1116 610.6 Z" fill="#000000" fill-rule="nonzero" fill-opacity="1" /><path clip-path="url(#clip810)" d="M13.0007 571.711 L13.0007 556.989 L17.9659 556.989 L17.9659 565.322 L71.4379 565.322 L71.4379 556.989 L76.4031 556.989 L76.4031 571.711 L13.0007 571.711 Z" fill="#000000" fill-rule="nonzero" fill-opacity="1" /><path clip-path="url(#clip810)" d="M15.1882 543.1 L15.1882 533.656 L58.556 510.67 L15.1882 510.67 L15.1882 503.864 L67.0282 503.864 L67.0282 513.309 L23.6603 536.295 L67.0282 536.295 L67.0282 543.1 L15.1882 543.1 Z" fill="#000000" fill-rule="nonzero" fill-opacity="1" /><path clip-path="url(#clip810)" d="M13.0007 475.253 L76.4031 475.253 L76.4031 489.975 L71.4379 489.975 L71.4379 481.677 L17.9659 481.677 L17.9659 489.975 L13.0007 489.975 L13.0007 475.253 Z" fill="#000000" fill-rule="nonzero" fill-opacity="1" /><path clip-path="url(#clip810)" d="M974.604 12.096 L1009.36 12.096 L1009.36 18.9825 L982.787 18.9825 L982.787 36.8065 L1006.77 36.8065 L1006.77 43.6931 L982.787 43.6931 L982.787 72.576 L974.604 72.576 L974.604 12.096 Z" fill="#000000" fill-rule="nonzero" fill-opacity="1" /><path clip-path="url(#clip810)" d="M1042.25 34.1734 Q1041 33.4443 1039.5 33.1202 Q1038.04 32.7556 1036.26 32.7556 Q1029.94 32.7556 1026.54 36.8875 Q1023.17 40.9789 1023.17 48.6757 L1023.17 72.576 L1015.68 72.576 L1015.68 27.2059 L1023.17 27.2059 L1023.17 34.2544 Q1025.52 30.1225 1029.29 28.1376 Q1033.06 26.1121 1038.45 26.1121 Q1039.22 26.1121 1040.15 26.2337 Q1041.08 26.3147 1042.21 26.5172 L1042.25 34.1734 Z" fill="#000000" fill-rule="nonzero" fill-opacity="1" /><path clip-path="url(#clip810)" d="M1050.07 27.2059 L1057.53 27.2059 L1057.53 72.576 L1050.07 72.576 L1050.07 27.2059 M1050.07 9.54393 L1057.53 9.54393 L1057.53 18.9825 L1050.07 18.9825 L1050.07 9.54393 Z" fill="#000000" fill-rule="nonzero" fill-opacity="1" /><path clip-path="url(#clip810)" d="M1105.77 28.9478 L1105.77 35.9153 Q1102.61 34.1734 1099.41 33.3227 Q1096.25 32.4315 1093.01 32.4315 Q1085.76 32.4315 1081.75 37.0496 Q1077.74 41.6271 1077.74 49.9314 Q1077.74 58.2358 1081.75 62.8538 Q1085.76 67.4314 1093.01 67.4314 Q1096.25 67.4314 1099.41 66.5807 Q1102.61 65.6895 1105.77 63.9476 L1105.77 70.8341 Q1102.65 72.2924 1099.29 73.0216 Q1095.97 73.7508 1092.2 73.7508 Q1081.95 73.7508 1075.92 67.3098 Q1069.88 60.8689 1069.88 49.9314 Q1069.88 38.832 1075.96 32.472 Q1082.07 26.1121 1092.69 26.1121 Q1096.13 26.1121 1099.41 26.8413 Q1102.69 27.5299 1105.77 28.9478 Z" fill="#000000" fill-rule="nonzero" fill-opacity="1" /><path clip-path="url(#clip810)" d="M1126.11 14.324 L1126.11 27.2059 L1141.46 27.2059 L1141.46 32.9987 L1126.11 32.9987 L1126.11 57.6282 Q1126.11 63.1779 1127.61 64.7578 Q1129.15 66.3376 1133.8 66.3376 L1141.46 66.3376 L1141.46 72.576 L1133.8 72.576 Q1125.18 72.576 1121.9 69.3758 Q1118.61 66.1351 1118.61 57.6282 L1118.61 32.9987 L1113.15 32.9987 L1113.15 27.2059 L1118.61 27.2059 L1118.61 14.324 L1126.11 14.324 Z" fill="#000000" fill-rule="nonzero" fill-opacity="1" /><path clip-path="url(#clip810)" d="M1151.26 27.2059 L1158.72 27.2059 L1158.72 72.576 L1151.26 72.576 L1151.26 27.2059 M1151.26 9.54393 L1158.72 9.54393 L1158.72 18.9825 L1151.26 18.9825 L1151.26 9.54393 Z" fill="#000000" fill-rule="nonzero" fill-opacity="1" /><path clip-path="url(#clip810)" d="M1191.89 32.4315 Q1185.9 32.4315 1182.42 37.1306 Q1178.93 41.7891 1178.93 49.9314 Q1178.93 58.0738 1182.38 62.7728 Q1185.86 67.4314 1191.89 67.4314 Q1197.85 67.4314 1201.33 62.7323 Q1204.82 58.0333 1204.82 49.9314 Q1204.82 41.8701 1201.33 37.1711 Q1197.85 32.4315 1191.89 32.4315 M1191.89 26.1121 Q1201.62 26.1121 1207.17 32.4315 Q1212.72 38.7509 1212.72 49.9314 Q1212.72 61.0714 1207.17 67.4314 Q1201.62 73.7508 1191.89 73.7508 Q1182.13 73.7508 1176.58 67.4314 Q1171.07 61.0714 1171.07 49.9314 Q1171.07 38.7509 1176.58 32.4315 Q1182.13 26.1121 1191.89 26.1121 Z" fill="#000000" fill-rule="nonzero" fill-opacity="1" /><path clip-path="url(#clip810)" d="M1262.79 45.1919 L1262.79 72.576 L1255.33 72.576 L1255.33 45.4349 Q1255.33 38.994 1252.82 35.7938 Q1250.31 32.5936 1245.29 32.5936 Q1239.25 32.5936 1235.77 36.4419 Q1232.28 40.2903 1232.28 46.9338 L1232.28 72.576 L1224.79 72.576 L1224.79 27.2059 L1232.28 27.2059 L1232.28 34.2544 Q1234.96 30.163 1238.56 28.1376 Q1242.21 26.1121 1246.95 26.1121 Q1254.76 26.1121 1258.78 30.9732 Q1262.79 35.7938 1262.79 45.1919 Z" fill="#000000" fill-rule="nonzero" fill-opacity="1" /><path clip-path="url(#clip810)" d="M1339.35 35.9153 Q1342.14 30.8922 1346.03 28.5022 Q1349.92 26.1121 1355.19 26.1121 Q1362.28 26.1121 1366.12 31.0947 Q1369.97 36.0368 1369.97 45.1919 L1369.97 72.576 L1362.48 72.576 L1362.48 45.4349 Q1362.48 38.913 1360.17 35.7533 Q1357.86 32.5936 1353.12 32.5936 Q1347.33 32.5936 1343.97 36.4419 Q1340.6 40.2903 1340.6 46.9338 L1340.6 72.576 L1333.11 72.576 L1333.11 45.4349 Q1333.11 38.8725 1330.8 35.7533 Q1328.49 32.5936 1323.67 32.5936 Q1317.96 32.5936 1314.6 36.4824 Q1311.23 40.3308 1311.23 46.9338 L1311.23 72.576 L1303.74 72.576 L1303.74 27.2059 L1311.23 27.2059 L1311.23 34.2544 Q1313.79 30.082 1317.35 28.0971 Q1320.92 26.1121 1325.82 26.1121 Q1330.76 26.1121 1334.2 28.6237 Q1337.69 31.1352 1339.35 35.9153 Z" fill="#000000" fill-rule="nonzero" fill-opacity="1" /><path clip-path="url(#clip810)" d="M1402.42 32.4315 Q1396.42 32.4315 1392.94 37.1306 Q1389.46 41.7891 1389.46 49.9314 Q1389.46 58.0738 1392.9 62.7728 Q1396.38 67.4314 1402.42 67.4314 Q1408.37 67.4314 1411.86 62.7323 Q1415.34 58.0333 1415.34 49.9314 Q1415.34 41.8701 1411.86 37.1711 Q1408.37 32.4315 1402.42 32.4315 M1402.42 26.1121 Q1412.14 26.1121 1417.69 32.4315 Q1423.24 38.7509 1423.24 49.9314 Q1423.24 61.0714 1417.69 67.4314 Q1412.14 73.7508 1402.42 73.7508 Q1392.66 73.7508 1387.11 67.4314 Q1381.6 61.0714 1381.6 49.9314 Q1381.6 38.7509 1387.11 32.4315 Q1392.66 26.1121 1402.42 26.1121 Z" fill="#000000" fill-rule="nonzero" fill-opacity="1" /><path clip-path="url(#clip810)" d="M1465.45 34.0924 L1465.45 9.54393 L1472.91 9.54393 L1472.91 72.576 L1465.45 72.576 L1465.45 65.7705 Q1463.1 69.8214 1459.5 71.8063 Q1455.93 73.7508 1450.91 73.7508 Q1442.69 73.7508 1437.5 67.1883 Q1432.36 60.6258 1432.36 49.9314 Q1432.36 39.2371 1437.5 32.6746 Q1442.69 26.1121 1450.91 26.1121 Q1455.93 26.1121 1459.5 28.0971 Q1463.1 30.0415 1465.45 34.0924 M1440.05 49.9314 Q1440.05 58.1548 1443.42 62.8538 Q1446.82 67.5124 1452.73 67.5124 Q1458.65 67.5124 1462.05 62.8538 Q1465.45 58.1548 1465.45 49.9314 Q1465.45 41.7081 1462.05 37.0496 Q1458.65 32.3505 1452.73 32.3505 Q1446.82 32.3505 1443.42 37.0496 Q1440.05 41.7081 1440.05 49.9314 Z" fill="#000000" fill-rule="nonzero" fill-opacity="1" /><path clip-path="url(#clip810)" d="M1527.07 48.0275 L1527.07 51.6733 L1492.8 51.6733 Q1493.28 59.3701 1497.41 63.421 Q1501.59 67.4314 1509 67.4314 Q1513.29 67.4314 1517.3 66.3781 Q1521.35 65.3249 1525.32 63.2184 L1525.32 70.267 Q1521.31 71.9684 1517.1 72.8596 Q1512.89 73.7508 1508.55 73.7508 Q1497.7 73.7508 1491.34 67.4314 Q1485.02 61.1119 1485.02 50.3365 Q1485.02 39.1965 1491.01 32.6746 Q1497.05 26.1121 1507.26 26.1121 Q1516.41 26.1121 1521.72 32.0264 Q1527.07 37.9003 1527.07 48.0275 M1519.61 45.84 Q1519.53 39.7232 1516.17 36.0774 Q1512.85 32.4315 1507.34 32.4315 Q1501.1 32.4315 1497.33 35.9558 Q1493.61 39.4801 1493.04 45.8805 L1519.61 45.84 Z" fill="#000000" fill-rule="nonzero" fill-opacity="1" /><path clip-path="url(#clip810)" d="M1539.3 9.54393 L1546.75 9.54393 L1546.75 72.576 L1539.3 72.576 L1539.3 9.54393 Z" fill="#000000" fill-rule="nonzero" fill-opacity="1" /><path clip-path="url(#clip810)" d="M1591.19 65.6895 L1604.56 65.6895 L1604.56 19.5497 L1590.02 22.4663 L1590.02 15.0127 L1604.48 12.096 L1612.66 12.096 L1612.66 65.6895 L1626.03 65.6895 L1626.03 72.576 L1591.19 72.576 L1591.19 65.6895 Z" fill="#000000" fill-rule="nonzero" fill-opacity="1" /><polyline clip-path="url(#clip812)" style="stroke:#009af9; stroke-linecap:round; stroke-linejoin:round; stroke-width:8; stroke-opacity:1; fill:none" points="1300.32,812.592 1336.26,812.592 1372.48,812.592 1408.92,812.592 1445.51,812.592 1482.19,812.592 1518.92,812.592 1555.63,812.592 1592.26,812.592 1628.77,812.592 1665.09,812.592 1701.19,812.592 1737.01,812.592 1772.5,812.592 1807.61,812.592 1842.3,812.592 1876.53,812.592 1910.26,812.592 1943.43,812.592 1976.02,812.592 2007.98,812.592 2039.27,812.592 2069.87,812.592 2099.73,812.592 2128.82,812.592 2157.1,812.592 2184.55,812.592 2211.14,812.592 2236.84,812.592 2261.61,812.592 2285.43,812.592 2308.28,812.592 2330.13,812.592 2350.96,812.592 2370.74,812.592 2389.46,812.592 2407.1,812.592 2423.63,812.592 2439.04,812.592 2453.32,812.592 2466.45,812.592 2478.41,812.592 2489.19,812.592 2498.79,812.592 2507.19,812.592 2514.38,812.592 2520.36,812.592 2525.12,812.592 2528.65,812.592 2530.96,812.592 2532.03,812.592 2531.88,812.592 2530.49,812.592 2527.88,812.592 2524.03,812.592 2518.96,812.592 2512.67,812.592 2505.17,812.592 2496.47,812.592 2486.57,812.592 2475.48,812.592 2463.21,812.592 2449.78,812.592 2435.2,812.592 2419.48,812.592 2402.64,812.592 2384.69,812.592 2365.66,812.592 2345.55,812.592 2324.39,812.592 2302.2,812.592 2278.99,812.592 2254.8,812.592 2229.64,812.592 2203.53,812.592 2176.5,812.592 2148.58,812.592 2119.79,812.592 2090.14,812.592 2059.68,812.592 2028.42,812.592 1996.4,812.592 1963.63,812.592 1930.15,812.592 1895.97,812.592 1861.14,812.592 1825.67,812.592 1789.59,812.592 1752.93,812.592 1715.7,812.592 1677.94,812.592 1639.66,812.592 1600.89,812.592 1561.65,812.592 1521.96,812.592 1481.83,812.592 1441.27,812.592 1400.3,812.592 1358.93,812.592 1317.16,812.592 1282.61,812.592 1252.83,812.592 1222.84,812.592 1192.7,812.592 1162.45,812.592 1132.13,812.592 1101.79,812.592 1071.47,812.592 1041.23,812.592 1011.09,812.592 981.11,812.592 951.322,812.592 921.768,812.592 892.487,812.592 863.518,812.592 834.898,812.592 806.663,812.592 778.85,812.592 751.491,812.592 724.621,812.592 698.272,812.592 672.476,812.592 647.263,812.592 622.663,812.592 598.704,812.592 575.413,812.592 552.818,812.592 530.944,812.592 509.815,812.592 489.455,812.592 469.887,812.592 451.132,812.592 433.211,812.592 416.143,812.592 399.948,812.592 384.642,812.592 370.242,812.592 356.764,812.592 344.222,812.592 332.63,812.592 321.999,812.592 312.342,812.592 303.669,812.592 295.989,812.592 289.309,812.592 283.639,812.592 278.983,812.592 275.346,812.592 272.733,812.592 271.147,812.592 270.59,812.592 271.062,812.592 272.564,812.592 275.094,812.592 278.651,812.592 283.23,812.592 288.829,812.592 295.442,812.592 303.062,812.592 311.683,812.592 321.297,812.592 331.894,812.592 343.466,812.592 356,812.592 369.486,812.592 383.911,812.592 399.262,812.592 415.525,812.592 432.685,812.592 450.725,812.592 469.631,812.592 489.384,812.592 509.968,812.592 531.363,812.592 553.552,812.592 576.514,812.592 600.23,812.592 624.68,812.592 649.843,812.592 675.698,812.592 702.224,812.592 729.399,812.592 757.203,812.592 785.613,812.592 814.607,812.592 844.166,812.592 874.266,812.592 904.888,812.592 936.01,812.592 967.613,812.592 999.678,812.592 1032.18,812.592 1065.12,812.592 1098.46,812.592 1132.19,812.592 1166.3,812.592 1200.78,812.592 1235.62,812.592 1270.8,812.592 1304.17,812.592 1327.31,812.592 1350.64,812.592 1374.11,812.592 1397.69,812.592 1421.35,812.592 1445.05,812.592 1468.77,812.592 1492.46,812.592 1516.1,812.592 1539.65,812.592 1563.09,812.592 1586.38,812.592 1609.48,812.592 1632.38,812.592 1655.04,812.592 1677.43,812.592 1699.52,812.592 1721.28,812.592 1742.69,812.592 1763.73,812.592 1784.36,812.592 1804.56,812.592 1824.31,812.592 1843.57,812.592 1862.34,812.592 1880.59,812.592 1898.29,812.592 1915.43,812.592 1931.98,812.592 1947.93,812.592 1963.26,812.592 1977.95,812.592 1991.98,812.592 2005.34,812.592 2018.02,812.592 2029.99,812.592 2041.25,812.592 2051.78,812.592 2061.57,812.592 2070.61,812.592 2078.89,812.592 2086.4,812.592 2093.13,812.592 2099.07,812.592 2104.22,812.592 2108.57,812.592 2112.12,812.592 2114.86,812.592 2116.79,812.592 2117.9,812.592 2118.2,812.592 2117.67,812.592 2116.33,812.592 2114.17,812.592 2111.2,812.592 2107.41,812.592 2102.81,812.592 2097.4,812.592 2091.19,812.592 2084.18,812.592 2076.38,812.592 2067.8,812.592 2058.44,812.592 2048.31,812.592 2037.41,812.592 2025.77,812.592 2013.39,812.592 2000.28,812.592 1986.44,812.592 1971.9,812.592 1956.67,812.592 1940.76,812.592 1924.17,812.592 1906.94,812.592 1889.06,812.592 1870.56,812.592 1851.45,812.592 1831.75,812.592 1811.47,812.592 1790.63,812.592 1769.24,812.592 1747.32,812.592 1724.89,812.592 1701.96,812.592 1678.56,812.592 1654.69,812.592 1630.37,812.592 1605.63,812.592 1580.47,812.592 1554.92,812.592 1528.98,812.592 1502.67,812.592 1476.01,812.592 1449.01,812.592 1421.69,812.592 1394.05,812.592 1366.11,812.592 1337.88,812.592 1309.37,812.592 1289.25,812.592 1272.98,812.592 1256.58,812.592 1240.09,812.592 1223.53,812.592 1206.91,812.592 1190.26,812.592 1173.6,812.592 1156.95,812.592 1140.33,812.592 1123.77,812.592 1107.29,812.592 1090.9,812.592 1074.64,812.592 1058.51,812.592 1042.54,812.592 1026.75,812.592 1011.15,812.592 995.783,812.592 980.649,812.592 965.772,812.592 951.171,812.592 936.863,812.592 922.865,812.592 909.195,812.592 895.87,812.592 882.906,812.592 870.318,812.592 858.121,812.592 846.331,812.592 834.961,812.592 824.025,812.592 813.536,812.592 803.506,812.592 793.949,812.592 784.874,812.592 776.293,812.592 768.216,812.592 760.653,812.592 753.613,812.592 747.104,812.592 741.135,812.592 735.713,812.592 730.845,812.592 726.536,812.592 722.793,812.592 719.621,812.592 717.023,812.592 715.004,812.592 713.566,812.592 712.713,812.592 712.447,812.592 712.768,812.592 713.678,812.592 715.177,812.592 717.265,812.592 719.94,812.592 723.202,812.592 727.048,812.592 731.476,812.592 736.483,812.592 742.064,812.592 748.217,812.592 754.935,812.592 762.215,812.592 770.05,812.592 778.434,812.592 787.361,812.592 796.823,812.592 806.813,812.592 817.324,812.592 828.346,812.592 839.871,812.592 851.89,812.592 864.393,812.592 877.372,812.592 890.815,812.592 904.712,812.592 919.054,812.592 933.827,812.592 949.023,812.592 964.629,812.592 980.634,812.592 997.027,812.592 1013.8,812.592 1030.93,812.592 1048.41,812.592 1066.24,812.592 1084.39,812.592 1102.86,812.592 1121.63,812.592 1140.7,812.592 1160.04,812.592 1179.66,812.592 1199.54,812.592 1219.67,812.592 1240.03,812.592 1260.62,812.592 1281.43,812.592 1301.17,812.592 1309.69,812.592 1318.27,812.592 "/>
<polyline clip-path="url(#clip812)" style="stroke:#e26f46; stroke-linecap:round; stroke-linejoin:round; stroke-width:8; stroke-opacity:1; fill:none" points="1300.32,721.596 1336.26,726.301 1372.48,730.632 1408.92,734.607 1445.51,738.245 1482.19,741.567 1518.92,744.592 1555.63,747.342 1592.26,749.834 1628.77,752.09 1665.09,754.127 1701.19,755.963 1737.01,757.614 1772.5,759.096 1807.61,760.425 1842.3,761.613 1876.53,762.674 1910.26,763.619 1943.43,764.459 1976.02,765.205 2007.98,765.866 2039.27,766.45 2069.87,766.964 2099.73,767.417 2128.82,767.813 2157.1,768.161 2184.55,768.463 2211.14,768.726 2236.84,768.954 2261.61,769.15 2285.43,769.318 2308.28,769.462 2330.13,769.585 2350.96,769.689 2370.74,769.776 2389.46,769.848 2407.1,769.908 2423.63,769.958 2439.04,769.998 2453.32,770.03 2466.45,770.056 2478.41,770.077 2489.19,770.092 2498.79,770.104 2507.19,770.113 2514.38,770.12 2520.36,770.125 2525.12,770.128 2528.65,770.13 2530.96,770.132 2532.03,770.132 2531.88,770.132 2530.49,770.131 2527.88,770.13 2524.03,770.127 2518.96,770.124 2512.67,770.119 2505.17,770.111 2496.47,770.102 2486.57,770.089 2475.48,770.072 2463.21,770.05 2449.78,770.023 2435.2,769.989 2419.48,769.946 2402.64,769.894 2384.69,769.831 2365.66,769.754 2345.55,769.663 2324.39,769.554 2302.2,769.426 2278.99,769.275 2254.8,769.098 2229.64,768.892 2203.53,768.654 2176.5,768.378 2148.58,768.06 2119.79,767.695 2090.14,767.277 2059.68,766.799 2028.42,766.254 1996.4,765.634 1963.63,764.931 1930.15,764.133 1895.97,763.23 1861.14,762.21 1825.67,761.058 1789.59,759.759 1752.93,758.297 1715.7,756.651 1677.94,754.801 1639.66,752.722 1600.89,750.388 1561.65,747.768 1521.96,744.83 1481.83,741.535 1441.27,737.841 1400.3,733.7 1358.93,895.28 1317.16,901.087 1282.61,901.216 1252.83,897.458 1222.84,893.948 1192.7,890.679 1162.45,887.639 1132.13,884.819 1101.79,882.209 1071.47,879.797 1041.23,877.573 1011.09,875.526 981.11,873.644 951.322,871.917 921.768,870.334 892.487,868.887 863.518,867.565 834.898,866.358 806.663,865.259 778.85,864.259 751.491,863.35 724.621,862.525 698.272,861.777 672.476,861.1 647.263,860.488 622.663,859.936 598.704,859.437 575.413,858.988 552.818,858.584 530.944,858.222 509.815,857.897 489.455,857.605 469.887,857.345 451.132,857.112 433.211,856.905 416.143,856.721 399.948,856.557 384.642,856.412 370.242,856.284 356.764,856.172 344.222,856.073 332.63,855.986 321.999,855.911 312.342,855.846 303.669,855.79 295.989,855.742 289.309,855.703 283.639,855.67 278.983,855.644 275.346,855.624 272.733,855.61 271.147,855.602 270.59,855.599 271.062,855.601 272.564,855.609 275.094,855.623 278.651,855.642 283.23,855.668 288.829,855.7 295.442,855.739 303.062,855.786 311.683,855.841 321.297,855.906 331.894,855.981 343.466,856.067 356,856.165 369.486,856.278 383.911,856.406 399.262,856.55 415.525,856.714 432.685,856.899 450.725,857.107 469.631,857.341 489.384,857.604 509.968,857.899 531.363,858.228 553.552,858.597 576.514,859.009 600.23,859.468 624.68,859.979 649.843,860.549 675.698,861.182 702.224,861.886 729.399,862.667 757.203,863.534 785.613,864.495 814.607,865.559 844.166,866.738 874.266,868.043 904.888,869.486 936.01,871.081 967.613,872.844 999.678,874.791 1032.18,876.942 1065.12,879.315 1098.46,881.934 1132.19,884.825 1166.3,888.013 1200.78,891.531 1235.62,895.411 1270.8,899.692 1304.17,722.12 1327.31,725.169 1350.64,728.068 1374.11,730.817 1397.69,733.421 1421.35,735.881 1445.05,738.202 1468.77,740.387 1492.46,742.442 1516.1,744.37 1539.65,746.178 1563.09,747.869 1586.38,749.45 1609.48,750.926 1632.38,752.302 1655.04,753.583 1677.43,754.774 1699.52,755.881 1721.28,756.909 1742.69,757.861 1763.73,758.743 1784.36,759.56 1804.56,760.314 1824.31,761.011 1843.57,761.654 1862.34,762.247 1880.59,762.792 1898.29,763.294 1915.43,763.755 1931.98,764.179 1947.93,764.567 1963.26,764.922 1977.95,765.247 1991.98,765.544 2005.34,765.814 2018.02,766.06 2029.99,766.283 2041.25,766.484 2051.78,766.666 2061.57,766.83 2070.61,766.976 2078.89,767.106 2086.4,767.22 2093.13,767.321 2099.07,767.407 2104.22,767.481 2108.57,767.542 2112.12,767.591 2114.86,767.628 2116.79,767.654 2117.9,767.669 2118.2,767.673 2117.67,767.666 2116.33,767.648 2114.17,767.619 2111.2,767.578 2107.41,767.526 2102.81,767.461 2097.4,767.383 2091.19,767.292 2084.18,767.187 2076.38,767.067 2067.8,766.931 2058.44,766.778 2048.31,766.607 2037.41,766.417 2025.77,766.205 2013.39,765.971 2000.28,765.713 1986.44,765.428 1971.9,765.115 1956.67,764.772 1940.76,764.395 1924.17,763.982 1906.94,763.53 1889.06,763.036 1870.56,762.496 1851.45,761.907 1831.75,761.264 1811.47,760.563 1790.63,759.799 1769.24,758.966 1747.32,758.06 1724.89,757.073 1701.96,756 1678.56,754.833 1654.69,753.564 1630.37,752.184 1605.63,750.686 1580.47,749.058 1554.92,747.291 1528.98,745.372 1502.67,743.289 1476.01,741.029 1449.01,738.576 1421.69,735.916 1394.05,733.03 1366.11,729.899 1337.88,726.504 1309.37,722.82 1289.25,902.094 1272.98,899.97 1256.58,897.917 1240.09,895.935 1223.53,894.026 1206.91,892.189 1190.26,890.424 1173.6,888.732 1156.95,887.111 1140.33,885.561 1123.77,884.08 1107.29,882.667 1090.9,881.321 1074.64,880.04 1058.51,878.822 1042.54,877.666 1026.75,876.569 1011.15,875.53 995.783,874.546 980.649,873.616 965.772,872.737 951.171,871.908 936.863,871.127 922.865,870.391 909.195,869.699 895.87,869.048 882.906,868.438 870.318,867.866 858.121,867.33 846.331,866.829 834.961,866.361 824.025,865.924 813.536,865.518 803.506,865.141 793.949,864.792 784.874,864.469 776.293,864.171 768.216,863.897 760.653,863.646 753.613,863.418 747.104,863.211 741.135,863.024 735.713,862.858 730.845,862.71 726.536,862.582 722.793,862.471 719.621,862.378 717.023,862.303 715.004,862.245 713.566,862.204 712.713,862.18 712.447,862.172 712.768,862.181 713.678,862.207 715.177,862.25 717.265,862.31 719.94,862.388 723.202,862.483 727.048,862.597 731.476,862.729 736.483,862.881 742.064,863.053 748.217,863.246 754.935,863.46 762.215,863.697 770.05,863.958 778.434,864.244 787.361,864.556 796.823,864.896 806.813,865.264 817.324,865.664 828.346,866.095 839.871,866.561 851.89,867.063 864.393,867.603 877.372,868.184 890.815,868.808 904.712,869.477 919.054,870.195 933.827,870.965 949.023,871.789 964.629,872.671 980.634,873.615 997.027,874.624 1013.8,875.703 1030.93,876.855 1048.41,878.085 1066.24,879.399 1084.39,880.801 1102.86,882.297 1121.63,883.893 1140.7,885.594 1160.04,887.407 1179.66,889.34 1199.54,891.399 1219.67,893.592 1240.03,895.928 1260.62,898.415 1281.43,901.062 1301.17,721.712 1309.69,722.863 1318.27,723.999 "/>
<polyline clip-path="url(#clip812)" style="stroke:#008000; stroke-linecap:round; stroke-linejoin:round; stroke-width:8; stroke-opacity:1; fill:none" stroke-dasharray="4, 8" points="1300.32,505.893 1336.26,532.276 1372.48,559.956 1408.92,588.843 1445.51,618.822 1482.19,649.757 1518.92,681.489 1555.63,713.842 1592.26,746.623 1628.77,779.63 1665.09,812.657 1701.19,845.497 1737.01,877.947 1772.5,909.816 1807.61,940.929 1842.3,971.127 1876.53,1000.27 1910.26,1028.26 1943.43,1054.99 1976.02,1080.41 2007.98,1104.46 2039.27,1127.13 2069.87,1148.43 2099.73,1168.35 2128.82,1186.94 2157.1,1204.22 2184.55,1220.25 2211.14,1235.09 2236.84,1248.78 2261.61,1261.39 2285.43,1272.99 2308.28,1283.63 2330.13,1293.37 2350.96,1302.27 2370.74,1310.39 2389.46,1317.78 2407.1,1324.48 2423.63,1330.54 2439.04,1336.01 2453.32,1340.91 2466.45,1345.29 2478.41,1349.18 2489.19,1352.59 2498.79,1355.57 2507.19,1358.12 2514.38,1360.27 2520.36,1362.03 2525.12,1363.42 2528.65,1364.44 2530.96,1365.1 2532.03,1365.41 2531.88,1365.36 2530.49,1364.97 2527.88,1364.22 2524.03,1363.1 2518.96,1361.62 2512.67,1359.77 2505.17,1357.52 2496.47,1354.86 2486.57,1351.77 2475.48,1348.23 2463.21,1344.22 2449.78,1339.71 2435.2,1334.66 2419.48,1329.04 2402.64,1322.81 2384.69,1315.92 2365.66,1308.33 2345.55,1299.99 2324.39,1290.85 2302.2,1280.84 2278.99,1269.9 2254.8,1257.98 2229.64,1245.01 2203.53,1230.91 2176.5,1215.63 2148.58,1199.1 2119.79,1181.25 2090.14,1162.05 2059.68,1141.44 2028.42,1119.37 1996.4,1095.85 1963.63,1070.85 1930.15,1044.39 1895.97,1016.5 1861.14,987.255 1825.67,956.726 1789.59,925.024 1752.93,892.286 1715.7,858.667 1677.94,824.348 1639.66,789.523 1600.89,754.404 1561.65,719.205 1521.96,684.146 1481.83,649.444 1441.27,615.306 1400.3,581.925 1358.93,549.478 1317.16,518.118 1282.61,493.306 1252.83,472.771 1222.84,452.909 1192.7,433.774 1162.45,415.412 1132.13,397.856 1101.79,381.13 1071.47,365.246 1041.23,350.207 1011.09,336.01 981.11,322.64 951.322,310.081 921.768,298.309 892.487,287.296 863.518,277.01 834.898,267.42 806.663,258.489 778.85,250.184 751.491,242.469 724.621,235.308 698.272,228.667 672.476,222.513 647.263,216.815 622.663,211.54 598.704,206.661 575.413,202.151 552.818,197.983 530.944,194.135 509.815,190.583 489.455,187.308 469.887,184.29 451.132,181.512 433.211,178.957 416.143,176.612 399.948,174.463 384.642,172.497 370.242,170.704 356.764,169.073 344.222,167.596 332.63,166.263 321.999,165.069 312.342,164.007 303.669,163.07 295.989,162.254 289.309,161.555 283.639,160.969 278.983,160.492 275.346,160.124 272.733,159.86 271.147,159.701 270.59,159.645 271.062,159.692 272.564,159.843 275.094,160.098 278.651,160.459 283.23,160.927 288.829,161.505 295.442,162.197 303.062,163.005 311.683,163.935 321.297,164.991 331.894,166.18 343.466,167.508 356,168.982 369.486,170.611 383.911,172.405 399.262,174.374 415.525,176.529 432.685,178.884 450.725,181.453 469.631,184.251 489.384,187.297 509.968,190.608 531.363,194.207 553.552,198.116 576.514,202.359 600.23,206.965 624.68,211.962 649.843,217.384 675.698,223.264 702.224,229.64 729.399,236.552 757.203,244.044 785.613,252.16 814.607,260.95 844.166,270.465 874.266,280.757 904.888,291.883 936.01,303.898 967.613,316.862 999.678,330.832 1032.18,345.865 1065.12,362.018 1098.46,379.344 1132.19,397.892 1166.3,417.705 1200.78,438.822 1235.62,461.27 1270.8,485.068 1304.17,508.668 1327.31,525.606 1350.64,543.135 1374.11,561.223 1397.69,579.833 1421.35,598.922 1445.05,618.442 1468.77,638.339 1492.46,658.555 1516.1,679.029 1539.65,699.695 1563.09,720.485 1586.38,741.331 1609.48,762.162 1632.38,782.91 1655.04,803.505 1677.43,823.881 1699.52,843.975 1721.28,863.726 1742.69,883.077 1763.73,901.978 1784.36,920.382 1804.56,938.247 1824.31,955.537 1843.57,972.222 1862.34,988.277 1880.59,1003.68 1898.29,1018.42 1915.43,1032.48 1931.98,1045.86 1947.93,1058.55 1963.26,1070.56 1977.95,1081.88 1991.98,1092.53 2005.34,1102.51 2018.02,1111.83 2029.99,1120.5 2041.25,1128.53 2051.78,1135.94 2061.57,1142.74 2070.61,1148.93 2078.89,1154.54 2086.4,1159.56 2093.13,1164.02 2099.07,1167.92 2104.22,1171.28 2108.57,1174.09 2112.12,1176.37 2114.86,1178.12 2116.79,1179.35 2117.9,1180.06 2118.2,1180.25 2117.67,1179.91 2116.33,1179.06 2114.17,1177.68 2111.2,1175.78 2107.41,1173.34 2102.81,1170.36 2097.4,1166.83 2091.19,1162.74 2084.18,1158.09 2076.38,1152.85 2067.8,1147.02 2058.44,1140.58 2048.31,1133.51 2037.41,1125.81 2025.77,1117.46 2013.39,1108.44 2000.28,1098.74 1986.44,1088.35 1971.9,1077.25 1956.67,1065.42 1940.76,1052.87 1924.17,1039.58 1906.94,1025.54 1889.06,1010.76 1870.56,995.243 1851.45,978.987 1831.75,962.007 1811.47,944.318 1790.63,925.942 1769.24,906.906 1747.32,887.243 1724.89,866.992 1701.96,846.198 1678.56,824.911 1654.69,803.188 1630.37,781.088 1605.63,758.679 1580.47,736.028 1554.92,713.209 1528.98,690.296 1502.67,667.364 1476.01,644.488 1449.01,621.744 1421.69,599.204 1394.05,576.939 1366.11,555.014 1337.88,533.493 1309.37,512.431 1289.25,497.997 1272.98,486.578 1256.58,475.316 1240.09,464.234 1223.53,453.352 1206.91,442.689 1190.26,432.26 1173.6,422.081 1156.95,412.166 1140.33,402.525 1123.77,393.167 1107.29,384.101 1090.9,375.331 1074.64,366.864 1058.51,358.7 1042.54,350.841 1026.75,343.287 1011.15,336.038 995.783,329.09 980.649,322.441 965.772,316.085 951.171,310.02 936.863,304.238 922.865,298.734 909.195,293.503 895.87,288.536 882.906,283.828 870.318,279.371 858.121,275.159 846.331,271.184 834.961,267.44 824.025,263.92 813.536,260.616 803.506,257.523 793.949,254.634 784.874,251.943 776.293,249.444 768.216,247.133 760.653,245.004 753.613,243.052 747.104,241.272 741.135,239.661 735.713,238.215 730.845,236.931 726.536,235.805 722.793,234.835 719.621,234.019 717.023,233.355 715.004,232.841 713.566,232.477 712.713,232.261 712.447,232.194 712.768,232.275 713.678,232.505 715.177,232.885 717.265,233.417 719.94,234.101 723.202,234.941 727.048,235.938 731.476,237.097 736.483,238.419 742.064,239.911 748.217,241.575 754.935,243.416 762.215,245.441 770.05,247.655 778.434,250.064 787.361,252.675 796.823,255.497 806.813,258.535 817.324,261.801 828.346,265.301 839.871,269.046 851.89,273.047 864.393,277.312 877.372,281.855 890.815,286.686 904.712,291.817 919.054,297.261 933.827,303.032 949.023,309.142 964.629,315.604 980.634,322.434 997.027,329.645 1013.8,337.251 1030.93,345.267 1048.41,353.706 1066.24,362.583 1084.39,371.912 1102.86,381.704 1121.63,391.974 1140.7,402.732 1160.04,413.99 1179.66,425.758 1199.54,438.043 1219.67,450.853 1240.03,464.194 1260.62,478.068 1281.43,492.479 1301.17,506.507 1309.69,512.663 1318.27,518.933 "/>
<path clip-path="url(#clip810)" d="M1437.25 477.116 L2282.59 477.116 L2282.59 166.076 L1437.25 166.076  Z" fill="#ffffff" fill-rule="evenodd" fill-opacity="1"/>
<polyline clip-path="url(#clip810)" style="stroke:#000000; stroke-linecap:round; stroke-linejoin:round; stroke-width:4; stroke-opacity:1; fill:none" points="1437.25,477.116 2282.59,477.116 2282.59,166.076 1437.25,166.076 1437.25,477.116 "/>
<polyline clip-path="url(#clip810)" style="stroke:#009af9; stroke-linecap:round; stroke-linejoin:round; stroke-width:12; stroke-opacity:1; fill:none" points="1460.64,243.836 1600.96,243.836 "/>
<path clip-path="url(#clip810)" d="M1657.72 219.617 L1657.72 226.457 Q1653.72 224.548 1650.18 223.61 Q1646.64 222.673 1643.34 222.673 Q1637.61 222.673 1634.49 224.895 Q1631.4 227.117 1631.4 231.214 Q1631.4 234.652 1633.45 236.423 Q1635.53 238.159 1641.29 239.235 L1645.53 240.103 Q1653.38 241.596 1657.09 245.381 Q1660.84 249.131 1660.84 255.45 Q1660.84 262.985 1655.77 266.874 Q1650.74 270.763 1640.98 270.763 Q1637.3 270.763 1633.13 269.929 Q1629 269.096 1624.56 267.464 L1624.56 260.242 Q1628.83 262.638 1632.92 263.853 Q1637.02 265.068 1640.98 265.068 Q1646.99 265.068 1650.25 262.707 Q1653.51 260.346 1653.51 255.971 Q1653.51 252.152 1651.15 249.999 Q1648.83 247.846 1643.48 246.77 L1639.21 245.936 Q1631.36 244.374 1627.86 241.041 Q1624.35 237.707 1624.35 231.77 Q1624.35 224.895 1629.17 220.937 Q1634.04 216.978 1642.54 216.978 Q1646.19 216.978 1649.97 217.638 Q1653.76 218.298 1657.72 219.617 Z" fill="#000000" fill-rule="nonzero" fill-opacity="1" /><path clip-path="url(#clip810)" d="M1671.5 230.867 L1677.89 230.867 L1677.89 269.756 L1671.5 269.756 L1671.5 230.867 M1671.5 215.728 L1677.89 215.728 L1677.89 223.818 L1671.5 223.818 L1671.5 215.728 Z" fill="#000000" fill-rule="nonzero" fill-opacity="1" /><path clip-path="url(#clip810)" d="M1721.54 238.332 Q1723.93 234.027 1727.26 231.978 Q1730.6 229.93 1735.11 229.93 Q1741.19 229.93 1744.49 234.2 Q1747.78 238.436 1747.78 246.284 L1747.78 269.756 L1741.36 269.756 L1741.36 246.492 Q1741.36 240.902 1739.38 238.193 Q1737.4 235.485 1733.34 235.485 Q1728.38 235.485 1725.49 238.784 Q1722.61 242.082 1722.61 247.777 L1722.61 269.756 L1716.19 269.756 L1716.19 246.492 Q1716.19 240.867 1714.21 238.193 Q1712.23 235.485 1708.1 235.485 Q1703.2 235.485 1700.32 238.818 Q1697.44 242.117 1697.44 247.777 L1697.44 269.756 L1691.01 269.756 L1691.01 230.867 L1697.44 230.867 L1697.44 236.909 Q1699.63 233.332 1702.68 231.631 Q1705.74 229.93 1709.94 229.93 Q1714.17 229.93 1717.13 232.082 Q1720.11 234.235 1721.54 238.332 Z" fill="#000000" fill-rule="nonzero" fill-opacity="1" /><path clip-path="url(#clip810)" d="M1766.71 263.922 L1766.71 284.547 L1760.28 284.547 L1760.28 230.867 L1766.71 230.867 L1766.71 236.77 Q1768.72 233.298 1771.78 231.631 Q1774.87 229.93 1779.14 229.93 Q1786.22 229.93 1790.63 235.555 Q1795.08 241.179 1795.08 250.346 Q1795.08 259.513 1790.63 265.138 Q1786.22 270.763 1779.14 270.763 Q1774.87 270.763 1771.78 269.096 Q1768.72 267.395 1766.71 263.922 M1788.44 250.346 Q1788.44 243.298 1785.53 239.304 Q1782.65 235.277 1777.58 235.277 Q1772.51 235.277 1769.59 239.304 Q1766.71 243.298 1766.71 250.346 Q1766.71 257.395 1769.59 261.422 Q1772.51 265.415 1777.58 265.415 Q1782.65 265.415 1785.53 261.422 Q1788.44 257.395 1788.44 250.346 Z" fill="#000000" fill-rule="nonzero" fill-opacity="1" /><path clip-path="url(#clip810)" d="M1805.67 215.728 L1812.06 215.728 L1812.06 269.756 L1805.67 269.756 L1805.67 215.728 Z" fill="#000000" fill-rule="nonzero" fill-opacity="1" /><path clip-path="url(#clip810)" d="M1858.69 248.714 L1858.69 251.839 L1829.31 251.839 Q1829.73 258.436 1833.27 261.909 Q1836.85 265.346 1843.2 265.346 Q1846.88 265.346 1850.32 264.443 Q1853.79 263.54 1857.19 261.735 L1857.19 267.777 Q1853.76 269.235 1850.15 269.999 Q1846.53 270.763 1842.82 270.763 Q1833.51 270.763 1828.06 265.346 Q1822.65 259.929 1822.65 250.693 Q1822.65 241.145 1827.78 235.555 Q1832.96 229.93 1841.71 229.93 Q1849.56 229.93 1854.1 234.999 Q1858.69 240.034 1858.69 248.714 M1852.3 246.839 Q1852.23 241.596 1849.35 238.471 Q1846.5 235.346 1841.78 235.346 Q1836.43 235.346 1833.2 238.367 Q1830.01 241.388 1829.52 246.874 L1852.3 246.839 Z" fill="#000000" fill-rule="nonzero" fill-opacity="1" /><path clip-path="url(#clip810)" d="M1869.45 217.916 L1899.24 217.916 L1899.24 223.818 L1876.46 223.818 L1876.46 239.096 L1897.02 239.096 L1897.02 244.999 L1876.46 244.999 L1876.46 269.756 L1869.45 269.756 L1869.45 217.916 Z" fill="#000000" fill-rule="nonzero" fill-opacity="1" /><path clip-path="url(#clip810)" d="M1910.35 217.916 L1920.8 217.916 L1934.03 253.193 L1947.33 217.916 L1957.78 217.916 L1957.78 269.756 L1950.94 269.756 L1950.94 224.235 L1937.58 259.79 L1930.53 259.79 L1917.16 224.235 L1917.16 269.756 L1910.35 269.756 L1910.35 217.916 Z" fill="#000000" fill-rule="nonzero" fill-opacity="1" /><path clip-path="url(#clip810)" d="M1970.91 217.916 L1977.96 217.916 L1977.96 249.409 Q1977.96 257.742 1980.98 261.422 Q1984 265.068 1990.77 265.068 Q1997.51 265.068 2000.53 261.422 Q2003.55 257.742 2003.55 249.409 L2003.55 217.916 L2010.6 217.916 L2010.6 250.277 Q2010.6 260.415 2005.56 265.589 Q2000.56 270.763 1990.77 270.763 Q1980.94 270.763 1975.91 265.589 Q1970.91 260.415 1970.91 250.277 L1970.91 217.916 Z" fill="#000000" fill-rule="nonzero" fill-opacity="1" /><polyline clip-path="url(#clip810)" style="stroke:#e26f46; stroke-linecap:round; stroke-linejoin:round; stroke-width:12; stroke-opacity:1; fill:none" points="1460.64,321.596 1600.96,321.596 "/>
<path clip-path="url(#clip810)" d="M1647.13 314.599 Q1646.05 313.974 1644.76 313.696 Q1643.51 313.384 1641.99 313.384 Q1636.57 313.384 1633.65 316.926 Q1630.77 320.433 1630.77 327.03 L1630.77 347.516 L1624.35 347.516 L1624.35 308.627 L1630.77 308.627 L1630.77 314.669 Q1632.79 311.127 1636.01 309.426 Q1639.24 307.69 1643.86 307.69 Q1644.52 307.69 1645.32 307.794 Q1646.12 307.863 1647.09 308.037 L1647.13 314.599 Z" fill="#000000" fill-rule="nonzero" fill-opacity="1" /><path clip-path="url(#clip810)" d="M1685.53 326.474 L1685.53 329.599 L1656.15 329.599 Q1656.57 336.196 1660.11 339.669 Q1663.69 343.106 1670.04 343.106 Q1673.72 343.106 1677.16 342.203 Q1680.63 341.3 1684.04 339.495 L1684.04 345.537 Q1680.6 346.995 1676.99 347.759 Q1673.38 348.523 1669.66 348.523 Q1660.35 348.523 1654.9 343.106 Q1649.49 337.689 1649.49 328.453 Q1649.49 318.905 1654.63 313.315 Q1659.8 307.69 1668.55 307.69 Q1676.4 307.69 1680.94 312.759 Q1685.53 317.794 1685.53 326.474 M1679.14 324.599 Q1679.07 319.356 1676.19 316.231 Q1673.34 313.106 1668.62 313.106 Q1663.27 313.106 1660.04 316.127 Q1656.85 319.148 1656.36 324.634 L1679.14 324.599 Z" fill="#000000" fill-rule="nonzero" fill-opacity="1" /><path clip-path="url(#clip810)" d="M1715.7 293.488 L1715.7 298.801 L1709.59 298.801 Q1706.15 298.801 1704.8 300.19 Q1703.48 301.578 1703.48 305.19 L1703.48 308.627 L1714 308.627 L1714 313.592 L1703.48 313.592 L1703.48 347.516 L1697.06 347.516 L1697.06 313.592 L1690.94 313.592 L1690.94 308.627 L1697.06 308.627 L1697.06 305.919 Q1697.06 299.426 1700.08 296.474 Q1703.1 293.488 1709.66 293.488 L1715.7 293.488 Z" fill="#000000" fill-rule="nonzero" fill-opacity="1" /><path clip-path="url(#clip810)" d="M1754.31 326.474 L1754.31 329.599 L1724.94 329.599 Q1725.35 336.196 1728.9 339.669 Q1732.47 343.106 1738.83 343.106 Q1742.51 343.106 1745.94 342.203 Q1749.42 341.3 1752.82 339.495 L1752.82 345.537 Q1749.38 346.995 1745.77 347.759 Q1742.16 348.523 1738.44 348.523 Q1729.14 348.523 1723.69 343.106 Q1718.27 337.689 1718.27 328.453 Q1718.27 318.905 1723.41 313.315 Q1728.58 307.69 1737.33 307.69 Q1745.18 307.69 1749.73 312.759 Q1754.31 317.794 1754.31 326.474 M1747.92 324.599 Q1747.85 319.356 1744.97 316.231 Q1742.13 313.106 1737.4 313.106 Q1732.06 313.106 1728.83 316.127 Q1725.63 319.148 1725.15 324.634 L1747.92 324.599 Z" fill="#000000" fill-rule="nonzero" fill-opacity="1" /><path clip-path="url(#clip810)" d="M1787.33 314.599 Q1786.26 313.974 1784.97 313.696 Q1783.72 313.384 1782.19 313.384 Q1776.78 313.384 1773.86 316.926 Q1770.98 320.433 1770.98 327.03 L1770.98 347.516 L1764.56 347.516 L1764.56 308.627 L1770.98 308.627 L1770.98 314.669 Q1772.99 311.127 1776.22 309.426 Q1779.45 307.69 1784.07 307.69 Q1784.73 307.69 1785.53 307.794 Q1786.33 307.863 1787.3 308.037 L1787.33 314.599 Z" fill="#000000" fill-rule="nonzero" fill-opacity="1" /><path clip-path="url(#clip810)" d="M1825.74 326.474 L1825.74 329.599 L1796.36 329.599 Q1796.78 336.196 1800.32 339.669 Q1803.9 343.106 1810.25 343.106 Q1813.93 343.106 1817.37 342.203 Q1820.84 341.3 1824.24 339.495 L1824.24 345.537 Q1820.81 346.995 1817.19 347.759 Q1813.58 348.523 1809.87 348.523 Q1800.56 348.523 1795.11 343.106 Q1789.69 337.689 1789.69 328.453 Q1789.69 318.905 1794.83 313.315 Q1800.01 307.69 1808.76 307.69 Q1816.6 307.69 1821.15 312.759 Q1825.74 317.794 1825.74 326.474 M1819.35 324.599 Q1819.28 319.356 1816.4 316.231 Q1813.55 313.106 1808.83 313.106 Q1803.48 313.106 1800.25 316.127 Q1797.06 319.148 1796.57 324.634 L1819.35 324.599 Z" fill="#000000" fill-rule="nonzero" fill-opacity="1" /><path clip-path="url(#clip810)" d="M1868.55 324.044 L1868.55 347.516 L1862.16 347.516 L1862.16 324.252 Q1862.16 318.731 1860.01 315.988 Q1857.85 313.245 1853.55 313.245 Q1848.37 313.245 1845.39 316.544 Q1842.4 319.842 1842.4 325.537 L1842.4 347.516 L1835.98 347.516 L1835.98 308.627 L1842.4 308.627 L1842.4 314.669 Q1844.69 311.162 1847.78 309.426 Q1850.91 307.69 1854.97 307.69 Q1861.67 307.69 1865.11 311.856 Q1868.55 315.988 1868.55 324.044 Z" fill="#000000" fill-rule="nonzero" fill-opacity="1" /><path clip-path="url(#clip810)" d="M1909.28 310.12 L1909.28 316.092 Q1906.57 314.599 1903.83 313.87 Q1901.12 313.106 1898.34 313.106 Q1892.12 313.106 1888.69 317.064 Q1885.25 320.988 1885.25 328.106 Q1885.25 335.224 1888.69 339.182 Q1892.12 343.106 1898.34 343.106 Q1901.12 343.106 1903.83 342.377 Q1906.57 341.613 1909.28 340.12 L1909.28 346.023 Q1906.6 347.273 1903.72 347.898 Q1900.87 348.523 1897.65 348.523 Q1888.86 348.523 1883.69 343.002 Q1878.51 337.481 1878.51 328.106 Q1878.51 318.592 1883.72 313.141 Q1888.96 307.69 1898.06 307.69 Q1901.01 307.69 1903.83 308.315 Q1906.64 308.905 1909.28 310.12 Z" fill="#000000" fill-rule="nonzero" fill-opacity="1" /><path clip-path="url(#clip810)" d="M1953.65 326.474 L1953.65 329.599 L1924.28 329.599 Q1924.69 336.196 1928.24 339.669 Q1931.81 343.106 1938.17 343.106 Q1941.85 343.106 1945.28 342.203 Q1948.76 341.3 1952.16 339.495 L1952.16 345.537 Q1948.72 346.995 1945.11 347.759 Q1941.5 348.523 1937.78 348.523 Q1928.48 348.523 1923.03 343.106 Q1917.61 337.689 1917.61 328.453 Q1917.61 318.905 1922.75 313.315 Q1927.92 307.69 1936.67 307.69 Q1944.52 307.69 1949.07 312.759 Q1953.65 317.794 1953.65 326.474 M1947.26 324.599 Q1947.19 319.356 1944.31 316.231 Q1941.46 313.106 1936.74 313.106 Q1931.4 313.106 1928.17 316.127 Q1924.97 319.148 1924.49 324.634 L1947.26 324.599 Z" fill="#000000" fill-rule="nonzero" fill-opacity="1" /><polyline clip-path="url(#clip810)" style="stroke:#008000; stroke-linecap:round; stroke-linejoin:round; stroke-width:12; stroke-opacity:1; fill:none" stroke-dasharray="6, 12" points="1460.64,399.356 1600.96,399.356 "/>
<path clip-path="url(#clip810)" d="M1624.35 373.436 L1633.79 373.436 L1656.78 416.804 L1656.78 373.436 L1663.58 373.436 L1663.58 425.276 L1654.14 425.276 L1631.15 381.908 L1631.15 425.276 L1624.35 425.276 L1624.35 373.436 Z" fill="#000000" fill-rule="nonzero" fill-opacity="1" /><path clip-path="url(#clip810)" d="M1710.53 404.234 L1710.53 407.359 L1681.15 407.359 Q1681.57 413.956 1685.11 417.429 Q1688.69 420.866 1695.04 420.866 Q1698.72 420.866 1702.16 419.963 Q1705.63 419.06 1709.04 417.255 L1709.04 423.297 Q1705.6 424.755 1701.99 425.519 Q1698.38 426.283 1694.66 426.283 Q1685.35 426.283 1679.9 420.866 Q1674.49 415.449 1674.49 406.213 Q1674.49 396.665 1679.63 391.075 Q1684.8 385.45 1693.55 385.45 Q1701.4 385.45 1705.94 390.519 Q1710.53 395.554 1710.53 404.234 M1704.14 402.359 Q1704.07 397.116 1701.19 393.991 Q1698.34 390.866 1693.62 390.866 Q1688.27 390.866 1685.04 393.887 Q1681.85 396.908 1681.36 402.394 L1704.14 402.359 Z" fill="#000000" fill-rule="nonzero" fill-opacity="1" /><path clip-path="url(#clip810)" d="M1720.35 409.929 L1720.35 386.387 L1726.74 386.387 L1726.74 409.686 Q1726.74 415.206 1728.9 417.984 Q1731.05 420.727 1735.35 420.727 Q1740.53 420.727 1743.51 417.429 Q1746.53 414.13 1746.53 408.436 L1746.53 386.387 L1752.92 386.387 L1752.92 425.276 L1746.53 425.276 L1746.53 419.304 Q1744.21 422.845 1741.12 424.581 Q1738.06 426.283 1734 426.283 Q1727.3 426.283 1723.83 422.116 Q1720.35 417.949 1720.35 409.929 M1736.43 385.45 L1736.43 385.45 Z" fill="#000000" fill-rule="nonzero" fill-opacity="1" /><path clip-path="url(#clip810)" d="M1788.62 392.359 Q1787.54 391.734 1786.26 391.456 Q1785.01 391.144 1783.48 391.144 Q1778.06 391.144 1775.15 394.686 Q1772.26 398.193 1772.26 404.79 L1772.26 425.276 L1765.84 425.276 L1765.84 386.387 L1772.26 386.387 L1772.26 392.429 Q1774.28 388.887 1777.51 387.186 Q1780.74 385.45 1785.35 385.45 Q1786.01 385.45 1786.81 385.554 Q1787.61 385.623 1788.58 385.797 L1788.62 392.359 Z" fill="#000000" fill-rule="nonzero" fill-opacity="1" /><path clip-path="url(#clip810)" d="M1812.99 405.727 Q1805.25 405.727 1802.26 407.498 Q1799.28 409.269 1799.28 413.54 Q1799.28 416.942 1801.5 418.956 Q1803.76 420.935 1807.61 420.935 Q1812.92 420.935 1816.12 417.185 Q1819.35 413.401 1819.35 407.151 L1819.35 405.727 L1812.99 405.727 M1825.74 403.088 L1825.74 425.276 L1819.35 425.276 L1819.35 419.373 Q1817.16 422.915 1813.9 424.616 Q1810.63 426.283 1805.91 426.283 Q1799.94 426.283 1796.4 422.949 Q1792.89 419.581 1792.89 413.956 Q1792.89 407.394 1797.26 404.061 Q1801.67 400.727 1810.39 400.727 L1819.35 400.727 L1819.35 400.102 Q1819.35 395.693 1816.43 393.297 Q1813.55 390.866 1808.31 390.866 Q1804.97 390.866 1801.81 391.665 Q1798.65 392.463 1795.74 394.061 L1795.74 388.158 Q1799.24 386.804 1802.54 386.144 Q1805.84 385.45 1808.97 385.45 Q1817.4 385.45 1821.57 389.825 Q1825.74 394.199 1825.74 403.088 Z" fill="#000000" fill-rule="nonzero" fill-opacity="1" /><path clip-path="url(#clip810)" d="M1838.9 371.248 L1845.28 371.248 L1845.28 425.276 L1838.9 425.276 L1838.9 371.248 Z" fill="#000000" fill-rule="nonzero" fill-opacity="1" /><path clip-path="url(#clip810)" d="M1858.93 373.436 L1888.72 373.436 L1888.72 379.338 L1865.94 379.338 L1865.94 394.616 L1886.5 394.616 L1886.5 400.519 L1865.94 400.519 L1865.94 425.276 L1858.93 425.276 L1858.93 373.436 Z" fill="#000000" fill-rule="nonzero" fill-opacity="1" /><path clip-path="url(#clip810)" d="M1899.83 373.436 L1910.28 373.436 L1923.51 408.713 L1936.81 373.436 L1947.26 373.436 L1947.26 425.276 L1940.42 425.276 L1940.42 379.755 L1927.05 415.31 L1920.01 415.31 L1906.64 379.755 L1906.64 425.276 L1899.83 425.276 L1899.83 373.436 Z" fill="#000000" fill-rule="nonzero" fill-opacity="1" /><path clip-path="url(#clip810)" d="M1960.39 373.436 L1967.44 373.436 L1967.44 404.929 Q1967.44 413.262 1970.46 416.942 Q1973.48 420.588 1980.25 420.588 Q1986.99 420.588 1990.01 416.942 Q1993.03 413.262 1993.03 404.929 L1993.03 373.436 L2000.08 373.436 L2000.08 405.797 Q2000.08 415.935 1995.04 421.109 Q1990.04 426.283 1980.25 426.283 Q1970.42 426.283 1965.39 421.109 Q1960.39 415.935 1960.39 405.797 L1960.39 373.436 Z" fill="#000000" fill-rule="nonzero" fill-opacity="1" /><path clip-path="url(#clip810)" d="M2050.91 371.318 Q2046.26 379.304 2044 387.116 Q2041.74 394.929 2041.74 402.949 Q2041.74 410.97 2044 418.852 Q2046.29 426.699 2050.91 434.651 L2045.35 434.651 Q2040.14 426.491 2037.54 418.609 Q2034.97 410.727 2034.97 402.949 Q2034.97 395.206 2037.54 387.359 Q2040.11 379.512 2045.35 371.318 L2050.91 371.318 Z" fill="#000000" fill-rule="nonzero" fill-opacity="1" /><path clip-path="url(#clip810)" d="M2070.25 419.373 L2094.73 419.373 L2094.73 425.276 L2061.81 425.276 L2061.81 419.373 Q2065.8 415.241 2072.68 408.297 Q2079.59 401.318 2081.36 399.304 Q2084.73 395.519 2086.05 392.915 Q2087.4 390.276 2087.4 387.741 Q2087.4 383.609 2084.48 381.005 Q2081.6 378.401 2076.95 378.401 Q2073.65 378.401 2069.97 379.547 Q2066.32 380.693 2062.16 383.019 L2062.16 375.936 Q2066.39 374.234 2070.07 373.366 Q2073.76 372.498 2076.81 372.498 Q2084.87 372.498 2089.66 376.526 Q2094.45 380.554 2094.45 387.29 Q2094.45 390.484 2093.23 393.366 Q2092.05 396.213 2088.89 400.102 Q2088.03 401.109 2083.37 405.936 Q2078.72 410.727 2070.25 419.373 Z" fill="#000000" fill-rule="nonzero" fill-opacity="1" /><path clip-path="url(#clip810)" d="M2109.52 373.436 L2137.05 373.436 L2137.05 379.338 L2115.94 379.338 L2115.94 392.047 Q2117.47 391.526 2119 391.283 Q2120.53 391.005 2122.05 391.005 Q2130.73 391.005 2135.8 395.762 Q2140.87 400.519 2140.87 408.644 Q2140.87 417.012 2135.66 421.665 Q2130.46 426.283 2120.98 426.283 Q2117.71 426.283 2114.31 425.727 Q2110.94 425.172 2107.33 424.06 L2107.33 417.012 Q2110.46 418.713 2113.79 419.547 Q2117.12 420.38 2120.84 420.38 Q2126.85 420.38 2130.35 417.22 Q2133.86 414.06 2133.86 408.644 Q2133.86 403.227 2130.35 400.068 Q2126.85 396.908 2120.84 396.908 Q2118.03 396.908 2115.21 397.533 Q2112.44 398.158 2109.52 399.477 L2109.52 373.436 Z" fill="#000000" fill-rule="nonzero" fill-opacity="1" /><path clip-path="url(#clip810)" d="M2169.69 378.054 Q2164.28 378.054 2161.53 383.401 Q2158.82 388.713 2158.82 399.408 Q2158.82 410.067 2161.53 415.415 Q2164.28 420.727 2169.69 420.727 Q2175.14 420.727 2177.85 415.415 Q2180.6 410.067 2180.6 399.408 Q2180.6 388.713 2177.85 383.401 Q2175.14 378.054 2169.69 378.054 M2169.69 372.498 Q2178.41 372.498 2182.99 379.408 Q2187.61 386.283 2187.61 399.408 Q2187.61 412.498 2182.99 419.408 Q2178.41 426.283 2169.69 426.283 Q2160.98 426.283 2156.36 419.408 Q2151.78 412.498 2151.78 399.408 Q2151.78 386.283 2156.36 379.408 Q2160.98 372.498 2169.69 372.498 Z" fill="#000000" fill-rule="nonzero" fill-opacity="1" /><path clip-path="url(#clip810)" d="M2214.94 378.054 Q2209.52 378.054 2206.78 383.401 Q2204.07 388.713 2204.07 399.408 Q2204.07 410.067 2206.78 415.415 Q2209.52 420.727 2214.94 420.727 Q2220.39 420.727 2223.09 415.415 Q2225.84 410.067 2225.84 399.408 Q2225.84 388.713 2223.09 383.401 Q2220.39 378.054 2214.94 378.054 M2214.94 372.498 Q2223.65 372.498 2228.23 379.408 Q2232.85 386.283 2232.85 399.408 Q2232.85 412.498 2228.23 419.408 Q2223.65 426.283 2214.94 426.283 Q2206.22 426.283 2201.6 419.408 Q2197.02 412.498 2197.02 399.408 Q2197.02 386.283 2201.6 379.408 Q2206.22 372.498 2214.94 372.498 Z" fill="#000000" fill-rule="nonzero" fill-opacity="1" /><path clip-path="url(#clip810)" d="M2243.27 371.318 L2248.82 371.318 Q2254.03 379.512 2256.6 387.359 Q2259.21 395.206 2259.21 402.949 Q2259.21 410.727 2256.6 418.609 Q2254.03 426.491 2248.82 434.651 L2243.27 434.651 Q2247.89 426.699 2250.14 418.852 Q2252.43 410.97 2252.43 402.949 Q2252.43 394.929 2250.14 387.116 Q2247.89 379.304 2243.27 371.318 Z" fill="#000000" fill-rule="nonzero" fill-opacity="1" /></svg>
